M48
; DRILL file KiCad 10.0.0 date 2026-05-22T05:00:03
; FORMAT={-:-/ absolute / metric / decimal}
; #@! TF.CreationDate,2026-05-22T05:00:03+05:30
; #@! TF.GenerationSoftware,Kicad,Pcbnew,10.0.0
; #@! TF.FileFunction,Plated,1,2,PTH
FMAT,2
METRIC
; #@! TA.AperFunction,Plated,PTH,ViaDrill
T1C0.400
; #@! TA.AperFunction,Plated,PTH,ComponentDrill
T2C0.600
; #@! TA.AperFunction,Plated,PTH,ComponentDrill
T3C0.700
; #@! TA.AperFunction,Plated,PTH,ComponentDrill
T4C0.800
; #@! TA.AperFunction,Plated,PTH,ComponentDrill
T5C0.950
; #@! TA.AperFunction,Plated,PTH,ComponentDrill
T6C1.000
; #@! TA.AperFunction,Plated,PTH,ComponentDrill
T7C1.100
; #@! TA.AperFunction,Plated,PTH,ComponentDrill
T8C1.300
; #@! TA.AperFunction,Plated,PTH,ComponentDrill
T9C1.700
; #@! TA.AperFunction,Plated,PTH,ComponentDrill
T10C3.800
%
G90
G05
T1
X4.92Y-136.21
X4.99Y-126.55
X5.48Y-137.04
X5.77Y-127.35
X7.03Y-127.42
X7.12Y-137.2
X13.27Y-144.15
X13.27Y-145.49
X13.36Y-108.26
X13.36Y-136.36
X13.37Y-126.51
X13.96Y-107.0
X14.1Y-108.97
X14.1Y-144.8
X14.16Y-137.08
X14.17Y-127.29
X14.26Y-145.9
X14.27Y-143.78
X14.35Y-107.95
X14.65Y-36.88
X14.72Y-5.67
X14.72Y-67.85
X14.76Y-21.36
X14.77Y-35.82
X14.77Y-51.95
X14.89Y-66.79
X14.94Y-20.37
X15.04Y-4.58
X15.11Y-107.24
X15.27Y-51.04
X15.57Y-127.39
X15.6Y-36.48
X15.63Y-137.22
X15.75Y-21.09
X15.75Y-67.46
X15.77Y-5.44
X15.84Y-51.87
X16.31Y-20.25
X16.31Y-35.68
X16.42Y-66.66
X16.45Y-50.93
X16.47Y-4.61
X16.62Y-36.66
X16.77Y-21.25
X16.77Y-67.74
X16.85Y-5.71
X16.86Y-52.0
X19.641Y-97.484
X19.761Y-96.294
X19.911Y-98.704
X20.051Y-95.024
X20.159Y-55.17
X20.671Y-97.204
X20.711Y-95.964
X21.161Y-94.894
X21.171Y-98.424
X21.249Y-55.37
X21.565Y-99.443
X21.77Y-94.1
X22.039Y-54.75
X28.955Y-132.517
X29.155Y-131.427
X29.575Y-133.307
X31.962Y-122.93
X32.291Y-124.04
X32.82Y-19.63
X32.87Y-18.09
X32.911Y-116.563
X33.21Y-48.06
X33.232Y-117.618
X33.87Y-47.15
X34.38Y-48.06
X34.52Y-42.87
X34.52Y-43.93
X34.53Y-41.75
X35.0Y-47.07
X35.59Y-48.08
X35.79Y-144.6
X35.84Y-152.71
X36.45Y-20.16
X36.99Y-144.42
X37.06Y-152.46
X37.25Y-28.41
X37.48Y-20.2
X37.83Y-29.43
X38.221Y-117.656
X38.35Y-28.41
X38.49Y-20.2
X38.95Y-29.4
X39.44Y-28.41
X40.07Y-114.628
X40.91Y-20.154
X40.938Y-113.591
X40.962Y-115.617
X41.28Y-118.84
X41.98Y-114.61
X42.029Y-132.6
X42.171Y-82.713
X42.591Y-84.593
X42.723Y-19.316
X42.791Y-83.503
X42.892Y-113.591
X42.941Y-115.617
X43.029Y-132.93
X43.733Y-19.276
X43.906Y-114.62
X44.026Y-132.572
X44.196Y-69.146
X44.92Y-111.45
X45.0Y-112.58
X45.203Y-69.127
X45.69Y-152.65
X45.88Y-144.68
X46.223Y-69.107
X46.734Y-132.327
X46.89Y-152.4
X46.98Y-106.28
X47.0Y-105.26
X47.0Y-144.29
X47.05Y-109.78
X47.07Y-107.35
X47.07Y-108.66
X47.774Y-132.217
X48.374Y-131.347
X49.656Y-69.553
X52.411Y-14.934
X53.427Y-14.56
X53.867Y-13.55
X54.497Y-14.53
X54.937Y-13.55
X55.37Y-30.904
X55.5Y-144.62
X55.55Y-152.68
X55.587Y-14.67
X56.46Y-31.104
X56.56Y-144.51
X56.572Y-15.658
X56.62Y-152.71
X57.25Y-30.484
X57.36Y-151.94
X57.39Y-143.88
X59.639Y-61.196
X60.899Y-61.136
X62.62Y-146.05
X63.91Y-145.99
X64.832Y-131.662
X64.89Y-146.7
X64.95Y-147.97
X65.957Y-136.198
X67.107Y-136.168
X67.117Y-130.31
X67.23Y-69.54
X67.287Y-14.81
X67.567Y-13.85
X68.137Y-130.29
X68.24Y-69.57
X68.287Y-136.198
X68.327Y-14.56
X69.177Y-13.82
X69.487Y-14.89
X71.106Y-136.117
X71.858Y-115.647
X71.878Y-116.667
X72.011Y-111.867
X72.296Y-136.227
X75.22Y-98.56
X76.24Y-98.53
X76.89Y-144.34
X77.36Y-67.43
X77.68Y-145.29
X78.38Y-67.41
X79.1Y-145.41
X80.613Y-149.941
X81.603Y-149.581
X82.553Y-150.051
X83.607Y-153.345
X84.557Y-153.815
X84.82Y-59.516
X85.547Y-153.455
X85.83Y-113.11
X85.85Y-118.56
X85.86Y-59.576
X86.97Y-139.41
X87.19Y-113.11
X88.11Y-139.19
X89.37Y-139.37
X90.22Y-140.5
X94.98Y-152.91
X96.0Y-153.09
X96.21Y-65.62
X96.28Y-71.36
X96.56Y-139.88
X96.91Y-152.65
X97.3Y-118.61
X97.56Y-65.64
X97.59Y-139.26
X98.58Y-112.97
X98.92Y-139.22
X100.02Y-140.23
X102.99Y-113.79
X103.0Y-119.38
X104.86Y-152.87
X105.88Y-153.13
X106.87Y-152.71
X107.65Y-71.3
X109.33Y-107.42
X109.77Y-98.67
X110.61Y-86.2
X111.61Y-86.2
X113.218Y-154.119
X113.53Y-70.82
X113.55Y-66.14
X113.638Y-153.099
X113.848Y-155.069
X116.553Y-114.631
X117.643Y-114.831
X118.433Y-114.211
T4
X77.526Y-151.274
X78.527Y-152.274
X79.526Y-151.274
X80.526Y-152.274
X81.526Y-151.274
X82.526Y-152.274
X83.526Y-151.274
X84.526Y-152.274
X85.526Y-151.274
X88.5Y-140.847
X88.5Y-144.347
X98.5Y-140.847
X98.5Y-144.347
T5
X60.167Y-58.995
X60.264Y-68.001
X62.667Y-58.995
X62.764Y-68.001
X65.167Y-58.995
X65.264Y-68.001
X67.667Y-58.995
X67.764Y-68.001
X77.647Y-57.775
X77.796Y-68.992
X80.147Y-57.775
X80.296Y-68.992
X81.255Y-127.907
X82.647Y-57.775
X82.796Y-68.992
X83.755Y-127.907
X85.147Y-57.775
X85.296Y-68.992
X86.255Y-127.907
X88.755Y-127.907
X96.175Y-127.907
X98.675Y-127.907
X101.175Y-127.907
X103.675Y-127.907
T6
X5.896Y-4.5
X5.896Y-15.5
X5.896Y-20.0
X5.896Y-31.0
X6.0Y-35.5
X6.0Y-46.5
X6.0Y-51.0
X6.0Y-62.0
X6.0Y-66.5
X6.0Y-77.5
X6.0Y-106.0
X6.0Y-117.0
X6.0Y-142.0
X6.0Y-153.0
X6.525Y-123.5
X6.525Y-126.0
X6.525Y-133.312
X6.525Y-135.812
X15.0Y-123.5
X15.0Y-126.0
X15.025Y-133.312
X15.025Y-135.812
X29.57Y-49.842
X33.5Y-142.975
X33.5Y-151.0
X34.57Y-49.842
X36.0Y-142.975
X36.0Y-151.0
X43.5Y-142.975
X43.5Y-151.0
X46.0Y-142.975
X46.0Y-151.0
X46.357Y-6.52
X53.5Y-142.975
X53.5Y-151.0
X56.0Y-142.975
X56.0Y-151.0
X57.357Y-6.52
X60.357Y-6.52
X71.357Y-6.52
X78.5Y-141.475
X78.5Y-143.975
X93.25Y-151.5
X95.75Y-151.5
X96.75Y-50.525
X96.75Y-57.525
X99.25Y-50.525
X99.25Y-57.525
X103.25Y-151.5
X105.75Y-151.5
X107.338Y-139.7
X107.338Y-142.2
X108.75Y-50.525
X108.75Y-57.525
X111.25Y-50.525
X111.25Y-57.525
X115.326Y-139.7
X115.326Y-142.2
T7
X52.06Y-105.5
X52.22Y-79.0
X53.05Y-84.698
X53.05Y-99.938
X54.6Y-105.5
X54.76Y-79.0
X55.59Y-84.698
X55.59Y-99.938
X57.14Y-105.5
X57.3Y-79.0
X58.13Y-84.698
X58.13Y-99.938
X59.68Y-105.5
X59.84Y-79.0
X60.67Y-84.698
X60.67Y-99.938
X62.22Y-105.5
X62.38Y-79.0
X63.21Y-84.698
X63.21Y-99.938
X64.76Y-105.5
X64.92Y-79.0
X65.75Y-84.698
X65.75Y-99.938
X67.3Y-105.5
X67.46Y-79.0
X68.29Y-84.698
X68.29Y-99.938
X69.84Y-105.5
X70.0Y-79.0
X70.83Y-84.698
X70.83Y-99.938
X72.38Y-105.5
X72.54Y-79.0
X73.37Y-84.698
X73.37Y-99.938
X74.92Y-105.5
X75.08Y-79.0
X75.91Y-84.698
X75.91Y-99.938
X77.46Y-105.5
X77.62Y-79.0
X78.45Y-84.698
X78.45Y-99.938
X80.0Y-105.5
X80.16Y-79.0
X80.99Y-84.698
X80.99Y-99.938
X83.53Y-84.698
X83.53Y-99.938
X84.07Y-105.5
X84.18Y-79.0
X86.07Y-84.698
X86.07Y-99.938
X86.61Y-105.5
X86.72Y-79.0
X88.61Y-84.698
X88.61Y-99.938
X89.15Y-105.5
X89.26Y-79.0
X91.15Y-84.698
X91.15Y-99.938
X91.69Y-105.5
X91.8Y-79.0
X93.69Y-84.698
X93.69Y-99.938
X94.23Y-105.5
X94.34Y-79.0
X96.23Y-84.698
X96.23Y-99.938
X96.77Y-105.5
X96.88Y-79.0
X98.77Y-84.698
X98.77Y-99.938
X99.31Y-105.5
X99.42Y-79.0
X101.31Y-84.698
X101.31Y-99.938
X101.85Y-105.5
X101.96Y-79.0
X103.85Y-84.698
X103.85Y-99.938
X104.39Y-105.5
X104.5Y-79.0
X106.39Y-84.698
X106.39Y-99.938
X106.93Y-105.5
X107.04Y-79.0
X108.93Y-84.698
X108.93Y-99.938
X109.47Y-105.5
X109.58Y-79.0
X111.47Y-84.698
X111.47Y-99.938
X112.01Y-105.5
X112.12Y-79.0
T8
X42.465Y-58.328
X47.545Y-58.328
X115.742Y-148.896
X115.742Y-153.976
T9
X15.896Y-7.5
X15.896Y-12.5
X15.896Y-23.0
X15.896Y-28.0
X16.0Y-38.5
X16.0Y-43.5
X16.0Y-54.0
X16.0Y-59.0
X16.0Y-69.5
X16.0Y-74.5
X16.0Y-109.0
X16.0Y-114.0
X16.0Y-145.0
X16.0Y-150.0
X49.357Y-16.52
X54.357Y-16.52
X63.357Y-16.52
X68.357Y-16.52
T10
X26.343Y-86.171
X26.343Y-97.071
T2
G00X16.543Y-82.171
M15
G01X17.343Y-82.171
M16
G05
G00X16.543Y-101.071
M15
G01X17.343Y-101.071
M16
G05
T3
G00X75.126Y-150.917
M15
G01X75.126Y-152.632
M16
G05
G00X87.926Y-150.917
M15
G01X87.926Y-152.632
M16
G05
M30
