%TF.GenerationSoftware,KiCad,Pcbnew,10.0.0*%
%TF.CreationDate,2026-05-22T04:58:03+05:30*%
%TF.ProjectId,UGV,5547562e-6b69-4636-9164-5f7063625858,rev?*%
%TF.SameCoordinates,Original*%
%TF.FileFunction,Soldermask,Bot*%
%TF.FilePolarity,Negative*%
%FSLAX46Y46*%
G04 Gerber Fmt 4.6, Leading zero omitted, Abs format (unit mm)*
G04 Created by KiCad (PCBNEW 10.0.0) date 2026-05-22 04:58:03*
%MOMM*%
%LPD*%
G01*
G04 APERTURE LIST*
G04 Aperture macros list*
%AMRoundRect*
0 Rectangle with rounded corners*
0 $1 Rounding radius*
0 $2 $3 $4 $5 $6 $7 $8 $9 X,Y pos of 4 corners*
0 Add a 4 corners polygon primitive as box body*
4,1,4,$2,$3,$4,$5,$6,$7,$8,$9,$2,$3,0*
0 Add four circle primitives for the rounded corners*
1,1,$1+$1,$2,$3*
1,1,$1+$1,$4,$5*
1,1,$1+$1,$6,$7*
1,1,$1+$1,$8,$9*
0 Add four rect primitives between the rounded corners*
20,1,$1+$1,$2,$3,$4,$5,0*
20,1,$1+$1,$4,$5,$6,$7,0*
20,1,$1+$1,$6,$7,$8,$9,0*
20,1,$1+$1,$8,$9,$2,$3,0*%
G04 Aperture macros list end*
%ADD10C,3.200000*%
%ADD11C,2.754000*%
%ADD12RoundRect,0.102000X1.275000X-1.275000X1.275000X1.275000X-1.275000X1.275000X-1.275000X-1.275000X0*%
%ADD13C,1.712000*%
%ADD14RoundRect,0.250000X-0.550000X0.550000X-0.550000X-0.550000X0.550000X-0.550000X0.550000X0.550000X0*%
%ADD15C,1.600000*%
%ADD16RoundRect,0.250000X-0.600000X-0.750000X0.600000X-0.750000X0.600000X0.750000X-0.600000X0.750000X0*%
%ADD17O,1.700000X2.000000*%
%ADD18RoundRect,0.249999X0.850001X0.850001X-0.850001X0.850001X-0.850001X-0.850001X0.850001X-0.850001X0*%
%ADD19C,2.200000*%
%ADD20RoundRect,0.250000X-0.750000X0.600000X-0.750000X-0.600000X0.750000X-0.600000X0.750000X0.600000X0*%
%ADD21O,2.000000X1.700000*%
%ADD22RoundRect,1.800000X1.800000X-1.800000X1.800000X1.800000X-1.800000X1.800000X-1.800000X-1.800000X0*%
%ADD23C,7.200000*%
%ADD24R,2.400000X1.600000*%
%ADD25RoundRect,0.250000X-0.600000X-0.725000X0.600000X-0.725000X0.600000X0.725000X-0.600000X0.725000X0*%
%ADD26O,1.700000X1.950000*%
%ADD27RoundRect,0.250000X0.750000X-0.600000X0.750000X0.600000X-0.750000X0.600000X-0.750000X-0.600000X0*%
%ADD28RoundRect,0.250000X0.600000X0.750000X-0.600000X0.750000X-0.600000X-0.750000X0.600000X-0.750000X0*%
%ADD29RoundRect,0.102000X-1.275000X-1.275000X1.275000X-1.275000X1.275000X1.275000X-1.275000X1.275000X0*%
%ADD30RoundRect,0.250000X1.050000X-1.050000X1.050000X1.050000X-1.050000X1.050000X-1.050000X-1.050000X0*%
%ADD31C,2.600000*%
%ADD32R,1.600000X1.600000*%
%ADD33RoundRect,0.250000X0.600000X0.725000X-0.600000X0.725000X-0.600000X-0.725000X0.600000X-0.725000X0*%
%ADD34RoundRect,0.250000X1.050000X1.050000X-1.050000X1.050000X-1.050000X-1.050000X1.050000X-1.050000X0*%
%ADD35RoundRect,0.250000X-0.750000X-0.750000X0.750000X-0.750000X0.750000X0.750000X-0.750000X0.750000X0*%
%ADD36C,2.000000*%
%ADD37C,1.200000*%
%ADD38O,1.400000X3.000000*%
G04 APERTURE END LIST*
D10*
%TO.C,REF\u002A\u002A*%
X117759674Y-5731050D03*
%TD*%
%TO.C,REF\u002A\u002A*%
X23049346Y-5547858D03*
%TD*%
%TO.C,REF\u002A\u002A*%
X22500000Y-153500000D03*
%TD*%
%TO.C,REF\u002A\u002A*%
X118000000Y-129500000D03*
%TD*%
D11*
%TO.C,EByte1*%
X15895750Y-23000000D03*
D12*
X15895750Y-28000000D03*
D13*
X5895750Y-20000000D03*
X5895750Y-31000000D03*
%TD*%
D11*
%TO.C,Ubiquiti1*%
X16000000Y-69500000D03*
D12*
X16000000Y-74500000D03*
D13*
X6000000Y-66500000D03*
X6000000Y-77500000D03*
%TD*%
D14*
%TO.C,C10*%
X98500000Y-140847349D03*
D15*
X98500000Y-144347349D03*
%TD*%
D16*
%TO.C,5Vout2*%
X53500000Y-142975000D03*
D17*
X56000000Y-142975000D03*
%TD*%
D18*
%TO.C,J16*%
X80000000Y-105500000D03*
D19*
X77460000Y-105500000D03*
X74920000Y-105500000D03*
X72380000Y-105500000D03*
X69840000Y-105500000D03*
X67300000Y-105500000D03*
X64760000Y-105500000D03*
X62220000Y-105500000D03*
X59680000Y-105500000D03*
X57140000Y-105500000D03*
X54600000Y-105500000D03*
X52060000Y-105500000D03*
%TD*%
D20*
%TO.C,Fan3*%
X6525000Y-133311600D03*
D21*
X6525000Y-135811600D03*
%TD*%
D11*
%TO.C,BUCKin1*%
X16000000Y-38500000D03*
D12*
X16000000Y-43500000D03*
D13*
X6000000Y-35500000D03*
X6000000Y-46500000D03*
%TD*%
D22*
%TO.C,PWRin1*%
X26342633Y-97071188D03*
D23*
X26342633Y-86171190D03*
D24*
X16942633Y-101071188D03*
X16942633Y-82171188D03*
%TD*%
D14*
%TO.C,C6*%
X88500000Y-140847349D03*
D15*
X88500000Y-144347349D03*
%TD*%
D20*
%TO.C,Fan1*%
X15000000Y-123500000D03*
D21*
X15000000Y-126000000D03*
%TD*%
D25*
%TO.C,MDDS30_DIR1*%
X77646898Y-57774540D03*
D26*
X80146898Y-57774540D03*
X82646898Y-57774540D03*
X85146898Y-57774540D03*
%TD*%
D20*
%TO.C,Relay1*%
X78500000Y-141475000D03*
D21*
X78500000Y-143975000D03*
%TD*%
D27*
%TO.C,LED1*%
X107338008Y-142200000D03*
D21*
X107338008Y-139700000D03*
%TD*%
D28*
%TO.C,Enc1*%
X111250000Y-57525000D03*
D17*
X108750000Y-57525000D03*
%TD*%
D16*
%TO.C,Servo1*%
X93250000Y-151500000D03*
D17*
X95750000Y-151500000D03*
%TD*%
D11*
%TO.C,12Vout(C)1*%
X68357116Y-16520321D03*
D29*
X63357116Y-16520321D03*
D13*
X71357116Y-6520321D03*
X60357116Y-6520321D03*
%TD*%
D18*
%TO.C,J17*%
X112120000Y-79000000D03*
D19*
X109580000Y-79000000D03*
X107040000Y-79000000D03*
X104500000Y-79000000D03*
X101960000Y-79000000D03*
X99420000Y-79000000D03*
X96880000Y-79000000D03*
X94340000Y-79000000D03*
X91800000Y-79000000D03*
X89260000Y-79000000D03*
X86720000Y-79000000D03*
X84180000Y-79000000D03*
%TD*%
D20*
%TO.C,Fan2*%
X6525000Y-123500000D03*
D21*
X6525000Y-126000000D03*
%TD*%
D18*
%TO.C,J15*%
X112010000Y-105500000D03*
D19*
X109470000Y-105500000D03*
X106930000Y-105500000D03*
X104390000Y-105500000D03*
X101850000Y-105500000D03*
X99310000Y-105500000D03*
X96770000Y-105500000D03*
X94230000Y-105500000D03*
X91690000Y-105500000D03*
X89150000Y-105500000D03*
X86610000Y-105500000D03*
X84070000Y-105500000D03*
%TD*%
D20*
%TO.C,Fan4*%
X15025000Y-133311600D03*
D21*
X15025000Y-135811600D03*
%TD*%
D16*
%TO.C,EncPWR3*%
X33500000Y-142975000D03*
D17*
X36000000Y-142975000D03*
%TD*%
D28*
%TO.C,Enc2*%
X111250000Y-50525000D03*
D17*
X108750000Y-50525000D03*
%TD*%
D16*
%TO.C,EncPWR4*%
X43500000Y-142975000D03*
D17*
X46000000Y-142975000D03*
%TD*%
D11*
%TO.C,Contactor1*%
X16000000Y-145000000D03*
D12*
X16000000Y-150000000D03*
D13*
X6000000Y-142000000D03*
X6000000Y-153000000D03*
%TD*%
D28*
%TO.C,Enc3*%
X99250000Y-50525000D03*
D17*
X96750000Y-50525000D03*
%TD*%
D11*
%TO.C,BUCKout1*%
X16000000Y-54000000D03*
D12*
X16000000Y-59000000D03*
D13*
X6000000Y-51000000D03*
X6000000Y-62000000D03*
%TD*%
D11*
%TO.C,Jetson1*%
X54357116Y-16520321D03*
D29*
X49357116Y-16520321D03*
D13*
X57357116Y-6520321D03*
X46357116Y-6520321D03*
%TD*%
D30*
%TO.C,5V_ScrewTerm1*%
X115742500Y-153976271D03*
D31*
X115742500Y-148896271D03*
%TD*%
D32*
%TO.C,U4*%
X111470000Y-84698400D03*
D15*
X108930000Y-84698400D03*
X106390000Y-84698400D03*
X103850000Y-84698400D03*
X101310000Y-84698400D03*
X98770000Y-84698400D03*
X96230000Y-84698400D03*
X93690000Y-84698400D03*
X91150000Y-84698400D03*
X88610000Y-84698400D03*
X86070000Y-84698400D03*
X83530000Y-84698400D03*
X80990000Y-84698400D03*
X78450000Y-84698400D03*
X75910000Y-84698400D03*
X73370000Y-84698400D03*
X70830000Y-84698400D03*
X68290000Y-84698400D03*
X65750000Y-84698400D03*
X63210000Y-84698400D03*
X60670000Y-84698400D03*
X58130000Y-84698400D03*
X55590000Y-84698400D03*
X53050000Y-84698400D03*
X53050000Y-99938400D03*
X55590000Y-99938400D03*
X58130000Y-99938400D03*
X60670000Y-99938400D03*
X63210000Y-99938400D03*
X65750000Y-99938400D03*
X68290000Y-99938400D03*
X70830000Y-99938400D03*
X73370000Y-99938400D03*
X75910000Y-99938400D03*
X78450000Y-99938400D03*
X80990000Y-99938400D03*
X83530000Y-99938400D03*
X86070000Y-99938400D03*
X88610000Y-99938400D03*
X91150000Y-99938400D03*
X93690000Y-99938400D03*
X96230000Y-99938400D03*
X98770000Y-99938400D03*
X101310000Y-99938400D03*
X103850000Y-99938400D03*
X106390000Y-99938400D03*
X108930000Y-99938400D03*
X111470000Y-99938400D03*
%TD*%
D33*
%TO.C,MDDS30_DIR2*%
X67667362Y-58995122D03*
D26*
X65167362Y-58995122D03*
X62667362Y-58995122D03*
X60167362Y-58995122D03*
%TD*%
D34*
%TO.C,LED2*%
X47545000Y-58327500D03*
D31*
X42465000Y-58327500D03*
%TD*%
D33*
%TO.C,MDDS30_PWM1*%
X85296238Y-68991547D03*
D26*
X82796238Y-68991547D03*
X80296238Y-68991547D03*
X77796238Y-68991547D03*
%TD*%
D16*
%TO.C,Servo2*%
X103250000Y-151500000D03*
D17*
X105750000Y-151500000D03*
%TD*%
D11*
%TO.C,PWRout1*%
X16000000Y-109000000D03*
D12*
X16000000Y-114000000D03*
D13*
X6000000Y-106000000D03*
X6000000Y-117000000D03*
%TD*%
D16*
%TO.C,EncPWR2*%
X43500000Y-151000000D03*
D17*
X46000000Y-151000000D03*
%TD*%
D18*
%TO.C,J18*%
X80160000Y-79000000D03*
D19*
X77620000Y-79000000D03*
X75080000Y-79000000D03*
X72540000Y-79000000D03*
X70000000Y-79000000D03*
X67460000Y-79000000D03*
X64920000Y-79000000D03*
X62380000Y-79000000D03*
X59840000Y-79000000D03*
X57300000Y-79000000D03*
X54760000Y-79000000D03*
X52220000Y-79000000D03*
%TD*%
D33*
%TO.C,Flysky1*%
X103675231Y-127906790D03*
D26*
X101175231Y-127906790D03*
X98675231Y-127906790D03*
X96175231Y-127906790D03*
%TD*%
D16*
%TO.C,5Vout1*%
X53500000Y-151000000D03*
D17*
X56000000Y-151000000D03*
%TD*%
D28*
%TO.C,Enc4*%
X99250000Y-57525000D03*
D17*
X96750000Y-57525000D03*
%TD*%
D16*
%TO.C,EncPWR1*%
X33500000Y-151000000D03*
D17*
X36000000Y-151000000D03*
%TD*%
D25*
%TO.C,MDDS30_PWM2*%
X60264331Y-68000720D03*
D26*
X62764331Y-68000720D03*
X65264331Y-68000720D03*
X67764331Y-68000720D03*
%TD*%
D33*
%TO.C,Flysky2*%
X88754892Y-127906790D03*
D26*
X86254892Y-127906790D03*
X83754892Y-127906790D03*
X81254892Y-127906790D03*
%TD*%
D35*
%TO.C,Cp1*%
X29570000Y-49842000D03*
D36*
X34570000Y-49842000D03*
%TD*%
D27*
%TO.C,Laser1*%
X115325743Y-142200000D03*
D21*
X115325743Y-139700000D03*
%TD*%
D11*
%TO.C,12Vout1*%
X15895750Y-7500000D03*
D12*
X15895750Y-12500000D03*
D13*
X5895750Y-4500000D03*
X5895750Y-15500000D03*
%TD*%
D37*
%TO.C,J13*%
X78526767Y-152274280D03*
X80526267Y-152274280D03*
X82526267Y-152274280D03*
X84526267Y-152274280D03*
X85526267Y-151274280D03*
X83526267Y-151274280D03*
X81526267Y-151274280D03*
X79526267Y-151274280D03*
X77526267Y-151274280D03*
D38*
X75126267Y-151774280D03*
X87926267Y-151774280D03*
%TD*%
M02*
