%TF.GenerationSoftware,KiCad,Pcbnew,10.0.0*%
%TF.CreationDate,2026-05-22T04:58:03+05:30*%
%TF.ProjectId,UGV,5547562e-6b69-4636-9164-5f7063625858,rev?*%
%TF.SameCoordinates,Original*%
%TF.FileFunction,Paste,Top*%
%TF.FilePolarity,Positive*%
%FSLAX46Y46*%
G04 Gerber Fmt 4.6, Leading zero omitted, Abs format (unit mm)*
G04 Created by KiCad (PCBNEW 10.0.0) date 2026-05-22 04:58:03*
%MOMM*%
%LPD*%
G01*
G04 APERTURE LIST*
G04 Aperture macros list*
%AMRoundRect*
0 Rectangle with rounded corners*
0 $1 Rounding radius*
0 $2 $3 $4 $5 $6 $7 $8 $9 X,Y pos of 4 corners*
0 Add a 4 corners polygon primitive as box body*
4,1,4,$2,$3,$4,$5,$6,$7,$8,$9,$2,$3,0*
0 Add four circle primitives for the rounded corners*
1,1,$1+$1,$2,$3*
1,1,$1+$1,$4,$5*
1,1,$1+$1,$6,$7*
1,1,$1+$1,$8,$9*
0 Add four rect primitives between the rounded corners*
20,1,$1+$1,$2,$3,$4,$5,0*
20,1,$1+$1,$4,$5,$6,$7,0*
20,1,$1+$1,$6,$7,$8,$9,0*
20,1,$1+$1,$8,$9,$2,$3,0*%
G04 Aperture macros list end*
%ADD10C,0.010000*%
%ADD11RoundRect,0.250000X0.400000X0.625000X-0.400000X0.625000X-0.400000X-0.625000X0.400000X-0.625000X0*%
%ADD12RoundRect,0.250000X0.475000X-0.337500X0.475000X0.337500X-0.475000X0.337500X-0.475000X-0.337500X0*%
%ADD13RoundRect,0.250000X-0.412500X-1.100000X0.412500X-1.100000X0.412500X1.100000X-0.412500X1.100000X0*%
%ADD14RoundRect,0.250001X-0.462499X-0.624999X0.462499X-0.624999X0.462499X0.624999X-0.462499X0.624999X0*%
%ADD15RoundRect,0.250001X0.462499X0.624999X-0.462499X0.624999X-0.462499X-0.624999X0.462499X-0.624999X0*%
%ADD16RoundRect,0.250000X0.650000X-0.412500X0.650000X0.412500X-0.650000X0.412500X-0.650000X-0.412500X0*%
%ADD17RoundRect,0.250000X-0.400000X-0.625000X0.400000X-0.625000X0.400000X0.625000X-0.400000X0.625000X0*%
%ADD18RoundRect,0.250000X0.625000X-0.400000X0.625000X0.400000X-0.625000X0.400000X-0.625000X-0.400000X0*%
%ADD19RoundRect,0.250001X0.624999X-0.462499X0.624999X0.462499X-0.624999X0.462499X-0.624999X-0.462499X0*%
%ADD20RoundRect,0.150000X-0.150000X0.875000X-0.150000X-0.875000X0.150000X-0.875000X0.150000X0.875000X0*%
%ADD21RoundRect,0.200000X-0.750000X-0.200000X0.750000X-0.200000X0.750000X0.200000X-0.750000X0.200000X0*%
%ADD22RoundRect,0.200000X-0.200000X0.750000X-0.200000X-0.750000X0.200000X-0.750000X0.200000X0.750000X0*%
%ADD23R,5.200000X3.750000*%
%ADD24RoundRect,0.250000X-1.100000X0.412500X-1.100000X-0.412500X1.100000X-0.412500X1.100000X0.412500X0*%
%ADD25RoundRect,0.200000X0.750000X0.200000X-0.750000X0.200000X-0.750000X-0.200000X0.750000X-0.200000X0*%
%ADD26RoundRect,0.249999X1.464501X-0.956501X1.464501X0.956501X-1.464501X0.956501X-1.464501X-0.956501X0*%
%ADD27RoundRect,0.250000X-0.275000X-0.350000X0.275000X-0.350000X0.275000X0.350000X-0.275000X0.350000X0*%
%ADD28RoundRect,0.250000X0.450000X-0.350000X0.450000X0.350000X-0.450000X0.350000X-0.450000X-0.350000X0*%
%ADD29RoundRect,0.250000X-0.650000X0.412500X-0.650000X-0.412500X0.650000X-0.412500X0.650000X0.412500X0*%
%ADD30RoundRect,0.250000X0.412500X0.650000X-0.412500X0.650000X-0.412500X-0.650000X0.412500X-0.650000X0*%
%ADD31RoundRect,0.250000X-0.625000X0.400000X-0.625000X-0.400000X0.625000X-0.400000X0.625000X0.400000X0*%
%ADD32RoundRect,0.250000X-0.350000X-0.450000X0.350000X-0.450000X0.350000X0.450000X-0.350000X0.450000X0*%
%ADD33RoundRect,0.250000X1.100000X-0.412500X1.100000X0.412500X-1.100000X0.412500X-1.100000X-0.412500X0*%
%ADD34RoundRect,0.250000X1.400000X2.000000X-1.400000X2.000000X-1.400000X-2.000000X1.400000X-2.000000X0*%
%ADD35RoundRect,0.015000X-0.285000X0.760000X-0.285000X-0.760000X0.285000X-0.760000X0.285000X0.760000X0*%
%ADD36RoundRect,0.250000X-1.750000X-1.000000X1.750000X-1.000000X1.750000X1.000000X-1.750000X1.000000X0*%
%ADD37RoundRect,0.250000X-0.412500X-0.650000X0.412500X-0.650000X0.412500X0.650000X-0.412500X0.650000X0*%
%ADD38RoundRect,0.250000X1.950000X1.000000X-1.950000X1.000000X-1.950000X-1.000000X1.950000X-1.000000X0*%
G04 APERTURE END LIST*
D10*
%TO.C,U2*%
X43680000Y-115965000D02*
X40280000Y-115965000D01*
X40280000Y-113255000D01*
X43680000Y-113255000D01*
X43680000Y-115965000D01*
G36*
X43680000Y-115965000D02*
G01*
X40280000Y-115965000D01*
X40280000Y-113255000D01*
X43680000Y-113255000D01*
X43680000Y-115965000D01*
G37*
%TD*%
D11*
%TO.C,Rfbb1*%
X33450000Y-123500000D03*
X36550000Y-123500000D03*
%TD*%
D12*
%TO.C,Cff1*%
X36629369Y-125752718D03*
X36629369Y-127827718D03*
%TD*%
D13*
%TO.C,C12*%
X31007500Y-18842000D03*
X34132500Y-18842000D03*
%TD*%
D14*
%TO.C,D5*%
X35977649Y-132169649D03*
X38952649Y-132169649D03*
%TD*%
D15*
%TO.C,D3*%
X35777500Y-83820000D03*
X32802500Y-83820000D03*
%TD*%
D16*
%TO.C,C2*%
X71299488Y-140640990D03*
X71299488Y-137515990D03*
%TD*%
%TO.C,Cboot1*%
X46346351Y-120480593D03*
X46346351Y-117355593D03*
%TD*%
D17*
%TO.C,R10*%
X38033029Y-83825253D03*
X41133029Y-83825253D03*
%TD*%
D18*
%TO.C,R1*%
X37916140Y-113659994D03*
X37916140Y-110559994D03*
%TD*%
D13*
%TO.C,C7*%
X30032500Y-42842000D03*
X33157500Y-42842000D03*
%TD*%
D18*
%TO.C,R3*%
X64867723Y-130134293D03*
X64867723Y-127034293D03*
%TD*%
D19*
%TO.C,D4*%
X20926786Y-48391809D03*
X20926786Y-45416809D03*
%TD*%
D20*
%TO.C,U3*%
X110200000Y-63808400D03*
X108930000Y-63808400D03*
X107660000Y-63808400D03*
X106390000Y-63808400D03*
X105120000Y-63808400D03*
X103850000Y-63808400D03*
X102580000Y-63808400D03*
X101310000Y-63808400D03*
X100040000Y-63808400D03*
X98770000Y-63808400D03*
X97500000Y-63808400D03*
X96230000Y-63808400D03*
X96230000Y-73108400D03*
X97500000Y-73108400D03*
X98770000Y-73108400D03*
X100040000Y-73108400D03*
X101310000Y-73108400D03*
X102580000Y-73108400D03*
X103850000Y-73108400D03*
X105120000Y-73108400D03*
X106390000Y-73108400D03*
X107660000Y-73108400D03*
X108930000Y-73108400D03*
X110200000Y-73108400D03*
%TD*%
D21*
%TO.C,Q1*%
X67849676Y-126876689D03*
X67849676Y-128776689D03*
X70849676Y-127826689D03*
%TD*%
D22*
%TO.C,Q2*%
X75291909Y-116386086D03*
X73391909Y-116386086D03*
X74341909Y-119386086D03*
%TD*%
D20*
%TO.C,U5*%
X99810000Y-111210000D03*
X98540000Y-111210000D03*
X97270000Y-111210000D03*
X96000000Y-111210000D03*
X94730000Y-111210000D03*
X93460000Y-111210000D03*
X92190000Y-111210000D03*
X90920000Y-111210000D03*
X89650000Y-111210000D03*
X88380000Y-111210000D03*
X87110000Y-111210000D03*
X85840000Y-111210000D03*
X85840000Y-120510000D03*
X87110000Y-120510000D03*
X88380000Y-120510000D03*
X89650000Y-120510000D03*
X90920000Y-120510000D03*
X92190000Y-120510000D03*
X93460000Y-120510000D03*
X94730000Y-120510000D03*
X96000000Y-120510000D03*
X97270000Y-120510000D03*
X98540000Y-120510000D03*
X99810000Y-120510000D03*
%TD*%
D23*
%TO.C,L2*%
X54633448Y-117631892D03*
X54633448Y-127731892D03*
%TD*%
D24*
%TO.C,C15*%
X37070000Y-15804500D03*
X37070000Y-18929500D03*
%TD*%
D13*
%TO.C,Cin1*%
X42694535Y-106311315D03*
X45819535Y-106311315D03*
%TD*%
D25*
%TO.C,Q3*%
X45096147Y-72924978D03*
X45096147Y-71024978D03*
X42096147Y-71974978D03*
%TD*%
D24*
%TO.C,C5*%
X113500000Y-69437500D03*
X113500000Y-72562500D03*
%TD*%
D26*
%TO.C,L1*%
X31070000Y-39342000D03*
X31070000Y-33500000D03*
%TD*%
D19*
%TO.C,D6*%
X117320791Y-107853009D03*
X117320791Y-104878009D03*
%TD*%
D27*
%TO.C,FB1*%
X32030000Y-15842000D03*
X34330000Y-15842000D03*
%TD*%
D28*
%TO.C,R2*%
X67604167Y-124825299D03*
X67604167Y-122825299D03*
%TD*%
D29*
%TO.C,C17*%
X43143091Y-15730987D03*
X43143091Y-18855987D03*
%TD*%
D24*
%TO.C,C9*%
X103000000Y-117817500D03*
X103000000Y-120942500D03*
%TD*%
D17*
%TO.C,R5*%
X72060715Y-113034681D03*
X75160715Y-113034681D03*
%TD*%
D30*
%TO.C,Cvcc1*%
X38125000Y-115937679D03*
X35000000Y-115937679D03*
%TD*%
D31*
%TO.C,R12*%
X117295677Y-110139643D03*
X117295677Y-113239643D03*
%TD*%
D24*
%TO.C,Cout1*%
X46004981Y-127893133D03*
X46004981Y-131018133D03*
%TD*%
D31*
%TO.C,R7*%
X48285339Y-69519321D03*
X48285339Y-72619321D03*
%TD*%
D32*
%TO.C,R6*%
X45605973Y-75138290D03*
X47605973Y-75138290D03*
%TD*%
D33*
%TO.C,C3*%
X113475538Y-67348136D03*
X113475538Y-64223136D03*
%TD*%
D24*
%TO.C,Cout2*%
X42448080Y-127874893D03*
X42448080Y-130999893D03*
%TD*%
D34*
%TO.C,D1*%
X22500000Y-146500000D03*
X22500000Y-137700000D03*
%TD*%
D11*
%TO.C,R11*%
X33590560Y-132169649D03*
X30490560Y-132169649D03*
%TD*%
D35*
%TO.C,U2*%
X43885000Y-111910000D03*
X42615000Y-111910000D03*
X41345000Y-111910000D03*
X40075000Y-111910000D03*
X40075000Y-117310000D03*
X41345000Y-117310000D03*
X42615000Y-117310000D03*
X43885000Y-117310000D03*
%TD*%
D36*
%TO.C,Cp3*%
X31070000Y-26342000D03*
X39070000Y-26342000D03*
%TD*%
D37*
%TO.C,Chf1*%
X42682473Y-109338885D03*
X45807473Y-109338885D03*
%TD*%
D38*
%TO.C,C4*%
X69500000Y-148000000D03*
X62100000Y-148000000D03*
%TD*%
D18*
%TO.C,Rfbt1*%
X39297022Y-127888788D03*
X39297022Y-124788788D03*
%TD*%
D31*
%TO.C,R9*%
X20901672Y-50678443D03*
X20901672Y-53778443D03*
%TD*%
%TO.C,R8*%
X56113064Y-26411680D03*
X56113064Y-29511680D03*
%TD*%
D24*
%TO.C,C1*%
X67147260Y-137515990D03*
X67147260Y-140640990D03*
%TD*%
D33*
%TO.C,C8*%
X103000000Y-115149100D03*
X103000000Y-112024100D03*
%TD*%
D19*
%TO.C,D2*%
X56138178Y-24125046D03*
X56138178Y-21150046D03*
%TD*%
D28*
%TO.C,R4*%
X77593156Y-115920808D03*
X77593156Y-113920808D03*
%TD*%
D29*
%TO.C,C16*%
X40374939Y-15712533D03*
X40374939Y-18837533D03*
%TD*%
M02*
