%TF.GenerationSoftware,KiCad,Pcbnew,10.0.0*%
%TF.CreationDate,2026-05-22T04:59:11+05:30*%
%TF.ProjectId,UGV,5547562e-6b69-4636-9164-5f7063625858,rev?*%
%TF.SameCoordinates,Original*%
%TF.FileFunction,Drillmap*%
%TF.FilePolarity,Positive*%
%FSLAX45Y45*%
G04 Gerber Fmt 4.5, Leading zero omitted, Abs format (unit mm)*
G04 Created by KiCad (PCBNEW 10.0.0) date 2026-05-22 04:59:11*
%MOMM*%
%LPD*%
G01*
G04 APERTURE LIST*
%ADD10C,0.050000*%
%ADD11C,0.200000*%
%ADD12C,0.100000*%
%ADD13C,0.110000*%
%ADD14C,0.130000*%
%ADD15C,0.170000*%
%ADD16C,0.380000*%
G04 APERTURE END LIST*
D10*
X74000Y-100000D02*
X12174537Y-100000D01*
X12174537Y-15750000D01*
X74000Y-15750000D01*
X74000Y-100000D01*
D11*
D12*
X472000Y-13601000D02*
X512000Y-13641000D01*
X512000Y-13601000D02*
X472000Y-13641000D01*
X479000Y-12635000D02*
X519000Y-12675000D01*
X519000Y-12635000D02*
X479000Y-12675000D01*
X528000Y-13684000D02*
X568000Y-13724000D01*
X568000Y-13684000D02*
X528000Y-13724000D01*
X557000Y-12715000D02*
X597000Y-12755000D01*
X597000Y-12715000D02*
X557000Y-12755000D01*
X683000Y-12722000D02*
X723000Y-12762000D01*
X723000Y-12722000D02*
X683000Y-12762000D01*
X692000Y-13700000D02*
X732000Y-13740000D01*
X732000Y-13700000D02*
X692000Y-13740000D01*
X1307000Y-14395000D02*
X1347000Y-14435000D01*
X1347000Y-14395000D02*
X1307000Y-14435000D01*
X1307000Y-14529000D02*
X1347000Y-14569000D01*
X1347000Y-14529000D02*
X1307000Y-14569000D01*
X1316000Y-10806000D02*
X1356000Y-10846000D01*
X1356000Y-10806000D02*
X1316000Y-10846000D01*
X1316000Y-13616000D02*
X1356000Y-13656000D01*
X1356000Y-13616000D02*
X1316000Y-13656000D01*
X1317000Y-12631000D02*
X1357000Y-12671000D01*
X1357000Y-12631000D02*
X1317000Y-12671000D01*
X1376000Y-10680000D02*
X1416000Y-10720000D01*
X1416000Y-10680000D02*
X1376000Y-10720000D01*
X1390000Y-10877000D02*
X1430000Y-10917000D01*
X1430000Y-10877000D02*
X1390000Y-10917000D01*
X1390000Y-14460000D02*
X1430000Y-14500000D01*
X1430000Y-14460000D02*
X1390000Y-14500000D01*
X1396000Y-13688000D02*
X1436000Y-13728000D01*
X1436000Y-13688000D02*
X1396000Y-13728000D01*
X1397000Y-12709000D02*
X1437000Y-12749000D01*
X1437000Y-12709000D02*
X1397000Y-12749000D01*
X1406000Y-14570000D02*
X1446000Y-14610000D01*
X1446000Y-14570000D02*
X1406000Y-14610000D01*
X1407000Y-14358000D02*
X1447000Y-14398000D01*
X1447000Y-14358000D02*
X1407000Y-14398000D01*
X1415000Y-10775000D02*
X1455000Y-10815000D01*
X1455000Y-10775000D02*
X1415000Y-10815000D01*
X1445000Y-3668000D02*
X1485000Y-3708000D01*
X1485000Y-3668000D02*
X1445000Y-3708000D01*
X1452000Y-547000D02*
X1492000Y-587000D01*
X1492000Y-547000D02*
X1452000Y-587000D01*
X1452000Y-6765000D02*
X1492000Y-6805000D01*
X1492000Y-6765000D02*
X1452000Y-6805000D01*
X1456000Y-2116000D02*
X1496000Y-2156000D01*
X1496000Y-2116000D02*
X1456000Y-2156000D01*
X1457000Y-3562000D02*
X1497000Y-3602000D01*
X1497000Y-3562000D02*
X1457000Y-3602000D01*
X1457000Y-5175000D02*
X1497000Y-5215000D01*
X1497000Y-5175000D02*
X1457000Y-5215000D01*
X1469000Y-6659000D02*
X1509000Y-6699000D01*
X1509000Y-6659000D02*
X1469000Y-6699000D01*
X1474000Y-2017000D02*
X1514000Y-2057000D01*
X1514000Y-2017000D02*
X1474000Y-2057000D01*
X1484000Y-438000D02*
X1524000Y-478000D01*
X1524000Y-438000D02*
X1484000Y-478000D01*
X1491000Y-10704000D02*
X1531000Y-10744000D01*
X1531000Y-10704000D02*
X1491000Y-10744000D01*
X1507000Y-5084000D02*
X1547000Y-5124000D01*
X1547000Y-5084000D02*
X1507000Y-5124000D01*
X1537000Y-12719000D02*
X1577000Y-12759000D01*
X1577000Y-12719000D02*
X1537000Y-12759000D01*
X1540000Y-3628000D02*
X1580000Y-3668000D01*
X1580000Y-3628000D02*
X1540000Y-3668000D01*
X1543000Y-13702000D02*
X1583000Y-13742000D01*
X1583000Y-13702000D02*
X1543000Y-13742000D01*
X1555000Y-2089000D02*
X1595000Y-2129000D01*
X1595000Y-2089000D02*
X1555000Y-2129000D01*
X1555000Y-6726000D02*
X1595000Y-6766000D01*
X1595000Y-6726000D02*
X1555000Y-6766000D01*
X1557000Y-524000D02*
X1597000Y-564000D01*
X1597000Y-524000D02*
X1557000Y-564000D01*
X1564000Y-5167000D02*
X1604000Y-5207000D01*
X1604000Y-5167000D02*
X1564000Y-5207000D01*
X1611000Y-2005000D02*
X1651000Y-2045000D01*
X1651000Y-2005000D02*
X1611000Y-2045000D01*
X1611000Y-3548000D02*
X1651000Y-3588000D01*
X1651000Y-3548000D02*
X1611000Y-3588000D01*
X1622000Y-6646000D02*
X1662000Y-6686000D01*
X1662000Y-6646000D02*
X1622000Y-6686000D01*
X1625000Y-5073000D02*
X1665000Y-5113000D01*
X1665000Y-5073000D02*
X1625000Y-5113000D01*
X1627000Y-441000D02*
X1667000Y-481000D01*
X1667000Y-441000D02*
X1627000Y-481000D01*
X1642000Y-3646000D02*
X1682000Y-3686000D01*
X1682000Y-3646000D02*
X1642000Y-3686000D01*
X1657000Y-2105000D02*
X1697000Y-2145000D01*
X1697000Y-2105000D02*
X1657000Y-2145000D01*
X1657000Y-6754000D02*
X1697000Y-6794000D01*
X1697000Y-6754000D02*
X1657000Y-6794000D01*
X1665000Y-551000D02*
X1705000Y-591000D01*
X1705000Y-551000D02*
X1665000Y-591000D01*
X1666000Y-5180000D02*
X1706000Y-5220000D01*
X1706000Y-5180000D02*
X1666000Y-5220000D01*
X1944091Y-9728450D02*
X1984091Y-9768450D01*
X1984091Y-9728450D02*
X1944091Y-9768450D01*
X1956091Y-9609450D02*
X1996091Y-9649450D01*
X1996091Y-9609450D02*
X1956091Y-9649450D01*
X1971091Y-9850450D02*
X2011091Y-9890450D01*
X2011091Y-9850450D02*
X1971091Y-9890450D01*
X1985091Y-9482450D02*
X2025091Y-9522450D01*
X2025091Y-9482450D02*
X1985091Y-9522450D01*
X1995906Y-5497027D02*
X2035906Y-5537027D01*
X2035906Y-5497027D02*
X1995906Y-5537027D01*
X2047091Y-9700450D02*
X2087091Y-9740450D01*
X2087091Y-9700450D02*
X2047091Y-9740450D01*
X2051091Y-9576450D02*
X2091091Y-9616450D01*
X2091091Y-9576450D02*
X2051091Y-9616450D01*
X2096091Y-9469450D02*
X2136092Y-9509450D01*
X2136092Y-9469450D02*
X2096091Y-9509450D01*
X2097091Y-9822450D02*
X2137092Y-9862450D01*
X2137092Y-9822450D02*
X2097091Y-9862450D01*
X2104906Y-5517027D02*
X2144906Y-5557027D01*
X2144906Y-5517027D02*
X2104906Y-5557027D01*
X2136462Y-9924314D02*
X2176462Y-9964314D01*
X2176462Y-9924314D02*
X2136462Y-9964314D01*
X2156967Y-9389966D02*
X2196967Y-9429966D01*
X2196967Y-9389966D02*
X2156967Y-9429966D01*
X2183906Y-5455027D02*
X2223906Y-5495027D01*
X2223906Y-5455027D02*
X2183906Y-5495027D01*
X2875539Y-13231704D02*
X2915539Y-13271704D01*
X2915539Y-13231704D02*
X2875539Y-13271704D01*
X2895539Y-13122704D02*
X2935539Y-13162704D01*
X2935539Y-13122704D02*
X2895539Y-13162704D01*
X2937539Y-13310704D02*
X2977539Y-13350704D01*
X2977539Y-13310704D02*
X2937539Y-13350704D01*
X3176180Y-12272992D02*
X3216180Y-12312992D01*
X3216180Y-12272992D02*
X3176180Y-12312992D01*
X3209150Y-12383963D02*
X3249150Y-12423963D01*
X3249150Y-12383963D02*
X3209150Y-12423963D01*
X3262000Y-1943000D02*
X3302000Y-1983000D01*
X3302000Y-1943000D02*
X3262000Y-1983000D01*
X3267000Y-1789000D02*
X3307000Y-1829000D01*
X3307000Y-1789000D02*
X3267000Y-1829000D01*
X3271119Y-11636269D02*
X3311119Y-11676269D01*
X3311119Y-11636269D02*
X3271119Y-11676269D01*
X3301000Y-4786000D02*
X3341000Y-4826000D01*
X3341000Y-4786000D02*
X3301000Y-4826000D01*
X3303236Y-11741801D02*
X3343236Y-11781801D01*
X3343236Y-11741801D02*
X3303236Y-11781801D01*
X3367000Y-4695000D02*
X3407000Y-4735000D01*
X3407000Y-4695000D02*
X3367000Y-4735000D01*
X3418000Y-4786000D02*
X3458000Y-4826000D01*
X3458000Y-4786000D02*
X3418000Y-4826000D01*
X3432000Y-4267000D02*
X3472000Y-4307000D01*
X3472000Y-4267000D02*
X3432000Y-4307000D01*
X3432000Y-4373000D02*
X3472000Y-4413000D01*
X3472000Y-4373000D02*
X3432000Y-4413000D01*
X3433000Y-4155000D02*
X3473000Y-4195000D01*
X3473000Y-4155000D02*
X3433000Y-4195000D01*
X3480000Y-4687000D02*
X3520000Y-4727000D01*
X3520000Y-4687000D02*
X3480000Y-4727000D01*
X3539000Y-4788000D02*
X3579000Y-4828000D01*
X3579000Y-4788000D02*
X3539000Y-4828000D01*
X3559000Y-14440000D02*
X3599000Y-14480000D01*
X3599000Y-14440000D02*
X3559000Y-14480000D01*
X3564000Y-15251000D02*
X3604000Y-15291000D01*
X3604000Y-15251000D02*
X3564000Y-15291000D01*
X3625000Y-1996000D02*
X3665000Y-2036000D01*
X3665000Y-1996000D02*
X3625000Y-2036000D01*
X3679000Y-14422000D02*
X3719000Y-14462000D01*
X3719000Y-14422000D02*
X3679000Y-14462000D01*
X3686000Y-15226000D02*
X3726000Y-15266000D01*
X3726000Y-15226000D02*
X3686000Y-15266000D01*
X3705000Y-2821000D02*
X3745000Y-2861000D01*
X3745000Y-2821000D02*
X3705000Y-2861000D01*
X3728000Y-2000000D02*
X3768000Y-2040000D01*
X3768000Y-2000000D02*
X3728000Y-2040000D01*
X3763000Y-2923000D02*
X3803000Y-2963000D01*
X3803000Y-2923000D02*
X3763000Y-2963000D01*
X3802140Y-11745597D02*
X3842140Y-11785597D01*
X3842140Y-11745597D02*
X3802140Y-11785597D01*
X3815000Y-2821000D02*
X3855000Y-2861000D01*
X3855000Y-2821000D02*
X3815000Y-2861000D01*
X3829000Y-2000000D02*
X3869000Y-2040000D01*
X3869000Y-2000000D02*
X3829000Y-2040000D01*
X3875000Y-2920000D02*
X3915000Y-2960000D01*
X3915000Y-2920000D02*
X3875000Y-2960000D01*
X3924000Y-2821000D02*
X3964000Y-2861000D01*
X3964000Y-2821000D02*
X3924000Y-2861000D01*
X3986979Y-11442809D02*
X4026979Y-11482809D01*
X4026979Y-11442809D02*
X3986979Y-11482809D01*
X4071011Y-1995391D02*
X4111011Y-2035391D01*
X4111011Y-1995391D02*
X4071011Y-2035391D01*
X4073825Y-11339075D02*
X4113825Y-11379075D01*
X4113825Y-11339075D02*
X4073825Y-11379075D01*
X4076238Y-11541717D02*
X4116238Y-11581717D01*
X4116238Y-11541717D02*
X4076238Y-11581717D01*
X4108000Y-11864000D02*
X4148000Y-11904000D01*
X4148000Y-11864000D02*
X4108000Y-11904000D01*
X4178000Y-11441000D02*
X4218000Y-11481000D01*
X4218000Y-11441000D02*
X4178000Y-11481000D01*
X4182855Y-13239985D02*
X4222855Y-13279985D01*
X4222855Y-13239985D02*
X4182855Y-13279985D01*
X4197071Y-8251298D02*
X4237071Y-8291298D01*
X4237071Y-8251298D02*
X4197071Y-8291298D01*
X4239071Y-8439298D02*
X4279071Y-8479298D01*
X4279071Y-8439298D02*
X4239071Y-8479298D01*
X4252309Y-1911649D02*
X4292309Y-1951649D01*
X4292309Y-1911649D02*
X4252309Y-1951649D01*
X4259071Y-8330298D02*
X4299071Y-8370298D01*
X4299071Y-8330298D02*
X4259071Y-8370298D01*
X4269230Y-11339075D02*
X4309230Y-11379075D01*
X4309230Y-11339075D02*
X4269230Y-11379075D01*
X4274055Y-11541717D02*
X4314055Y-11581717D01*
X4314055Y-11541717D02*
X4274055Y-11581717D01*
X4282855Y-13272985D02*
X4322855Y-13312985D01*
X4322855Y-13272985D02*
X4282855Y-13312985D01*
X4353309Y-1907649D02*
X4393309Y-1947649D01*
X4393309Y-1907649D02*
X4353309Y-1947649D01*
X4370551Y-11442004D02*
X4410551Y-11482004D01*
X4410551Y-11442004D02*
X4370551Y-11482004D01*
X4382589Y-13237249D02*
X4422589Y-13277249D01*
X4422589Y-13237249D02*
X4382589Y-13277249D01*
X4399602Y-6894612D02*
X4439602Y-6934612D01*
X4439602Y-6894612D02*
X4399602Y-6934612D01*
X4472000Y-11125000D02*
X4512000Y-11165000D01*
X4512000Y-11125000D02*
X4472000Y-11165000D01*
X4480000Y-11238000D02*
X4520000Y-11278000D01*
X4520000Y-11238000D02*
X4480000Y-11278000D01*
X4500325Y-6892712D02*
X4540325Y-6932712D01*
X4540325Y-6892712D02*
X4500325Y-6932712D01*
X4549000Y-15245000D02*
X4589000Y-15285000D01*
X4589000Y-15245000D02*
X4549000Y-15285000D01*
X4568000Y-14448000D02*
X4608000Y-14488000D01*
X4608000Y-14448000D02*
X4568000Y-14488000D01*
X4602325Y-6890712D02*
X4642325Y-6930712D01*
X4642325Y-6890712D02*
X4602325Y-6930712D01*
X4653431Y-13212680D02*
X4693431Y-13252680D01*
X4693431Y-13212680D02*
X4653431Y-13252680D01*
X4669000Y-15220000D02*
X4709000Y-15260000D01*
X4709000Y-15220000D02*
X4669000Y-15260000D01*
X4678000Y-10608000D02*
X4718000Y-10648000D01*
X4718000Y-10608000D02*
X4678000Y-10648000D01*
X4680000Y-10506000D02*
X4720000Y-10546000D01*
X4720000Y-10506000D02*
X4680000Y-10546000D01*
X4680000Y-14409000D02*
X4720000Y-14449000D01*
X4720000Y-14409000D02*
X4680000Y-14449000D01*
X4685000Y-10958000D02*
X4725000Y-10998000D01*
X4725000Y-10958000D02*
X4685000Y-10998000D01*
X4687000Y-10715000D02*
X4727000Y-10755000D01*
X4727000Y-10715000D02*
X4687000Y-10755000D01*
X4687000Y-10846000D02*
X4727000Y-10886000D01*
X4727000Y-10846000D02*
X4687000Y-10886000D01*
X4757431Y-13201680D02*
X4797431Y-13241680D01*
X4797431Y-13201680D02*
X4757431Y-13241680D01*
X4817431Y-13114680D02*
X4857431Y-13154680D01*
X4857431Y-13114680D02*
X4817431Y-13154680D01*
X4945554Y-6935320D02*
X4985554Y-6975320D01*
X4985554Y-6935320D02*
X4945554Y-6975320D01*
X5221097Y-1473423D02*
X5261097Y-1513423D01*
X5261097Y-1473423D02*
X5221097Y-1513423D01*
X5322712Y-1436032D02*
X5362712Y-1476032D01*
X5362712Y-1436032D02*
X5322712Y-1476032D01*
X5366712Y-1335032D02*
X5406712Y-1375032D01*
X5406712Y-1335032D02*
X5366712Y-1375032D01*
X5429712Y-1433032D02*
X5469712Y-1473032D01*
X5469712Y-1433032D02*
X5429712Y-1473032D01*
X5473712Y-1335032D02*
X5513712Y-1375032D01*
X5513712Y-1335032D02*
X5473712Y-1375032D01*
X5517046Y-3070350D02*
X5557046Y-3110350D01*
X5557046Y-3070350D02*
X5517046Y-3110350D01*
X5530000Y-14442000D02*
X5570000Y-14482000D01*
X5570000Y-14442000D02*
X5530000Y-14482000D01*
X5535000Y-15248000D02*
X5575000Y-15288000D01*
X5575000Y-15248000D02*
X5535000Y-15288000D01*
X5538712Y-1447032D02*
X5578712Y-1487032D01*
X5578712Y-1447032D02*
X5538712Y-1487032D01*
X5626045Y-3090350D02*
X5666045Y-3130350D01*
X5666045Y-3090350D02*
X5626045Y-3130350D01*
X5636000Y-14431000D02*
X5676000Y-14471000D01*
X5676000Y-14431000D02*
X5636000Y-14471000D01*
X5637237Y-1545795D02*
X5677237Y-1585795D01*
X5677237Y-1545795D02*
X5637237Y-1585795D01*
X5642000Y-15251000D02*
X5682000Y-15291000D01*
X5682000Y-15251000D02*
X5642000Y-15291000D01*
X5705045Y-3028350D02*
X5745045Y-3068350D01*
X5745045Y-3028350D02*
X5705045Y-3068350D01*
X5716000Y-15174000D02*
X5756000Y-15214000D01*
X5756000Y-15174000D02*
X5716000Y-15214000D01*
X5719000Y-14368000D02*
X5759000Y-14408000D01*
X5759000Y-14368000D02*
X5719000Y-14408000D01*
X5943936Y-6099603D02*
X5983936Y-6139603D01*
X5983936Y-6099603D02*
X5943936Y-6139603D01*
X6069936Y-6093603D02*
X6109936Y-6133603D01*
X6109936Y-6093603D02*
X6069936Y-6133603D01*
X6242000Y-14585000D02*
X6282000Y-14625000D01*
X6282000Y-14585000D02*
X6242000Y-14625000D01*
X6371000Y-14579000D02*
X6411000Y-14619000D01*
X6411000Y-14579000D02*
X6371000Y-14619000D01*
X6463220Y-13146216D02*
X6503220Y-13186216D01*
X6503220Y-13146216D02*
X6463220Y-13186216D01*
X6469000Y-14650000D02*
X6509000Y-14690000D01*
X6509000Y-14650000D02*
X6469000Y-14690000D01*
X6475000Y-14777000D02*
X6515000Y-14817000D01*
X6515000Y-14777000D02*
X6475000Y-14817000D01*
X6575726Y-13599849D02*
X6615726Y-13639849D01*
X6615726Y-13599849D02*
X6575726Y-13639849D01*
X6690726Y-13596849D02*
X6730726Y-13636849D01*
X6730726Y-13596849D02*
X6690726Y-13636849D01*
X6691675Y-13011040D02*
X6731675Y-13051040D01*
X6731675Y-13011040D02*
X6691675Y-13051040D01*
X6703000Y-6934000D02*
X6743000Y-6974000D01*
X6743000Y-6934000D02*
X6703000Y-6974000D01*
X6708712Y-1461032D02*
X6748712Y-1501032D01*
X6748712Y-1461032D02*
X6708712Y-1501032D01*
X6736712Y-1365032D02*
X6776712Y-1405032D01*
X6776712Y-1365032D02*
X6736712Y-1405032D01*
X6793675Y-13009040D02*
X6833675Y-13049040D01*
X6833675Y-13009040D02*
X6793675Y-13049040D01*
X6804000Y-6937000D02*
X6844000Y-6977000D01*
X6844000Y-6937000D02*
X6804000Y-6977000D01*
X6808726Y-13599849D02*
X6848726Y-13639849D01*
X6848726Y-13599849D02*
X6808726Y-13639849D01*
X6812712Y-1436032D02*
X6852712Y-1476032D01*
X6852712Y-1436032D02*
X6812712Y-1476032D01*
X6897712Y-1362032D02*
X6937712Y-1402032D01*
X6937712Y-1362032D02*
X6897712Y-1402032D01*
X6928712Y-1469032D02*
X6968712Y-1509032D01*
X6968712Y-1469032D02*
X6928712Y-1509032D01*
X7090602Y-13591729D02*
X7130602Y-13631729D01*
X7130602Y-13591729D02*
X7090602Y-13631729D01*
X7165819Y-11544708D02*
X7205819Y-11584708D01*
X7205819Y-11544708D02*
X7165819Y-11584708D01*
X7167819Y-11646708D02*
X7207819Y-11686708D01*
X7207819Y-11646708D02*
X7167819Y-11686708D01*
X7181071Y-11166675D02*
X7221071Y-11206675D01*
X7221071Y-11166675D02*
X7181071Y-11206675D01*
X7209602Y-13602729D02*
X7249602Y-13642729D01*
X7249602Y-13602729D02*
X7209602Y-13642729D01*
X7502000Y-9836000D02*
X7542000Y-9876000D01*
X7542000Y-9836000D02*
X7502000Y-9876000D01*
X7604000Y-9833000D02*
X7644000Y-9873000D01*
X7644000Y-9833000D02*
X7604000Y-9873000D01*
X7669000Y-14414000D02*
X7709000Y-14454000D01*
X7709000Y-14414000D02*
X7669000Y-14454000D01*
X7716000Y-6723000D02*
X7756000Y-6763000D01*
X7756000Y-6723000D02*
X7716000Y-6763000D01*
X7748000Y-14509000D02*
X7788000Y-14549000D01*
X7788000Y-14509000D02*
X7748000Y-14549000D01*
X7818000Y-6721000D02*
X7858000Y-6761000D01*
X7858000Y-6721000D02*
X7818000Y-6761000D01*
X7890000Y-14521000D02*
X7930000Y-14561000D01*
X7930000Y-14521000D02*
X7890000Y-14561000D01*
X8041270Y-14974149D02*
X8081270Y-15014149D01*
X8081270Y-14974149D02*
X8041270Y-15014149D01*
X8140270Y-14938149D02*
X8180270Y-14978149D01*
X8180270Y-14938149D02*
X8140270Y-14978149D01*
X8235270Y-14985149D02*
X8275270Y-15025149D01*
X8275270Y-14985149D02*
X8235270Y-15025149D01*
X8340670Y-15314518D02*
X8380670Y-15354518D01*
X8380670Y-15314518D02*
X8340670Y-15354518D01*
X8435670Y-15361518D02*
X8475670Y-15401518D01*
X8475670Y-15361518D02*
X8435670Y-15401518D01*
X8462000Y-5931554D02*
X8502000Y-5971554D01*
X8502000Y-5931554D02*
X8462000Y-5971554D01*
X8534670Y-15325518D02*
X8574670Y-15365518D01*
X8574670Y-15325518D02*
X8534670Y-15365518D01*
X8563000Y-11291000D02*
X8603000Y-11331000D01*
X8603000Y-11291000D02*
X8563000Y-11331000D01*
X8565000Y-11836000D02*
X8605000Y-11876000D01*
X8605000Y-11836000D02*
X8565000Y-11876000D01*
X8566000Y-5937554D02*
X8606000Y-5977554D01*
X8606000Y-5937554D02*
X8566000Y-5977554D01*
X8677000Y-13921000D02*
X8717000Y-13961000D01*
X8717000Y-13921000D02*
X8677000Y-13961000D01*
X8699000Y-11291000D02*
X8739000Y-11331000D01*
X8739000Y-11291000D02*
X8699000Y-11331000D01*
X8791000Y-13899000D02*
X8831000Y-13939000D01*
X8831000Y-13899000D02*
X8791000Y-13939000D01*
X8917000Y-13917000D02*
X8957000Y-13957000D01*
X8957000Y-13917000D02*
X8917000Y-13957000D01*
X9002000Y-14030000D02*
X9042000Y-14070000D01*
X9042000Y-14030000D02*
X9002000Y-14070000D01*
X9478000Y-15271000D02*
X9518000Y-15311000D01*
X9518000Y-15271000D02*
X9478000Y-15311000D01*
X9580000Y-15289000D02*
X9620000Y-15329000D01*
X9620000Y-15289000D02*
X9580000Y-15329000D01*
X9601000Y-6542000D02*
X9641000Y-6582000D01*
X9641000Y-6542000D02*
X9601000Y-6582000D01*
X9608000Y-7116000D02*
X9648000Y-7156000D01*
X9648000Y-7116000D02*
X9608000Y-7156000D01*
X9636000Y-13968000D02*
X9676000Y-14008000D01*
X9676000Y-13968000D02*
X9636000Y-14008000D01*
X9671000Y-15245000D02*
X9711000Y-15285000D01*
X9711000Y-15245000D02*
X9671000Y-15285000D01*
X9710000Y-11841000D02*
X9750000Y-11881000D01*
X9750000Y-11841000D02*
X9710000Y-11881000D01*
X9736000Y-6544000D02*
X9776000Y-6584000D01*
X9776000Y-6544000D02*
X9736000Y-6584000D01*
X9739000Y-13906000D02*
X9779000Y-13946000D01*
X9779000Y-13906000D02*
X9739000Y-13946000D01*
X9838000Y-11277000D02*
X9878000Y-11317000D01*
X9878000Y-11277000D02*
X9838000Y-11317000D01*
X9872000Y-13902000D02*
X9912000Y-13942000D01*
X9912000Y-13902000D02*
X9872000Y-13942000D01*
X9982000Y-14003000D02*
X10022000Y-14043000D01*
X10022000Y-14003000D02*
X9982000Y-14043000D01*
X10279000Y-11359000D02*
X10319000Y-11399000D01*
X10319000Y-11359000D02*
X10279000Y-11399000D01*
X10280000Y-11918000D02*
X10320000Y-11958000D01*
X10320000Y-11918000D02*
X10280000Y-11958000D01*
X10466000Y-15267000D02*
X10506000Y-15307000D01*
X10506000Y-15267000D02*
X10466000Y-15307000D01*
X10568000Y-15293000D02*
X10608000Y-15333000D01*
X10608000Y-15293000D02*
X10568000Y-15333000D01*
X10667000Y-15251000D02*
X10707000Y-15291000D01*
X10707000Y-15251000D02*
X10667000Y-15291000D01*
X10745000Y-7110000D02*
X10785000Y-7150000D01*
X10785000Y-7110000D02*
X10745000Y-7150000D01*
X10913000Y-10722000D02*
X10953000Y-10762000D01*
X10953000Y-10722000D02*
X10913000Y-10762000D01*
X10957000Y-9847000D02*
X10997000Y-9887000D01*
X10997000Y-9847000D02*
X10957000Y-9887000D01*
X11041000Y-8600000D02*
X11081000Y-8640000D01*
X11081000Y-8600000D02*
X11041000Y-8640000D01*
X11141000Y-8600000D02*
X11181000Y-8640000D01*
X11181000Y-8600000D02*
X11141000Y-8640000D01*
X11301809Y-15391920D02*
X11341809Y-15431920D01*
X11341809Y-15391920D02*
X11301809Y-15431920D01*
X11333000Y-7062000D02*
X11373000Y-7102000D01*
X11373000Y-7062000D02*
X11333000Y-7102000D01*
X11335000Y-6594000D02*
X11375000Y-6634000D01*
X11375000Y-6594000D02*
X11335000Y-6634000D01*
X11343809Y-15289920D02*
X11383809Y-15329920D01*
X11383809Y-15289920D02*
X11343809Y-15329920D01*
X11364809Y-15486920D02*
X11404809Y-15526920D01*
X11404809Y-15486920D02*
X11364809Y-15526920D01*
X11635307Y-11443146D02*
X11675307Y-11483146D01*
X11675307Y-11443146D02*
X11635307Y-11483146D01*
X11744307Y-11463146D02*
X11784307Y-11503146D01*
X11784307Y-11463146D02*
X11744307Y-11503146D01*
X11823307Y-11401146D02*
X11863307Y-11441146D01*
X11863307Y-11401146D02*
X11823307Y-11441146D01*
X1724263Y-8217119D02*
G75*
G02*
X1664263Y-8217119I-30000J0D01*
G01*
X1664263Y-8217119D02*
G75*
G02*
X1724263Y-8217119I30000J0D01*
G01*
X1654263Y-8247119D02*
X1734263Y-8247119D01*
X1734263Y-8187119D02*
G75*
G02*
X1734263Y-8247119I0J-30000D01*
G01*
X1734263Y-8187119D02*
X1654263Y-8187119D01*
X1654263Y-8187119D02*
G75*
G03*
X1654263Y-8247119I0J-30000D01*
G01*
X1724263Y-10107119D02*
G75*
G02*
X1664263Y-10107119I-30000J0D01*
G01*
X1664263Y-10107119D02*
G75*
G02*
X1724263Y-10107119I30000J0D01*
G01*
X1654263Y-10137119D02*
X1734263Y-10137119D01*
X1734263Y-10077119D02*
G75*
G02*
X1734263Y-10137119I0J-30000D01*
G01*
X1734263Y-10077119D02*
X1654263Y-10077119D01*
X1654263Y-10077119D02*
G75*
G03*
X1654263Y-10137119I0J-30000D01*
G01*
X7512627Y-15142428D02*
X7512627Y-15212428D01*
X7477627Y-15177428D02*
X7547627Y-15177428D01*
X7477627Y-15091678D02*
X7477627Y-15263178D01*
X7547627Y-15263178D02*
G75*
G02*
X7477627Y-15263178I-35000J0D01*
G01*
X7547627Y-15263178D02*
X7547627Y-15091678D01*
X7547627Y-15091678D02*
G75*
G03*
X7477627Y-15091678I-35000J0D01*
G01*
X8792627Y-15142428D02*
X8792627Y-15212428D01*
X8757627Y-15177428D02*
X8827627Y-15177428D01*
X8757627Y-15091678D02*
X8757627Y-15263178D01*
X8827627Y-15263178D02*
G75*
G02*
X8757627Y-15263178I-35000J0D01*
G01*
X8827627Y-15263178D02*
X8827627Y-15091678D01*
X8827627Y-15091678D02*
G75*
G03*
X8757627Y-15091678I-35000J0D01*
G01*
X7780911Y-15155712D02*
X7780911Y-15099143D01*
X7724342Y-15099143D01*
X7724342Y-15155712D01*
X7780911Y-15155712D01*
X7880961Y-15255712D02*
X7880961Y-15199143D01*
X7824392Y-15199143D01*
X7824392Y-15255712D01*
X7880961Y-15255712D01*
X7980911Y-15155712D02*
X7980911Y-15099143D01*
X7924342Y-15099143D01*
X7924342Y-15155712D01*
X7980911Y-15155712D01*
X8080911Y-15255712D02*
X8080911Y-15199143D01*
X8024342Y-15199143D01*
X8024342Y-15255712D01*
X8080911Y-15255712D01*
X8180911Y-15155712D02*
X8180911Y-15099143D01*
X8124342Y-15099143D01*
X8124342Y-15155712D01*
X8180911Y-15155712D01*
X8280911Y-15255712D02*
X8280911Y-15199143D01*
X8224342Y-15199143D01*
X8224342Y-15255712D01*
X8280911Y-15255712D01*
X8380911Y-15155712D02*
X8380911Y-15099143D01*
X8324342Y-15099143D01*
X8324342Y-15155712D01*
X8380911Y-15155712D01*
X8480911Y-15255712D02*
X8480911Y-15199143D01*
X8424342Y-15199143D01*
X8424342Y-15255712D01*
X8480911Y-15255712D01*
X8580911Y-15155712D02*
X8580911Y-15099143D01*
X8524342Y-15099143D01*
X8524342Y-15155712D01*
X8580911Y-15155712D01*
X8878285Y-14113019D02*
X8878285Y-14056450D01*
X8821716Y-14056450D01*
X8821716Y-14113019D01*
X8878285Y-14113019D01*
X8878285Y-14463019D02*
X8878285Y-14406450D01*
X8821716Y-14406450D01*
X8821716Y-14463019D01*
X8878285Y-14463019D01*
X9878285Y-14113019D02*
X9878285Y-14056450D01*
X9821716Y-14056450D01*
X9821716Y-14113019D01*
X9878285Y-14113019D01*
X9878285Y-14463019D02*
X9878285Y-14406450D01*
X9821716Y-14406450D01*
X9821716Y-14463019D01*
X9878285Y-14463019D01*
X6016736Y-5947012D02*
X6064236Y-5899512D01*
X6016736Y-5852012D01*
X5969236Y-5899512D01*
X6016736Y-5947012D01*
X6026433Y-6847572D02*
X6073933Y-6800072D01*
X6026433Y-6752572D01*
X5978933Y-6800072D01*
X6026433Y-6847572D01*
X6266736Y-5947012D02*
X6314236Y-5899512D01*
X6266736Y-5852012D01*
X6219236Y-5899512D01*
X6266736Y-5947012D01*
X6276433Y-6847572D02*
X6323933Y-6800072D01*
X6276433Y-6752572D01*
X6228933Y-6800072D01*
X6276433Y-6847572D01*
X6516736Y-5947012D02*
X6564236Y-5899512D01*
X6516736Y-5852012D01*
X6469236Y-5899512D01*
X6516736Y-5947012D01*
X6526433Y-6847572D02*
X6573933Y-6800072D01*
X6526433Y-6752572D01*
X6478933Y-6800072D01*
X6526433Y-6847572D01*
X6766736Y-5947012D02*
X6814236Y-5899512D01*
X6766736Y-5852012D01*
X6719236Y-5899512D01*
X6766736Y-5947012D01*
X6776433Y-6847572D02*
X6823933Y-6800072D01*
X6776433Y-6752572D01*
X6728933Y-6800072D01*
X6776433Y-6847572D01*
X7764690Y-5824954D02*
X7812190Y-5777454D01*
X7764690Y-5729954D01*
X7717190Y-5777454D01*
X7764690Y-5824954D01*
X7779624Y-6946655D02*
X7827124Y-6899155D01*
X7779624Y-6851655D01*
X7732124Y-6899155D01*
X7779624Y-6946655D01*
X8014690Y-5824954D02*
X8062190Y-5777454D01*
X8014690Y-5729954D01*
X7967190Y-5777454D01*
X8014690Y-5824954D01*
X8029624Y-6946655D02*
X8077124Y-6899155D01*
X8029624Y-6851655D01*
X7982124Y-6899155D01*
X8029624Y-6946655D01*
X8125489Y-12838179D02*
X8172989Y-12790679D01*
X8125489Y-12743179D01*
X8077989Y-12790679D01*
X8125489Y-12838179D01*
X8264690Y-5824954D02*
X8312190Y-5777454D01*
X8264690Y-5729954D01*
X8217190Y-5777454D01*
X8264690Y-5824954D01*
X8279624Y-6946655D02*
X8327124Y-6899155D01*
X8279624Y-6851655D01*
X8232124Y-6899155D01*
X8279624Y-6946655D01*
X8375489Y-12838179D02*
X8422989Y-12790679D01*
X8375489Y-12743179D01*
X8327989Y-12790679D01*
X8375489Y-12838179D01*
X8514690Y-5824954D02*
X8562190Y-5777454D01*
X8514690Y-5729954D01*
X8467190Y-5777454D01*
X8514690Y-5824954D01*
X8529624Y-6946655D02*
X8577124Y-6899155D01*
X8529624Y-6851655D01*
X8482124Y-6899155D01*
X8529624Y-6946655D01*
X8625489Y-12838179D02*
X8672989Y-12790679D01*
X8625489Y-12743179D01*
X8577989Y-12790679D01*
X8625489Y-12838179D01*
X8875489Y-12838179D02*
X8922989Y-12790679D01*
X8875489Y-12743179D01*
X8827989Y-12790679D01*
X8875489Y-12838179D01*
X9617523Y-12838179D02*
X9665023Y-12790679D01*
X9617523Y-12743179D01*
X9570023Y-12790679D01*
X9617523Y-12838179D01*
X9867523Y-12838179D02*
X9915023Y-12790679D01*
X9867523Y-12743179D01*
X9820023Y-12790679D01*
X9867523Y-12838179D01*
X10117523Y-12838179D02*
X10165023Y-12790679D01*
X10117523Y-12743179D01*
X10070023Y-12790679D01*
X10117523Y-12838179D01*
X10367523Y-12838179D02*
X10415023Y-12790679D01*
X10367523Y-12743179D01*
X10320023Y-12790679D01*
X10367523Y-12838179D01*
X539575Y-400000D02*
X639575Y-500000D01*
X639575Y-400000D02*
X539575Y-500000D01*
X639575Y-450000D02*
G75*
G02*
X539575Y-450000I-50000J0D01*
G01*
X539575Y-450000D02*
G75*
G02*
X639575Y-450000I50000J0D01*
G01*
X539575Y-1500000D02*
X639575Y-1600000D01*
X639575Y-1500000D02*
X539575Y-1600000D01*
X639575Y-1550000D02*
G75*
G02*
X539575Y-1550000I-50000J0D01*
G01*
X539575Y-1550000D02*
G75*
G02*
X639575Y-1550000I50000J0D01*
G01*
X539575Y-1950000D02*
X639575Y-2050000D01*
X639575Y-1950000D02*
X539575Y-2050000D01*
X639575Y-2000000D02*
G75*
G02*
X539575Y-2000000I-50000J0D01*
G01*
X539575Y-2000000D02*
G75*
G02*
X639575Y-2000000I50000J0D01*
G01*
X539575Y-3050000D02*
X639575Y-3150000D01*
X639575Y-3050000D02*
X539575Y-3150000D01*
X639575Y-3100000D02*
G75*
G02*
X539575Y-3100000I-50000J0D01*
G01*
X539575Y-3100000D02*
G75*
G02*
X639575Y-3100000I50000J0D01*
G01*
X550000Y-3500000D02*
X650000Y-3600000D01*
X650000Y-3500000D02*
X550000Y-3600000D01*
X650000Y-3550000D02*
G75*
G02*
X550000Y-3550000I-50000J0D01*
G01*
X550000Y-3550000D02*
G75*
G02*
X650000Y-3550000I50000J0D01*
G01*
X550000Y-4600000D02*
X650000Y-4700000D01*
X650000Y-4600000D02*
X550000Y-4700000D01*
X650000Y-4650000D02*
G75*
G02*
X550000Y-4650000I-50000J0D01*
G01*
X550000Y-4650000D02*
G75*
G02*
X650000Y-4650000I50000J0D01*
G01*
X550000Y-5050000D02*
X650000Y-5150000D01*
X650000Y-5050000D02*
X550000Y-5150000D01*
X650000Y-5100000D02*
G75*
G02*
X550000Y-5100000I-50000J0D01*
G01*
X550000Y-5100000D02*
G75*
G02*
X650000Y-5100000I50000J0D01*
G01*
X550000Y-6150000D02*
X650000Y-6250000D01*
X650000Y-6150000D02*
X550000Y-6250000D01*
X650000Y-6200000D02*
G75*
G02*
X550000Y-6200000I-50000J0D01*
G01*
X550000Y-6200000D02*
G75*
G02*
X650000Y-6200000I50000J0D01*
G01*
X550000Y-6600000D02*
X650000Y-6700000D01*
X650000Y-6600000D02*
X550000Y-6700000D01*
X650000Y-6650000D02*
G75*
G02*
X550000Y-6650000I-50000J0D01*
G01*
X550000Y-6650000D02*
G75*
G02*
X650000Y-6650000I50000J0D01*
G01*
X550000Y-7700000D02*
X650000Y-7800000D01*
X650000Y-7700000D02*
X550000Y-7800000D01*
X650000Y-7750000D02*
G75*
G02*
X550000Y-7750000I-50000J0D01*
G01*
X550000Y-7750000D02*
G75*
G02*
X650000Y-7750000I50000J0D01*
G01*
X550000Y-10550000D02*
X650000Y-10650000D01*
X650000Y-10550000D02*
X550000Y-10650000D01*
X650000Y-10600000D02*
G75*
G02*
X550000Y-10600000I-50000J0D01*
G01*
X550000Y-10600000D02*
G75*
G02*
X650000Y-10600000I50000J0D01*
G01*
X550000Y-11650000D02*
X650000Y-11750000D01*
X650000Y-11650000D02*
X550000Y-11750000D01*
X650000Y-11700000D02*
G75*
G02*
X550000Y-11700000I-50000J0D01*
G01*
X550000Y-11700000D02*
G75*
G02*
X650000Y-11700000I50000J0D01*
G01*
X550000Y-14150000D02*
X650000Y-14250000D01*
X650000Y-14150000D02*
X550000Y-14250000D01*
X650000Y-14200000D02*
G75*
G02*
X550000Y-14200000I-50000J0D01*
G01*
X550000Y-14200000D02*
G75*
G02*
X650000Y-14200000I50000J0D01*
G01*
X550000Y-15250000D02*
X650000Y-15350000D01*
X650000Y-15250000D02*
X550000Y-15350000D01*
X650000Y-15300000D02*
G75*
G02*
X550000Y-15300000I-50000J0D01*
G01*
X550000Y-15300000D02*
G75*
G02*
X650000Y-15300000I50000J0D01*
G01*
X602500Y-12300000D02*
X702500Y-12400000D01*
X702500Y-12300000D02*
X602500Y-12400000D01*
X702500Y-12350000D02*
G75*
G02*
X602500Y-12350000I-50000J0D01*
G01*
X602500Y-12350000D02*
G75*
G02*
X702500Y-12350000I50000J0D01*
G01*
X602500Y-12550000D02*
X702500Y-12650000D01*
X702500Y-12550000D02*
X602500Y-12650000D01*
X702500Y-12600000D02*
G75*
G02*
X602500Y-12600000I-50000J0D01*
G01*
X602500Y-12600000D02*
G75*
G02*
X702500Y-12600000I50000J0D01*
G01*
X602500Y-13281160D02*
X702500Y-13381160D01*
X702500Y-13281160D02*
X602500Y-13381160D01*
X702500Y-13331160D02*
G75*
G02*
X602500Y-13331160I-50000J0D01*
G01*
X602500Y-13331160D02*
G75*
G02*
X702500Y-13331160I50000J0D01*
G01*
X602500Y-13531160D02*
X702500Y-13631160D01*
X702500Y-13531160D02*
X602500Y-13631160D01*
X702500Y-13581160D02*
G75*
G02*
X602500Y-13581160I-50000J0D01*
G01*
X602500Y-13581160D02*
G75*
G02*
X702500Y-13581160I50000J0D01*
G01*
X1450000Y-12300000D02*
X1550000Y-12400000D01*
X1550000Y-12300000D02*
X1450000Y-12400000D01*
X1550000Y-12350000D02*
G75*
G02*
X1450000Y-12350000I-50000J0D01*
G01*
X1450000Y-12350000D02*
G75*
G02*
X1550000Y-12350000I50000J0D01*
G01*
X1450000Y-12550000D02*
X1550000Y-12650000D01*
X1550000Y-12550000D02*
X1450000Y-12650000D01*
X1550000Y-12600000D02*
G75*
G02*
X1450000Y-12600000I-50000J0D01*
G01*
X1450000Y-12600000D02*
G75*
G02*
X1550000Y-12600000I50000J0D01*
G01*
X1452500Y-13281160D02*
X1552500Y-13381160D01*
X1552500Y-13281160D02*
X1452500Y-13381160D01*
X1552500Y-13331160D02*
G75*
G02*
X1452500Y-13331160I-50000J0D01*
G01*
X1452500Y-13331160D02*
G75*
G02*
X1552500Y-13331160I50000J0D01*
G01*
X1452500Y-13531160D02*
X1552500Y-13631160D01*
X1552500Y-13531160D02*
X1452500Y-13631160D01*
X1552500Y-13581160D02*
G75*
G02*
X1452500Y-13581160I-50000J0D01*
G01*
X1452500Y-13581160D02*
G75*
G02*
X1552500Y-13581160I50000J0D01*
G01*
X2907000Y-4934200D02*
X3007000Y-5034200D01*
X3007000Y-4934200D02*
X2907000Y-5034200D01*
X3007000Y-4984200D02*
G75*
G02*
X2907000Y-4984200I-50000J0D01*
G01*
X2907000Y-4984200D02*
G75*
G02*
X3007000Y-4984200I50000J0D01*
G01*
X3300000Y-14247500D02*
X3400000Y-14347500D01*
X3400000Y-14247500D02*
X3300000Y-14347500D01*
X3400000Y-14297500D02*
G75*
G02*
X3300000Y-14297500I-50000J0D01*
G01*
X3300000Y-14297500D02*
G75*
G02*
X3400000Y-14297500I50000J0D01*
G01*
X3300000Y-15050000D02*
X3400000Y-15150000D01*
X3400000Y-15050000D02*
X3300000Y-15150000D01*
X3400000Y-15100000D02*
G75*
G02*
X3300000Y-15100000I-50000J0D01*
G01*
X3300000Y-15100000D02*
G75*
G02*
X3400000Y-15100000I50000J0D01*
G01*
X3407000Y-4934200D02*
X3507000Y-5034200D01*
X3507000Y-4934200D02*
X3407000Y-5034200D01*
X3507000Y-4984200D02*
G75*
G02*
X3407000Y-4984200I-50000J0D01*
G01*
X3407000Y-4984200D02*
G75*
G02*
X3507000Y-4984200I50000J0D01*
G01*
X3550000Y-14247500D02*
X3650000Y-14347500D01*
X3650000Y-14247500D02*
X3550000Y-14347500D01*
X3650000Y-14297500D02*
G75*
G02*
X3550000Y-14297500I-50000J0D01*
G01*
X3550000Y-14297500D02*
G75*
G02*
X3650000Y-14297500I50000J0D01*
G01*
X3550000Y-15050000D02*
X3650000Y-15150000D01*
X3650000Y-15050000D02*
X3550000Y-15150000D01*
X3650000Y-15100000D02*
G75*
G02*
X3550000Y-15100000I-50000J0D01*
G01*
X3550000Y-15100000D02*
G75*
G02*
X3650000Y-15100000I50000J0D01*
G01*
X4300000Y-14247500D02*
X4400000Y-14347500D01*
X4400000Y-14247500D02*
X4300000Y-14347500D01*
X4400000Y-14297500D02*
G75*
G02*
X4300000Y-14297500I-50000J0D01*
G01*
X4300000Y-14297500D02*
G75*
G02*
X4400000Y-14297500I50000J0D01*
G01*
X4300000Y-15050000D02*
X4400000Y-15150000D01*
X4400000Y-15050000D02*
X4300000Y-15150000D01*
X4400000Y-15100000D02*
G75*
G02*
X4300000Y-15100000I-50000J0D01*
G01*
X4300000Y-15100000D02*
G75*
G02*
X4400000Y-15100000I50000J0D01*
G01*
X4550000Y-14247500D02*
X4650000Y-14347500D01*
X4650000Y-14247500D02*
X4550000Y-14347500D01*
X4650000Y-14297500D02*
G75*
G02*
X4550000Y-14297500I-50000J0D01*
G01*
X4550000Y-14297500D02*
G75*
G02*
X4650000Y-14297500I50000J0D01*
G01*
X4550000Y-15050000D02*
X4650000Y-15150000D01*
X4650000Y-15050000D02*
X4550000Y-15150000D01*
X4650000Y-15100000D02*
G75*
G02*
X4550000Y-15100000I-50000J0D01*
G01*
X4550000Y-15100000D02*
G75*
G02*
X4650000Y-15100000I50000J0D01*
G01*
X4585712Y-602032D02*
X4685712Y-702032D01*
X4685712Y-602032D02*
X4585712Y-702032D01*
X4685712Y-652032D02*
G75*
G02*
X4585712Y-652032I-50000J0D01*
G01*
X4585712Y-652032D02*
G75*
G02*
X4685712Y-652032I50000J0D01*
G01*
X5300000Y-14247500D02*
X5400000Y-14347500D01*
X5400000Y-14247500D02*
X5300000Y-14347500D01*
X5400000Y-14297500D02*
G75*
G02*
X5300000Y-14297500I-50000J0D01*
G01*
X5300000Y-14297500D02*
G75*
G02*
X5400000Y-14297500I50000J0D01*
G01*
X5300000Y-15050000D02*
X5400000Y-15150000D01*
X5400000Y-15050000D02*
X5300000Y-15150000D01*
X5400000Y-15100000D02*
G75*
G02*
X5300000Y-15100000I-50000J0D01*
G01*
X5300000Y-15100000D02*
G75*
G02*
X5400000Y-15100000I50000J0D01*
G01*
X5550000Y-14247500D02*
X5650000Y-14347500D01*
X5650000Y-14247500D02*
X5550000Y-14347500D01*
X5650000Y-14297500D02*
G75*
G02*
X5550000Y-14297500I-50000J0D01*
G01*
X5550000Y-14297500D02*
G75*
G02*
X5650000Y-14297500I50000J0D01*
G01*
X5550000Y-15050000D02*
X5650000Y-15150000D01*
X5650000Y-15050000D02*
X5550000Y-15150000D01*
X5650000Y-15100000D02*
G75*
G02*
X5550000Y-15100000I-50000J0D01*
G01*
X5550000Y-15100000D02*
G75*
G02*
X5650000Y-15100000I50000J0D01*
G01*
X5685712Y-602032D02*
X5785712Y-702032D01*
X5785712Y-602032D02*
X5685712Y-702032D01*
X5785712Y-652032D02*
G75*
G02*
X5685712Y-652032I-50000J0D01*
G01*
X5685712Y-652032D02*
G75*
G02*
X5785712Y-652032I50000J0D01*
G01*
X5985712Y-602032D02*
X6085712Y-702032D01*
X6085712Y-602032D02*
X5985712Y-702032D01*
X6085712Y-652032D02*
G75*
G02*
X5985712Y-652032I-50000J0D01*
G01*
X5985712Y-652032D02*
G75*
G02*
X6085712Y-652032I50000J0D01*
G01*
X7085712Y-602032D02*
X7185712Y-702032D01*
X7185712Y-602032D02*
X7085712Y-702032D01*
X7185712Y-652032D02*
G75*
G02*
X7085712Y-652032I-50000J0D01*
G01*
X7085712Y-652032D02*
G75*
G02*
X7185712Y-652032I50000J0D01*
G01*
X7800000Y-14097500D02*
X7900000Y-14197500D01*
X7900000Y-14097500D02*
X7800000Y-14197500D01*
X7900000Y-14147500D02*
G75*
G02*
X7800000Y-14147500I-50000J0D01*
G01*
X7800000Y-14147500D02*
G75*
G02*
X7900000Y-14147500I50000J0D01*
G01*
X7800000Y-14347500D02*
X7900000Y-14447500D01*
X7900000Y-14347500D02*
X7800000Y-14447500D01*
X7900000Y-14397500D02*
G75*
G02*
X7800000Y-14397500I-50000J0D01*
G01*
X7800000Y-14397500D02*
G75*
G02*
X7900000Y-14397500I50000J0D01*
G01*
X9275000Y-15100000D02*
X9375000Y-15200000D01*
X9375000Y-15100000D02*
X9275000Y-15200000D01*
X9375000Y-15150000D02*
G75*
G02*
X9275000Y-15150000I-50000J0D01*
G01*
X9275000Y-15150000D02*
G75*
G02*
X9375000Y-15150000I50000J0D01*
G01*
X9525000Y-15100000D02*
X9625000Y-15200000D01*
X9625000Y-15100000D02*
X9525000Y-15200000D01*
X9625000Y-15150000D02*
G75*
G02*
X9525000Y-15150000I-50000J0D01*
G01*
X9525000Y-15150000D02*
G75*
G02*
X9625000Y-15150000I50000J0D01*
G01*
X9625000Y-5002500D02*
X9725000Y-5102500D01*
X9725000Y-5002500D02*
X9625000Y-5102500D01*
X9725000Y-5052500D02*
G75*
G02*
X9625000Y-5052500I-50000J0D01*
G01*
X9625000Y-5052500D02*
G75*
G02*
X9725000Y-5052500I50000J0D01*
G01*
X9625000Y-5702500D02*
X9725000Y-5802500D01*
X9725000Y-5702500D02*
X9625000Y-5802500D01*
X9725000Y-5752500D02*
G75*
G02*
X9625000Y-5752500I-50000J0D01*
G01*
X9625000Y-5752500D02*
G75*
G02*
X9725000Y-5752500I50000J0D01*
G01*
X9875000Y-5002500D02*
X9975000Y-5102500D01*
X9975000Y-5002500D02*
X9875000Y-5102500D01*
X9975000Y-5052500D02*
G75*
G02*
X9875000Y-5052500I-50000J0D01*
G01*
X9875000Y-5052500D02*
G75*
G02*
X9975000Y-5052500I50000J0D01*
G01*
X9875000Y-5702500D02*
X9975000Y-5802500D01*
X9975000Y-5702500D02*
X9875000Y-5802500D01*
X9975000Y-5752500D02*
G75*
G02*
X9875000Y-5752500I-50000J0D01*
G01*
X9875000Y-5752500D02*
G75*
G02*
X9975000Y-5752500I50000J0D01*
G01*
X10275000Y-15100000D02*
X10375000Y-15200000D01*
X10375000Y-15100000D02*
X10275000Y-15200000D01*
X10375000Y-15150000D02*
G75*
G02*
X10275000Y-15150000I-50000J0D01*
G01*
X10275000Y-15150000D02*
G75*
G02*
X10375000Y-15150000I50000J0D01*
G01*
X10525000Y-15100000D02*
X10625000Y-15200000D01*
X10625000Y-15100000D02*
X10525000Y-15200000D01*
X10625000Y-15150000D02*
G75*
G02*
X10525000Y-15150000I-50000J0D01*
G01*
X10525000Y-15150000D02*
G75*
G02*
X10625000Y-15150000I50000J0D01*
G01*
X10683801Y-13920000D02*
X10783801Y-14020000D01*
X10783801Y-13920000D02*
X10683801Y-14020000D01*
X10783801Y-13970000D02*
G75*
G02*
X10683801Y-13970000I-50000J0D01*
G01*
X10683801Y-13970000D02*
G75*
G02*
X10783801Y-13970000I50000J0D01*
G01*
X10683801Y-14170000D02*
X10783801Y-14270000D01*
X10783801Y-14170000D02*
X10683801Y-14270000D01*
X10783801Y-14220000D02*
G75*
G02*
X10683801Y-14220000I-50000J0D01*
G01*
X10683801Y-14220000D02*
G75*
G02*
X10783801Y-14220000I50000J0D01*
G01*
X10825000Y-5002500D02*
X10925000Y-5102500D01*
X10925000Y-5002500D02*
X10825000Y-5102500D01*
X10925000Y-5052500D02*
G75*
G02*
X10825000Y-5052500I-50000J0D01*
G01*
X10825000Y-5052500D02*
G75*
G02*
X10925000Y-5052500I50000J0D01*
G01*
X10825000Y-5702500D02*
X10925000Y-5802500D01*
X10925000Y-5702500D02*
X10825000Y-5802500D01*
X10925000Y-5752500D02*
G75*
G02*
X10825000Y-5752500I-50000J0D01*
G01*
X10825000Y-5752500D02*
G75*
G02*
X10925000Y-5752500I50000J0D01*
G01*
X11075000Y-5002500D02*
X11175000Y-5102500D01*
X11175000Y-5002500D02*
X11075000Y-5102500D01*
X11175000Y-5052500D02*
G75*
G02*
X11075000Y-5052500I-50000J0D01*
G01*
X11075000Y-5052500D02*
G75*
G02*
X11175000Y-5052500I50000J0D01*
G01*
X11075000Y-5702500D02*
X11175000Y-5802500D01*
X11175000Y-5702500D02*
X11075000Y-5802500D01*
X11175000Y-5752500D02*
G75*
G02*
X11075000Y-5752500I-50000J0D01*
G01*
X11075000Y-5752500D02*
G75*
G02*
X11175000Y-5752500I50000J0D01*
G01*
X11482574Y-13920000D02*
X11582574Y-14020000D01*
X11582574Y-13920000D02*
X11482574Y-14020000D01*
X11582574Y-13970000D02*
G75*
G02*
X11482574Y-13970000I-50000J0D01*
G01*
X11482574Y-13970000D02*
G75*
G02*
X11582574Y-13970000I50000J0D01*
G01*
X11482574Y-14170000D02*
X11582574Y-14270000D01*
X11582574Y-14170000D02*
X11482574Y-14270000D01*
X11582574Y-14220000D02*
G75*
G02*
X11482574Y-14220000I-50000J0D01*
G01*
X11482574Y-14220000D02*
G75*
G02*
X11582574Y-14220000I50000J0D01*
G01*
D13*
X5151000Y-10495000D02*
X5261000Y-10605000D01*
X5261000Y-10495000D02*
X5151000Y-10605000D01*
X5206000Y-10495000D02*
X5206000Y-10605000D01*
X5151000Y-10550000D02*
X5261000Y-10550000D01*
X5167000Y-7845000D02*
X5277000Y-7955000D01*
X5277000Y-7845000D02*
X5167000Y-7955000D01*
X5222000Y-7845000D02*
X5222000Y-7955000D01*
X5167000Y-7900000D02*
X5277000Y-7900000D01*
X5250000Y-8414840D02*
X5360000Y-8524840D01*
X5360000Y-8414840D02*
X5250000Y-8524840D01*
X5305000Y-8414840D02*
X5305000Y-8524840D01*
X5250000Y-8469840D02*
X5360000Y-8469840D01*
X5250000Y-9938840D02*
X5360000Y-10048840D01*
X5360000Y-9938840D02*
X5250000Y-10048840D01*
X5305000Y-9938840D02*
X5305000Y-10048840D01*
X5250000Y-9993840D02*
X5360000Y-9993840D01*
X5405000Y-10495000D02*
X5515000Y-10605000D01*
X5515000Y-10495000D02*
X5405000Y-10605000D01*
X5460000Y-10495000D02*
X5460000Y-10605000D01*
X5405000Y-10550000D02*
X5515000Y-10550000D01*
X5421000Y-7845000D02*
X5531000Y-7955000D01*
X5531000Y-7845000D02*
X5421000Y-7955000D01*
X5476000Y-7845000D02*
X5476000Y-7955000D01*
X5421000Y-7900000D02*
X5531000Y-7900000D01*
X5504000Y-8414840D02*
X5614000Y-8524840D01*
X5614000Y-8414840D02*
X5504000Y-8524840D01*
X5559000Y-8414840D02*
X5559000Y-8524840D01*
X5504000Y-8469840D02*
X5614000Y-8469840D01*
X5504000Y-9938840D02*
X5614000Y-10048840D01*
X5614000Y-9938840D02*
X5504000Y-10048840D01*
X5559000Y-9938840D02*
X5559000Y-10048840D01*
X5504000Y-9993840D02*
X5614000Y-9993840D01*
X5659000Y-10495000D02*
X5769000Y-10605000D01*
X5769000Y-10495000D02*
X5659000Y-10605000D01*
X5714000Y-10495000D02*
X5714000Y-10605000D01*
X5659000Y-10550000D02*
X5769000Y-10550000D01*
X5675000Y-7845000D02*
X5785000Y-7955000D01*
X5785000Y-7845000D02*
X5675000Y-7955000D01*
X5730000Y-7845000D02*
X5730000Y-7955000D01*
X5675000Y-7900000D02*
X5785000Y-7900000D01*
X5758000Y-8414840D02*
X5868000Y-8524840D01*
X5868000Y-8414840D02*
X5758000Y-8524840D01*
X5813000Y-8414840D02*
X5813000Y-8524840D01*
X5758000Y-8469840D02*
X5868000Y-8469840D01*
X5758000Y-9938840D02*
X5868000Y-10048840D01*
X5868000Y-9938840D02*
X5758000Y-10048840D01*
X5813000Y-9938840D02*
X5813000Y-10048840D01*
X5758000Y-9993840D02*
X5868000Y-9993840D01*
X5913000Y-10495000D02*
X6023000Y-10605000D01*
X6023000Y-10495000D02*
X5913000Y-10605000D01*
X5968000Y-10495000D02*
X5968000Y-10605000D01*
X5913000Y-10550000D02*
X6023000Y-10550000D01*
X5929000Y-7845000D02*
X6039000Y-7955000D01*
X6039000Y-7845000D02*
X5929000Y-7955000D01*
X5984000Y-7845000D02*
X5984000Y-7955000D01*
X5929000Y-7900000D02*
X6039000Y-7900000D01*
X6012000Y-8414840D02*
X6122000Y-8524840D01*
X6122000Y-8414840D02*
X6012000Y-8524840D01*
X6067000Y-8414840D02*
X6067000Y-8524840D01*
X6012000Y-8469840D02*
X6122000Y-8469840D01*
X6012000Y-9938840D02*
X6122000Y-10048840D01*
X6122000Y-9938840D02*
X6012000Y-10048840D01*
X6067000Y-9938840D02*
X6067000Y-10048840D01*
X6012000Y-9993840D02*
X6122000Y-9993840D01*
X6167000Y-10495000D02*
X6277000Y-10605000D01*
X6277000Y-10495000D02*
X6167000Y-10605000D01*
X6222000Y-10495000D02*
X6222000Y-10605000D01*
X6167000Y-10550000D02*
X6277000Y-10550000D01*
X6183000Y-7845000D02*
X6293000Y-7955000D01*
X6293000Y-7845000D02*
X6183000Y-7955000D01*
X6238000Y-7845000D02*
X6238000Y-7955000D01*
X6183000Y-7900000D02*
X6293000Y-7900000D01*
X6266000Y-8414840D02*
X6376000Y-8524840D01*
X6376000Y-8414840D02*
X6266000Y-8524840D01*
X6321000Y-8414840D02*
X6321000Y-8524840D01*
X6266000Y-8469840D02*
X6376000Y-8469840D01*
X6266000Y-9938840D02*
X6376000Y-10048840D01*
X6376000Y-9938840D02*
X6266000Y-10048840D01*
X6321000Y-9938840D02*
X6321000Y-10048840D01*
X6266000Y-9993840D02*
X6376000Y-9993840D01*
X6421000Y-10495000D02*
X6531000Y-10605000D01*
X6531000Y-10495000D02*
X6421000Y-10605000D01*
X6476000Y-10495000D02*
X6476000Y-10605000D01*
X6421000Y-10550000D02*
X6531000Y-10550000D01*
X6437000Y-7845000D02*
X6547000Y-7955000D01*
X6547000Y-7845000D02*
X6437000Y-7955000D01*
X6492000Y-7845000D02*
X6492000Y-7955000D01*
X6437000Y-7900000D02*
X6547000Y-7900000D01*
X6520000Y-8414840D02*
X6630000Y-8524840D01*
X6630000Y-8414840D02*
X6520000Y-8524840D01*
X6575000Y-8414840D02*
X6575000Y-8524840D01*
X6520000Y-8469840D02*
X6630000Y-8469840D01*
X6520000Y-9938840D02*
X6630000Y-10048840D01*
X6630000Y-9938840D02*
X6520000Y-10048840D01*
X6575000Y-9938840D02*
X6575000Y-10048840D01*
X6520000Y-9993840D02*
X6630000Y-9993840D01*
X6675000Y-10495000D02*
X6785000Y-10605000D01*
X6785000Y-10495000D02*
X6675000Y-10605000D01*
X6730000Y-10495000D02*
X6730000Y-10605000D01*
X6675000Y-10550000D02*
X6785000Y-10550000D01*
X6691000Y-7845000D02*
X6801000Y-7955000D01*
X6801000Y-7845000D02*
X6691000Y-7955000D01*
X6746000Y-7845000D02*
X6746000Y-7955000D01*
X6691000Y-7900000D02*
X6801000Y-7900000D01*
X6774000Y-8414840D02*
X6884000Y-8524840D01*
X6884000Y-8414840D02*
X6774000Y-8524840D01*
X6829000Y-8414840D02*
X6829000Y-8524840D01*
X6774000Y-8469840D02*
X6884000Y-8469840D01*
X6774000Y-9938840D02*
X6884000Y-10048840D01*
X6884000Y-9938840D02*
X6774000Y-10048840D01*
X6829000Y-9938840D02*
X6829000Y-10048840D01*
X6774000Y-9993840D02*
X6884000Y-9993840D01*
X6929000Y-10495000D02*
X7039000Y-10605000D01*
X7039000Y-10495000D02*
X6929000Y-10605000D01*
X6984000Y-10495000D02*
X6984000Y-10605000D01*
X6929000Y-10550000D02*
X7039000Y-10550000D01*
X6945000Y-7845000D02*
X7055000Y-7955000D01*
X7055000Y-7845000D02*
X6945000Y-7955000D01*
X7000000Y-7845000D02*
X7000000Y-7955000D01*
X6945000Y-7900000D02*
X7055000Y-7900000D01*
X7028000Y-8414840D02*
X7138000Y-8524840D01*
X7138000Y-8414840D02*
X7028000Y-8524840D01*
X7083000Y-8414840D02*
X7083000Y-8524840D01*
X7028000Y-8469840D02*
X7138000Y-8469840D01*
X7028000Y-9938840D02*
X7138000Y-10048840D01*
X7138000Y-9938840D02*
X7028000Y-10048840D01*
X7083000Y-9938840D02*
X7083000Y-10048840D01*
X7028000Y-9993840D02*
X7138000Y-9993840D01*
X7183000Y-10495000D02*
X7293000Y-10605000D01*
X7293000Y-10495000D02*
X7183000Y-10605000D01*
X7238000Y-10495000D02*
X7238000Y-10605000D01*
X7183000Y-10550000D02*
X7293000Y-10550000D01*
X7199000Y-7845000D02*
X7309000Y-7955000D01*
X7309000Y-7845000D02*
X7199000Y-7955000D01*
X7254000Y-7845000D02*
X7254000Y-7955000D01*
X7199000Y-7900000D02*
X7309000Y-7900000D01*
X7282000Y-8414840D02*
X7392000Y-8524840D01*
X7392000Y-8414840D02*
X7282000Y-8524840D01*
X7337000Y-8414840D02*
X7337000Y-8524840D01*
X7282000Y-8469840D02*
X7392000Y-8469840D01*
X7282000Y-9938840D02*
X7392000Y-10048840D01*
X7392000Y-9938840D02*
X7282000Y-10048840D01*
X7337000Y-9938840D02*
X7337000Y-10048840D01*
X7282000Y-9993840D02*
X7392000Y-9993840D01*
X7437000Y-10495000D02*
X7547000Y-10605000D01*
X7547000Y-10495000D02*
X7437000Y-10605000D01*
X7492000Y-10495000D02*
X7492000Y-10605000D01*
X7437000Y-10550000D02*
X7547000Y-10550000D01*
X7453000Y-7845000D02*
X7563000Y-7955000D01*
X7563000Y-7845000D02*
X7453000Y-7955000D01*
X7508000Y-7845000D02*
X7508000Y-7955000D01*
X7453000Y-7900000D02*
X7563000Y-7900000D01*
X7536000Y-8414840D02*
X7646000Y-8524840D01*
X7646000Y-8414840D02*
X7536000Y-8524840D01*
X7591000Y-8414840D02*
X7591000Y-8524840D01*
X7536000Y-8469840D02*
X7646000Y-8469840D01*
X7536000Y-9938840D02*
X7646000Y-10048840D01*
X7646000Y-9938840D02*
X7536000Y-10048840D01*
X7591000Y-9938840D02*
X7591000Y-10048840D01*
X7536000Y-9993840D02*
X7646000Y-9993840D01*
X7691000Y-10495000D02*
X7801000Y-10605000D01*
X7801000Y-10495000D02*
X7691000Y-10605000D01*
X7746000Y-10495000D02*
X7746000Y-10605000D01*
X7691000Y-10550000D02*
X7801000Y-10550000D01*
X7707000Y-7845000D02*
X7817000Y-7955000D01*
X7817000Y-7845000D02*
X7707000Y-7955000D01*
X7762000Y-7845000D02*
X7762000Y-7955000D01*
X7707000Y-7900000D02*
X7817000Y-7900000D01*
X7790000Y-8414840D02*
X7900000Y-8524840D01*
X7900000Y-8414840D02*
X7790000Y-8524840D01*
X7845000Y-8414840D02*
X7845000Y-8524840D01*
X7790000Y-8469840D02*
X7900000Y-8469840D01*
X7790000Y-9938840D02*
X7900000Y-10048840D01*
X7900000Y-9938840D02*
X7790000Y-10048840D01*
X7845000Y-9938840D02*
X7845000Y-10048840D01*
X7790000Y-9993840D02*
X7900000Y-9993840D01*
X7945000Y-10495000D02*
X8055000Y-10605000D01*
X8055000Y-10495000D02*
X7945000Y-10605000D01*
X8000000Y-10495000D02*
X8000000Y-10605000D01*
X7945000Y-10550000D02*
X8055000Y-10550000D01*
X7961000Y-7845000D02*
X8071000Y-7955000D01*
X8071000Y-7845000D02*
X7961000Y-7955000D01*
X8016000Y-7845000D02*
X8016000Y-7955000D01*
X7961000Y-7900000D02*
X8071000Y-7900000D01*
X8044000Y-8414840D02*
X8154000Y-8524840D01*
X8154000Y-8414840D02*
X8044000Y-8524840D01*
X8099000Y-8414840D02*
X8099000Y-8524840D01*
X8044000Y-8469840D02*
X8154000Y-8469840D01*
X8044000Y-9938840D02*
X8154000Y-10048840D01*
X8154000Y-9938840D02*
X8044000Y-10048840D01*
X8099000Y-9938840D02*
X8099000Y-10048840D01*
X8044000Y-9993840D02*
X8154000Y-9993840D01*
X8298000Y-8414840D02*
X8408000Y-8524840D01*
X8408000Y-8414840D02*
X8298000Y-8524840D01*
X8353000Y-8414840D02*
X8353000Y-8524840D01*
X8298000Y-8469840D02*
X8408000Y-8469840D01*
X8298000Y-9938840D02*
X8408000Y-10048840D01*
X8408000Y-9938840D02*
X8298000Y-10048840D01*
X8353000Y-9938840D02*
X8353000Y-10048840D01*
X8298000Y-9993840D02*
X8408000Y-9993840D01*
X8352000Y-10495000D02*
X8462000Y-10605000D01*
X8462000Y-10495000D02*
X8352000Y-10605000D01*
X8407000Y-10495000D02*
X8407000Y-10605000D01*
X8352000Y-10550000D02*
X8462000Y-10550000D01*
X8363000Y-7845000D02*
X8473000Y-7955000D01*
X8473000Y-7845000D02*
X8363000Y-7955000D01*
X8418000Y-7845000D02*
X8418000Y-7955000D01*
X8363000Y-7900000D02*
X8473000Y-7900000D01*
X8552000Y-8414840D02*
X8662000Y-8524840D01*
X8662000Y-8414840D02*
X8552000Y-8524840D01*
X8607000Y-8414840D02*
X8607000Y-8524840D01*
X8552000Y-8469840D02*
X8662000Y-8469840D01*
X8552000Y-9938840D02*
X8662000Y-10048840D01*
X8662000Y-9938840D02*
X8552000Y-10048840D01*
X8607000Y-9938840D02*
X8607000Y-10048840D01*
X8552000Y-9993840D02*
X8662000Y-9993840D01*
X8606000Y-10495000D02*
X8716000Y-10605000D01*
X8716000Y-10495000D02*
X8606000Y-10605000D01*
X8661000Y-10495000D02*
X8661000Y-10605000D01*
X8606000Y-10550000D02*
X8716000Y-10550000D01*
X8617000Y-7845000D02*
X8727000Y-7955000D01*
X8727000Y-7845000D02*
X8617000Y-7955000D01*
X8672000Y-7845000D02*
X8672000Y-7955000D01*
X8617000Y-7900000D02*
X8727000Y-7900000D01*
X8806000Y-8414840D02*
X8916000Y-8524840D01*
X8916000Y-8414840D02*
X8806000Y-8524840D01*
X8861000Y-8414840D02*
X8861000Y-8524840D01*
X8806000Y-8469840D02*
X8916000Y-8469840D01*
X8806000Y-9938840D02*
X8916000Y-10048840D01*
X8916000Y-9938840D02*
X8806000Y-10048840D01*
X8861000Y-9938840D02*
X8861000Y-10048840D01*
X8806000Y-9993840D02*
X8916000Y-9993840D01*
X8860000Y-10495000D02*
X8970000Y-10605000D01*
X8970000Y-10495000D02*
X8860000Y-10605000D01*
X8915000Y-10495000D02*
X8915000Y-10605000D01*
X8860000Y-10550000D02*
X8970000Y-10550000D01*
X8871000Y-7845000D02*
X8981000Y-7955000D01*
X8981000Y-7845000D02*
X8871000Y-7955000D01*
X8926000Y-7845000D02*
X8926000Y-7955000D01*
X8871000Y-7900000D02*
X8981000Y-7900000D01*
X9060000Y-8414840D02*
X9170000Y-8524840D01*
X9170000Y-8414840D02*
X9060000Y-8524840D01*
X9115000Y-8414840D02*
X9115000Y-8524840D01*
X9060000Y-8469840D02*
X9170000Y-8469840D01*
X9060000Y-9938840D02*
X9170000Y-10048840D01*
X9170000Y-9938840D02*
X9060000Y-10048840D01*
X9115000Y-9938840D02*
X9115000Y-10048840D01*
X9060000Y-9993840D02*
X9170000Y-9993840D01*
X9114000Y-10495000D02*
X9224000Y-10605000D01*
X9224000Y-10495000D02*
X9114000Y-10605000D01*
X9169000Y-10495000D02*
X9169000Y-10605000D01*
X9114000Y-10550000D02*
X9224000Y-10550000D01*
X9125000Y-7845000D02*
X9235000Y-7955000D01*
X9235000Y-7845000D02*
X9125000Y-7955000D01*
X9180000Y-7845000D02*
X9180000Y-7955000D01*
X9125000Y-7900000D02*
X9235000Y-7900000D01*
X9314000Y-8414840D02*
X9424000Y-8524840D01*
X9424000Y-8414840D02*
X9314000Y-8524840D01*
X9369000Y-8414840D02*
X9369000Y-8524840D01*
X9314000Y-8469840D02*
X9424000Y-8469840D01*
X9314000Y-9938840D02*
X9424000Y-10048840D01*
X9424000Y-9938840D02*
X9314000Y-10048840D01*
X9369000Y-9938840D02*
X9369000Y-10048840D01*
X9314000Y-9993840D02*
X9424000Y-9993840D01*
X9368000Y-10495000D02*
X9478000Y-10605000D01*
X9478000Y-10495000D02*
X9368000Y-10605000D01*
X9423000Y-10495000D02*
X9423000Y-10605000D01*
X9368000Y-10550000D02*
X9478000Y-10550000D01*
X9379000Y-7845000D02*
X9489000Y-7955000D01*
X9489000Y-7845000D02*
X9379000Y-7955000D01*
X9434000Y-7845000D02*
X9434000Y-7955000D01*
X9379000Y-7900000D02*
X9489000Y-7900000D01*
X9568000Y-8414840D02*
X9678000Y-8524840D01*
X9678000Y-8414840D02*
X9568000Y-8524840D01*
X9623000Y-8414840D02*
X9623000Y-8524840D01*
X9568000Y-8469840D02*
X9678000Y-8469840D01*
X9568000Y-9938840D02*
X9678000Y-10048840D01*
X9678000Y-9938840D02*
X9568000Y-10048840D01*
X9623000Y-9938840D02*
X9623000Y-10048840D01*
X9568000Y-9993840D02*
X9678000Y-9993840D01*
X9622000Y-10495000D02*
X9732000Y-10605000D01*
X9732000Y-10495000D02*
X9622000Y-10605000D01*
X9677000Y-10495000D02*
X9677000Y-10605000D01*
X9622000Y-10550000D02*
X9732000Y-10550000D01*
X9633000Y-7845000D02*
X9743000Y-7955000D01*
X9743000Y-7845000D02*
X9633000Y-7955000D01*
X9688000Y-7845000D02*
X9688000Y-7955000D01*
X9633000Y-7900000D02*
X9743000Y-7900000D01*
X9822000Y-8414840D02*
X9932000Y-8524840D01*
X9932000Y-8414840D02*
X9822000Y-8524840D01*
X9877000Y-8414840D02*
X9877000Y-8524840D01*
X9822000Y-8469840D02*
X9932000Y-8469840D01*
X9822000Y-9938840D02*
X9932000Y-10048840D01*
X9932000Y-9938840D02*
X9822000Y-10048840D01*
X9877000Y-9938840D02*
X9877000Y-10048840D01*
X9822000Y-9993840D02*
X9932000Y-9993840D01*
X9876000Y-10495000D02*
X9986000Y-10605000D01*
X9986000Y-10495000D02*
X9876000Y-10605000D01*
X9931000Y-10495000D02*
X9931000Y-10605000D01*
X9876000Y-10550000D02*
X9986000Y-10550000D01*
X9887000Y-7845000D02*
X9997000Y-7955000D01*
X9997000Y-7845000D02*
X9887000Y-7955000D01*
X9942000Y-7845000D02*
X9942000Y-7955000D01*
X9887000Y-7900000D02*
X9997000Y-7900000D01*
X10076000Y-8414840D02*
X10186000Y-8524840D01*
X10186000Y-8414840D02*
X10076000Y-8524840D01*
X10131000Y-8414840D02*
X10131000Y-8524840D01*
X10076000Y-8469840D02*
X10186000Y-8469840D01*
X10076000Y-9938840D02*
X10186000Y-10048840D01*
X10186000Y-9938840D02*
X10076000Y-10048840D01*
X10131000Y-9938840D02*
X10131000Y-10048840D01*
X10076000Y-9993840D02*
X10186000Y-9993840D01*
X10130000Y-10495000D02*
X10240000Y-10605000D01*
X10240000Y-10495000D02*
X10130000Y-10605000D01*
X10185000Y-10495000D02*
X10185000Y-10605000D01*
X10130000Y-10550000D02*
X10240000Y-10550000D01*
X10141000Y-7845000D02*
X10251000Y-7955000D01*
X10251000Y-7845000D02*
X10141000Y-7955000D01*
X10196000Y-7845000D02*
X10196000Y-7955000D01*
X10141000Y-7900000D02*
X10251000Y-7900000D01*
X10330000Y-8414840D02*
X10440000Y-8524840D01*
X10440000Y-8414840D02*
X10330000Y-8524840D01*
X10385000Y-8414840D02*
X10385000Y-8524840D01*
X10330000Y-8469840D02*
X10440000Y-8469840D01*
X10330000Y-9938840D02*
X10440000Y-10048840D01*
X10440000Y-9938840D02*
X10330000Y-10048840D01*
X10385000Y-9938840D02*
X10385000Y-10048840D01*
X10330000Y-9993840D02*
X10440000Y-9993840D01*
X10384000Y-10495000D02*
X10494000Y-10605000D01*
X10494000Y-10495000D02*
X10384000Y-10605000D01*
X10439000Y-10495000D02*
X10439000Y-10605000D01*
X10384000Y-10550000D02*
X10494000Y-10550000D01*
X10395000Y-7845000D02*
X10505000Y-7955000D01*
X10505000Y-7845000D02*
X10395000Y-7955000D01*
X10450000Y-7845000D02*
X10450000Y-7955000D01*
X10395000Y-7900000D02*
X10505000Y-7900000D01*
X10584000Y-8414840D02*
X10694000Y-8524840D01*
X10694000Y-8414840D02*
X10584000Y-8524840D01*
X10639000Y-8414840D02*
X10639000Y-8524840D01*
X10584000Y-8469840D02*
X10694000Y-8469840D01*
X10584000Y-9938840D02*
X10694000Y-10048840D01*
X10694000Y-9938840D02*
X10584000Y-10048840D01*
X10639000Y-9938840D02*
X10639000Y-10048840D01*
X10584000Y-9993840D02*
X10694000Y-9993840D01*
X10638000Y-10495000D02*
X10748000Y-10605000D01*
X10748000Y-10495000D02*
X10638000Y-10605000D01*
X10693000Y-10495000D02*
X10693000Y-10605000D01*
X10638000Y-10550000D02*
X10748000Y-10550000D01*
X10649000Y-7845000D02*
X10759000Y-7955000D01*
X10759000Y-7845000D02*
X10649000Y-7955000D01*
X10704000Y-7845000D02*
X10704000Y-7955000D01*
X10649000Y-7900000D02*
X10759000Y-7900000D01*
X10838000Y-8414840D02*
X10948000Y-8524840D01*
X10948000Y-8414840D02*
X10838000Y-8524840D01*
X10893000Y-8414840D02*
X10893000Y-8524840D01*
X10838000Y-8469840D02*
X10948000Y-8469840D01*
X10838000Y-9938840D02*
X10948000Y-10048840D01*
X10948000Y-9938840D02*
X10838000Y-10048840D01*
X10893000Y-9938840D02*
X10893000Y-10048840D01*
X10838000Y-9993840D02*
X10948000Y-9993840D01*
X10892000Y-10495000D02*
X11002000Y-10605000D01*
X11002000Y-10495000D02*
X10892000Y-10605000D01*
X10947000Y-10495000D02*
X10947000Y-10605000D01*
X10892000Y-10550000D02*
X11002000Y-10550000D01*
X10903000Y-7845000D02*
X11013000Y-7955000D01*
X11013000Y-7845000D02*
X10903000Y-7955000D01*
X10958000Y-7845000D02*
X10958000Y-7955000D01*
X10903000Y-7900000D02*
X11013000Y-7900000D01*
X11092000Y-8414840D02*
X11202000Y-8524840D01*
X11202000Y-8414840D02*
X11092000Y-8524840D01*
X11147000Y-8414840D02*
X11147000Y-8524840D01*
X11092000Y-8469840D02*
X11202000Y-8469840D01*
X11092000Y-9938840D02*
X11202000Y-10048840D01*
X11202000Y-9938840D02*
X11092000Y-10048840D01*
X11147000Y-9938840D02*
X11147000Y-10048840D01*
X11092000Y-9993840D02*
X11202000Y-9993840D01*
X11146000Y-10495000D02*
X11256000Y-10605000D01*
X11256000Y-10495000D02*
X11146000Y-10605000D01*
X11201000Y-10495000D02*
X11201000Y-10605000D01*
X11146000Y-10550000D02*
X11256000Y-10550000D01*
X11157000Y-7845000D02*
X11267000Y-7955000D01*
X11267000Y-7845000D02*
X11157000Y-7955000D01*
X11212000Y-7845000D02*
X11212000Y-7955000D01*
X11157000Y-7900000D02*
X11267000Y-7900000D01*
D14*
X4181500Y-5767750D02*
X4311500Y-5897750D01*
X4311500Y-5767750D02*
X4181500Y-5897750D01*
X4292462Y-5878712D02*
X4292462Y-5786788D01*
X4200538Y-5786788D01*
X4200538Y-5878712D01*
X4292462Y-5878712D01*
X4689500Y-5767750D02*
X4819500Y-5897750D01*
X4819500Y-5767750D02*
X4689500Y-5897750D01*
X4800462Y-5878712D02*
X4800462Y-5786788D01*
X4708538Y-5786788D01*
X4708538Y-5878712D01*
X4800462Y-5878712D01*
X11509250Y-14824627D02*
X11639250Y-14954627D01*
X11639250Y-14824627D02*
X11509250Y-14954627D01*
X11620212Y-14935589D02*
X11620212Y-14843665D01*
X11528288Y-14843665D01*
X11528288Y-14935589D01*
X11620212Y-14935589D01*
X11509250Y-15332627D02*
X11639250Y-15462627D01*
X11639250Y-15332627D02*
X11509250Y-15462627D01*
X11620212Y-15443589D02*
X11620212Y-15351665D01*
X11528288Y-15351665D01*
X11528288Y-15443589D01*
X11620212Y-15443589D01*
D15*
X1504575Y-665000D02*
X1674575Y-835000D01*
X1674575Y-665000D02*
X1504575Y-835000D01*
X1589575Y-835000D02*
X1674575Y-750000D01*
X1589575Y-665000D01*
X1504575Y-750000D01*
X1589575Y-835000D01*
X1504575Y-1165000D02*
X1674575Y-1335000D01*
X1674575Y-1165000D02*
X1504575Y-1335000D01*
X1589575Y-1335000D02*
X1674575Y-1250000D01*
X1589575Y-1165000D01*
X1504575Y-1250000D01*
X1589575Y-1335000D01*
X1504575Y-2215000D02*
X1674575Y-2385000D01*
X1674575Y-2215000D02*
X1504575Y-2385000D01*
X1589575Y-2385000D02*
X1674575Y-2300000D01*
X1589575Y-2215000D01*
X1504575Y-2300000D01*
X1589575Y-2385000D01*
X1504575Y-2715000D02*
X1674575Y-2885000D01*
X1674575Y-2715000D02*
X1504575Y-2885000D01*
X1589575Y-2885000D02*
X1674575Y-2800000D01*
X1589575Y-2715000D01*
X1504575Y-2800000D01*
X1589575Y-2885000D01*
X1515000Y-3765000D02*
X1685000Y-3935000D01*
X1685000Y-3765000D02*
X1515000Y-3935000D01*
X1600000Y-3935000D02*
X1685000Y-3850000D01*
X1600000Y-3765000D01*
X1515000Y-3850000D01*
X1600000Y-3935000D01*
X1515000Y-4265000D02*
X1685000Y-4435000D01*
X1685000Y-4265000D02*
X1515000Y-4435000D01*
X1600000Y-4435000D02*
X1685000Y-4350000D01*
X1600000Y-4265000D01*
X1515000Y-4350000D01*
X1600000Y-4435000D01*
X1515000Y-5315000D02*
X1685000Y-5485000D01*
X1685000Y-5315000D02*
X1515000Y-5485000D01*
X1600000Y-5485000D02*
X1685000Y-5400000D01*
X1600000Y-5315000D01*
X1515000Y-5400000D01*
X1600000Y-5485000D01*
X1515000Y-5815000D02*
X1685000Y-5985000D01*
X1685000Y-5815000D02*
X1515000Y-5985000D01*
X1600000Y-5985000D02*
X1685000Y-5900000D01*
X1600000Y-5815000D01*
X1515000Y-5900000D01*
X1600000Y-5985000D01*
X1515000Y-6865000D02*
X1685000Y-7035000D01*
X1685000Y-6865000D02*
X1515000Y-7035000D01*
X1600000Y-7035000D02*
X1685000Y-6950000D01*
X1600000Y-6865000D01*
X1515000Y-6950000D01*
X1600000Y-7035000D01*
X1515000Y-7365000D02*
X1685000Y-7535000D01*
X1685000Y-7365000D02*
X1515000Y-7535000D01*
X1600000Y-7535000D02*
X1685000Y-7450000D01*
X1600000Y-7365000D01*
X1515000Y-7450000D01*
X1600000Y-7535000D01*
X1515000Y-10815000D02*
X1685000Y-10985000D01*
X1685000Y-10815000D02*
X1515000Y-10985000D01*
X1600000Y-10985000D02*
X1685000Y-10900000D01*
X1600000Y-10815000D01*
X1515000Y-10900000D01*
X1600000Y-10985000D01*
X1515000Y-11315000D02*
X1685000Y-11485000D01*
X1685000Y-11315000D02*
X1515000Y-11485000D01*
X1600000Y-11485000D02*
X1685000Y-11400000D01*
X1600000Y-11315000D01*
X1515000Y-11400000D01*
X1600000Y-11485000D01*
X1515000Y-14415000D02*
X1685000Y-14585000D01*
X1685000Y-14415000D02*
X1515000Y-14585000D01*
X1600000Y-14585000D02*
X1685000Y-14500000D01*
X1600000Y-14415000D01*
X1515000Y-14500000D01*
X1600000Y-14585000D01*
X1515000Y-14915000D02*
X1685000Y-15085000D01*
X1685000Y-14915000D02*
X1515000Y-15085000D01*
X1600000Y-15085000D02*
X1685000Y-15000000D01*
X1600000Y-14915000D01*
X1515000Y-15000000D01*
X1600000Y-15085000D01*
X4850712Y-1567032D02*
X5020712Y-1737032D01*
X5020712Y-1567032D02*
X4850712Y-1737032D01*
X4935712Y-1737032D02*
X5020712Y-1652032D01*
X4935712Y-1567032D01*
X4850712Y-1652032D01*
X4935712Y-1737032D01*
X5350712Y-1567032D02*
X5520712Y-1737032D01*
X5520712Y-1567032D02*
X5350712Y-1737032D01*
X5435712Y-1737032D02*
X5520712Y-1652032D01*
X5435712Y-1567032D01*
X5350712Y-1652032D01*
X5435712Y-1737032D01*
X6250712Y-1567032D02*
X6420712Y-1737032D01*
X6420712Y-1567032D02*
X6250712Y-1737032D01*
X6335712Y-1737032D02*
X6420712Y-1652032D01*
X6335712Y-1567032D01*
X6250712Y-1652032D01*
X6335712Y-1737032D01*
X6750712Y-1567032D02*
X6920712Y-1737032D01*
X6920712Y-1567032D02*
X6750712Y-1737032D01*
X6835712Y-1737032D02*
X6920712Y-1652032D01*
X6835712Y-1567032D01*
X6750712Y-1652032D01*
X6835712Y-1737032D01*
D16*
X2634263Y-8427119D02*
X2634263Y-8807119D01*
X2444263Y-8617119D02*
X2824263Y-8617119D01*
X2824263Y-8617119D02*
G75*
G02*
X2444263Y-8617119I-190000J0D01*
G01*
X2444263Y-8617119D02*
G75*
G02*
X2824263Y-8617119I190000J0D01*
G01*
X2634263Y-9517119D02*
X2634263Y-9897119D01*
X2444263Y-9707119D02*
X2824263Y-9707119D01*
X2824263Y-9707119D02*
G75*
G02*
X2444263Y-9707119I-190000J0D01*
G01*
X2444263Y-9707119D02*
G75*
G02*
X2824263Y-9707119I190000J0D01*
G01*
D11*
X332277Y-16063984D02*
X332277Y-15863984D01*
X332277Y-15863984D02*
X379896Y-15863984D01*
X379896Y-15863984D02*
X408467Y-15873508D01*
X408467Y-15873508D02*
X427515Y-15892555D01*
X427515Y-15892555D02*
X437039Y-15911603D01*
X437039Y-15911603D02*
X446562Y-15949698D01*
X446562Y-15949698D02*
X446562Y-15978269D01*
X446562Y-15978269D02*
X437039Y-16016365D01*
X437039Y-16016365D02*
X427515Y-16035412D01*
X427515Y-16035412D02*
X408467Y-16054460D01*
X408467Y-16054460D02*
X379896Y-16063984D01*
X379896Y-16063984D02*
X332277Y-16063984D01*
X532277Y-16063984D02*
X532277Y-15930650D01*
X532277Y-15968746D02*
X541801Y-15949698D01*
X541801Y-15949698D02*
X551324Y-15940174D01*
X551324Y-15940174D02*
X570372Y-15930650D01*
X570372Y-15930650D02*
X589420Y-15930650D01*
X656086Y-16063984D02*
X656086Y-15930650D01*
X656086Y-15863984D02*
X646563Y-15873508D01*
X646563Y-15873508D02*
X656086Y-15883031D01*
X656086Y-15883031D02*
X665610Y-15873508D01*
X665610Y-15873508D02*
X656086Y-15863984D01*
X656086Y-15863984D02*
X656086Y-15883031D01*
X779896Y-16063984D02*
X760848Y-16054460D01*
X760848Y-16054460D02*
X751324Y-16035412D01*
X751324Y-16035412D02*
X751324Y-15863984D01*
X884658Y-16063984D02*
X865610Y-16054460D01*
X865610Y-16054460D02*
X856086Y-16035412D01*
X856086Y-16035412D02*
X856086Y-15863984D01*
X1113229Y-16063984D02*
X1113229Y-15863984D01*
X1113229Y-15863984D02*
X1179896Y-16006841D01*
X1179896Y-16006841D02*
X1246563Y-15863984D01*
X1246563Y-15863984D02*
X1246563Y-16063984D01*
X1427515Y-16063984D02*
X1427515Y-15959222D01*
X1427515Y-15959222D02*
X1417991Y-15940174D01*
X1417991Y-15940174D02*
X1398943Y-15930650D01*
X1398943Y-15930650D02*
X1360848Y-15930650D01*
X1360848Y-15930650D02*
X1341801Y-15940174D01*
X1427515Y-16054460D02*
X1408467Y-16063984D01*
X1408467Y-16063984D02*
X1360848Y-16063984D01*
X1360848Y-16063984D02*
X1341801Y-16054460D01*
X1341801Y-16054460D02*
X1332277Y-16035412D01*
X1332277Y-16035412D02*
X1332277Y-16016365D01*
X1332277Y-16016365D02*
X1341801Y-15997317D01*
X1341801Y-15997317D02*
X1360848Y-15987793D01*
X1360848Y-15987793D02*
X1408467Y-15987793D01*
X1408467Y-15987793D02*
X1427515Y-15978269D01*
X1522753Y-15930650D02*
X1522753Y-16130650D01*
X1522753Y-15940174D02*
X1541801Y-15930650D01*
X1541801Y-15930650D02*
X1579896Y-15930650D01*
X1579896Y-15930650D02*
X1598943Y-15940174D01*
X1598943Y-15940174D02*
X1608467Y-15949698D01*
X1608467Y-15949698D02*
X1617991Y-15968746D01*
X1617991Y-15968746D02*
X1617991Y-16025888D01*
X1617991Y-16025888D02*
X1608467Y-16044936D01*
X1608467Y-16044936D02*
X1598943Y-16054460D01*
X1598943Y-16054460D02*
X1579896Y-16063984D01*
X1579896Y-16063984D02*
X1541801Y-16063984D01*
X1541801Y-16063984D02*
X1522753Y-16054460D01*
X1703705Y-16044936D02*
X1713229Y-16054460D01*
X1713229Y-16054460D02*
X1703705Y-16063984D01*
X1703705Y-16063984D02*
X1694182Y-16054460D01*
X1694182Y-16054460D02*
X1703705Y-16044936D01*
X1703705Y-16044936D02*
X1703705Y-16063984D01*
X1703705Y-15940174D02*
X1713229Y-15949698D01*
X1713229Y-15949698D02*
X1703705Y-15959222D01*
X1703705Y-15959222D02*
X1694182Y-15949698D01*
X1694182Y-15949698D02*
X1703705Y-15940174D01*
X1703705Y-15940174D02*
X1703705Y-15959222D01*
D12*
X31500Y-16372500D02*
X71500Y-16412500D01*
X71500Y-16372500D02*
X31500Y-16412500D01*
D11*
X370372Y-16283984D02*
X389420Y-16283984D01*
X389420Y-16283984D02*
X408467Y-16293508D01*
X408467Y-16293508D02*
X417991Y-16303031D01*
X417991Y-16303031D02*
X427515Y-16322079D01*
X427515Y-16322079D02*
X437039Y-16360174D01*
X437039Y-16360174D02*
X437039Y-16407793D01*
X437039Y-16407793D02*
X427515Y-16445888D01*
X427515Y-16445888D02*
X417991Y-16464936D01*
X417991Y-16464936D02*
X408467Y-16474460D01*
X408467Y-16474460D02*
X389420Y-16483984D01*
X389420Y-16483984D02*
X370372Y-16483984D01*
X370372Y-16483984D02*
X351324Y-16474460D01*
X351324Y-16474460D02*
X341801Y-16464936D01*
X341801Y-16464936D02*
X332277Y-16445888D01*
X332277Y-16445888D02*
X322753Y-16407793D01*
X322753Y-16407793D02*
X322753Y-16360174D01*
X322753Y-16360174D02*
X332277Y-16322079D01*
X332277Y-16322079D02*
X341801Y-16303031D01*
X341801Y-16303031D02*
X351324Y-16293508D01*
X351324Y-16293508D02*
X370372Y-16283984D01*
X522753Y-16464936D02*
X532277Y-16474460D01*
X532277Y-16474460D02*
X522753Y-16483984D01*
X522753Y-16483984D02*
X513229Y-16474460D01*
X513229Y-16474460D02*
X522753Y-16464936D01*
X522753Y-16464936D02*
X522753Y-16483984D01*
X703705Y-16350650D02*
X703705Y-16483984D01*
X656086Y-16274460D02*
X608467Y-16417317D01*
X608467Y-16417317D02*
X732277Y-16417317D01*
X846562Y-16283984D02*
X865610Y-16283984D01*
X865610Y-16283984D02*
X884658Y-16293508D01*
X884658Y-16293508D02*
X894182Y-16303031D01*
X894182Y-16303031D02*
X903705Y-16322079D01*
X903705Y-16322079D02*
X913229Y-16360174D01*
X913229Y-16360174D02*
X913229Y-16407793D01*
X913229Y-16407793D02*
X903705Y-16445888D01*
X903705Y-16445888D02*
X894182Y-16464936D01*
X894182Y-16464936D02*
X884658Y-16474460D01*
X884658Y-16474460D02*
X865610Y-16483984D01*
X865610Y-16483984D02*
X846562Y-16483984D01*
X846562Y-16483984D02*
X827515Y-16474460D01*
X827515Y-16474460D02*
X817991Y-16464936D01*
X817991Y-16464936D02*
X808467Y-16445888D01*
X808467Y-16445888D02*
X798943Y-16407793D01*
X798943Y-16407793D02*
X798943Y-16360174D01*
X798943Y-16360174D02*
X808467Y-16322079D01*
X808467Y-16322079D02*
X817991Y-16303031D01*
X817991Y-16303031D02*
X827515Y-16293508D01*
X827515Y-16293508D02*
X846562Y-16283984D01*
X1037039Y-16283984D02*
X1056086Y-16283984D01*
X1056086Y-16283984D02*
X1075134Y-16293508D01*
X1075134Y-16293508D02*
X1084658Y-16303031D01*
X1084658Y-16303031D02*
X1094182Y-16322079D01*
X1094182Y-16322079D02*
X1103705Y-16360174D01*
X1103705Y-16360174D02*
X1103705Y-16407793D01*
X1103705Y-16407793D02*
X1094182Y-16445888D01*
X1094182Y-16445888D02*
X1084658Y-16464936D01*
X1084658Y-16464936D02*
X1075134Y-16474460D01*
X1075134Y-16474460D02*
X1056086Y-16483984D01*
X1056086Y-16483984D02*
X1037039Y-16483984D01*
X1037039Y-16483984D02*
X1017991Y-16474460D01*
X1017991Y-16474460D02*
X1008467Y-16464936D01*
X1008467Y-16464936D02*
X998943Y-16445888D01*
X998943Y-16445888D02*
X989420Y-16407793D01*
X989420Y-16407793D02*
X989420Y-16360174D01*
X989420Y-16360174D02*
X998943Y-16322079D01*
X998943Y-16322079D02*
X1008467Y-16303031D01*
X1008467Y-16303031D02*
X1017991Y-16293508D01*
X1017991Y-16293508D02*
X1037039Y-16283984D01*
X1189420Y-16483984D02*
X1189420Y-16350650D01*
X1189420Y-16369698D02*
X1198944Y-16360174D01*
X1198944Y-16360174D02*
X1217991Y-16350650D01*
X1217991Y-16350650D02*
X1246563Y-16350650D01*
X1246563Y-16350650D02*
X1265610Y-16360174D01*
X1265610Y-16360174D02*
X1275134Y-16379222D01*
X1275134Y-16379222D02*
X1275134Y-16483984D01*
X1275134Y-16379222D02*
X1284658Y-16360174D01*
X1284658Y-16360174D02*
X1303705Y-16350650D01*
X1303705Y-16350650D02*
X1332277Y-16350650D01*
X1332277Y-16350650D02*
X1351325Y-16360174D01*
X1351325Y-16360174D02*
X1360848Y-16379222D01*
X1360848Y-16379222D02*
X1360848Y-16483984D01*
X1456086Y-16483984D02*
X1456086Y-16350650D01*
X1456086Y-16369698D02*
X1465610Y-16360174D01*
X1465610Y-16360174D02*
X1484658Y-16350650D01*
X1484658Y-16350650D02*
X1513229Y-16350650D01*
X1513229Y-16350650D02*
X1532277Y-16360174D01*
X1532277Y-16360174D02*
X1541801Y-16379222D01*
X1541801Y-16379222D02*
X1541801Y-16483984D01*
X1541801Y-16379222D02*
X1551324Y-16360174D01*
X1551324Y-16360174D02*
X1570372Y-16350650D01*
X1570372Y-16350650D02*
X1598943Y-16350650D01*
X1598943Y-16350650D02*
X1617991Y-16360174D01*
X1617991Y-16360174D02*
X1627515Y-16379222D01*
X1627515Y-16379222D02*
X1627515Y-16483984D01*
X2017991Y-16274460D02*
X1846563Y-16531603D01*
X2275134Y-16283984D02*
X2294182Y-16283984D01*
X2294182Y-16283984D02*
X2313229Y-16293508D01*
X2313229Y-16293508D02*
X2322753Y-16303031D01*
X2322753Y-16303031D02*
X2332277Y-16322079D01*
X2332277Y-16322079D02*
X2341801Y-16360174D01*
X2341801Y-16360174D02*
X2341801Y-16407793D01*
X2341801Y-16407793D02*
X2332277Y-16445888D01*
X2332277Y-16445888D02*
X2322753Y-16464936D01*
X2322753Y-16464936D02*
X2313229Y-16474460D01*
X2313229Y-16474460D02*
X2294182Y-16483984D01*
X2294182Y-16483984D02*
X2275134Y-16483984D01*
X2275134Y-16483984D02*
X2256087Y-16474460D01*
X2256087Y-16474460D02*
X2246563Y-16464936D01*
X2246563Y-16464936D02*
X2237039Y-16445888D01*
X2237039Y-16445888D02*
X2227515Y-16407793D01*
X2227515Y-16407793D02*
X2227515Y-16360174D01*
X2227515Y-16360174D02*
X2237039Y-16322079D01*
X2237039Y-16322079D02*
X2246563Y-16303031D01*
X2246563Y-16303031D02*
X2256087Y-16293508D01*
X2256087Y-16293508D02*
X2275134Y-16283984D01*
X2427515Y-16464936D02*
X2437039Y-16474460D01*
X2437039Y-16474460D02*
X2427515Y-16483984D01*
X2427515Y-16483984D02*
X2417991Y-16474460D01*
X2417991Y-16474460D02*
X2427515Y-16464936D01*
X2427515Y-16464936D02*
X2427515Y-16483984D01*
X2560848Y-16283984D02*
X2579896Y-16283984D01*
X2579896Y-16283984D02*
X2598944Y-16293508D01*
X2598944Y-16293508D02*
X2608468Y-16303031D01*
X2608468Y-16303031D02*
X2617991Y-16322079D01*
X2617991Y-16322079D02*
X2627515Y-16360174D01*
X2627515Y-16360174D02*
X2627515Y-16407793D01*
X2627515Y-16407793D02*
X2617991Y-16445888D01*
X2617991Y-16445888D02*
X2608468Y-16464936D01*
X2608468Y-16464936D02*
X2598944Y-16474460D01*
X2598944Y-16474460D02*
X2579896Y-16483984D01*
X2579896Y-16483984D02*
X2560848Y-16483984D01*
X2560848Y-16483984D02*
X2541801Y-16474460D01*
X2541801Y-16474460D02*
X2532277Y-16464936D01*
X2532277Y-16464936D02*
X2522753Y-16445888D01*
X2522753Y-16445888D02*
X2513229Y-16407793D01*
X2513229Y-16407793D02*
X2513229Y-16360174D01*
X2513229Y-16360174D02*
X2522753Y-16322079D01*
X2522753Y-16322079D02*
X2532277Y-16303031D01*
X2532277Y-16303031D02*
X2541801Y-16293508D01*
X2541801Y-16293508D02*
X2560848Y-16283984D01*
X2817991Y-16483984D02*
X2703706Y-16483984D01*
X2760848Y-16483984D02*
X2760848Y-16283984D01*
X2760848Y-16283984D02*
X2741801Y-16312555D01*
X2741801Y-16312555D02*
X2722753Y-16331603D01*
X2722753Y-16331603D02*
X2703706Y-16341127D01*
X2998944Y-16283984D02*
X2903706Y-16283984D01*
X2903706Y-16283984D02*
X2894182Y-16379222D01*
X2894182Y-16379222D02*
X2903706Y-16369698D01*
X2903706Y-16369698D02*
X2922753Y-16360174D01*
X2922753Y-16360174D02*
X2970372Y-16360174D01*
X2970372Y-16360174D02*
X2989420Y-16369698D01*
X2989420Y-16369698D02*
X2998944Y-16379222D01*
X2998944Y-16379222D02*
X3008467Y-16398269D01*
X3008467Y-16398269D02*
X3008467Y-16445888D01*
X3008467Y-16445888D02*
X2998944Y-16464936D01*
X2998944Y-16464936D02*
X2989420Y-16474460D01*
X2989420Y-16474460D02*
X2970372Y-16483984D01*
X2970372Y-16483984D02*
X2922753Y-16483984D01*
X2922753Y-16483984D02*
X2903706Y-16474460D01*
X2903706Y-16474460D02*
X2894182Y-16464936D01*
X3075134Y-16283984D02*
X3208467Y-16283984D01*
X3208467Y-16283984D02*
X3122753Y-16483984D01*
X3275134Y-16283984D02*
X3275134Y-16322079D01*
X3351325Y-16283984D02*
X3351325Y-16322079D01*
X3646563Y-16560174D02*
X3637039Y-16550650D01*
X3637039Y-16550650D02*
X3617991Y-16522079D01*
X3617991Y-16522079D02*
X3608468Y-16503031D01*
X3608468Y-16503031D02*
X3598944Y-16474460D01*
X3598944Y-16474460D02*
X3589420Y-16426841D01*
X3589420Y-16426841D02*
X3589420Y-16388746D01*
X3589420Y-16388746D02*
X3598944Y-16341127D01*
X3598944Y-16341127D02*
X3608468Y-16312555D01*
X3608468Y-16312555D02*
X3617991Y-16293508D01*
X3617991Y-16293508D02*
X3637039Y-16264936D01*
X3637039Y-16264936D02*
X3646563Y-16255412D01*
X3713229Y-16303031D02*
X3722753Y-16293508D01*
X3722753Y-16293508D02*
X3741801Y-16283984D01*
X3741801Y-16283984D02*
X3789420Y-16283984D01*
X3789420Y-16283984D02*
X3808468Y-16293508D01*
X3808468Y-16293508D02*
X3817991Y-16303031D01*
X3817991Y-16303031D02*
X3827515Y-16322079D01*
X3827515Y-16322079D02*
X3827515Y-16341127D01*
X3827515Y-16341127D02*
X3817991Y-16369698D01*
X3817991Y-16369698D02*
X3703706Y-16483984D01*
X3703706Y-16483984D02*
X3827515Y-16483984D01*
X4017991Y-16483984D02*
X3903706Y-16483984D01*
X3960848Y-16483984D02*
X3960848Y-16283984D01*
X3960848Y-16283984D02*
X3941801Y-16312555D01*
X3941801Y-16312555D02*
X3922753Y-16331603D01*
X3922753Y-16331603D02*
X3903706Y-16341127D01*
X4084658Y-16283984D02*
X4217991Y-16283984D01*
X4217991Y-16283984D02*
X4132277Y-16483984D01*
X4446563Y-16483984D02*
X4446563Y-16283984D01*
X4532277Y-16483984D02*
X4532277Y-16379222D01*
X4532277Y-16379222D02*
X4522753Y-16360174D01*
X4522753Y-16360174D02*
X4503706Y-16350650D01*
X4503706Y-16350650D02*
X4475134Y-16350650D01*
X4475134Y-16350650D02*
X4456087Y-16360174D01*
X4456087Y-16360174D02*
X4446563Y-16369698D01*
X4656087Y-16483984D02*
X4637039Y-16474460D01*
X4637039Y-16474460D02*
X4627515Y-16464936D01*
X4627515Y-16464936D02*
X4617992Y-16445888D01*
X4617992Y-16445888D02*
X4617992Y-16388746D01*
X4617992Y-16388746D02*
X4627515Y-16369698D01*
X4627515Y-16369698D02*
X4637039Y-16360174D01*
X4637039Y-16360174D02*
X4656087Y-16350650D01*
X4656087Y-16350650D02*
X4684658Y-16350650D01*
X4684658Y-16350650D02*
X4703706Y-16360174D01*
X4703706Y-16360174D02*
X4713230Y-16369698D01*
X4713230Y-16369698D02*
X4722753Y-16388746D01*
X4722753Y-16388746D02*
X4722753Y-16445888D01*
X4722753Y-16445888D02*
X4713230Y-16464936D01*
X4713230Y-16464936D02*
X4703706Y-16474460D01*
X4703706Y-16474460D02*
X4684658Y-16483984D01*
X4684658Y-16483984D02*
X4656087Y-16483984D01*
X4837039Y-16483984D02*
X4817992Y-16474460D01*
X4817992Y-16474460D02*
X4808468Y-16455412D01*
X4808468Y-16455412D02*
X4808468Y-16283984D01*
X4989420Y-16474460D02*
X4970373Y-16483984D01*
X4970373Y-16483984D02*
X4932277Y-16483984D01*
X4932277Y-16483984D02*
X4913230Y-16474460D01*
X4913230Y-16474460D02*
X4903706Y-16455412D01*
X4903706Y-16455412D02*
X4903706Y-16379222D01*
X4903706Y-16379222D02*
X4913230Y-16360174D01*
X4913230Y-16360174D02*
X4932277Y-16350650D01*
X4932277Y-16350650D02*
X4970373Y-16350650D01*
X4970373Y-16350650D02*
X4989420Y-16360174D01*
X4989420Y-16360174D02*
X4998944Y-16379222D01*
X4998944Y-16379222D02*
X4998944Y-16398269D01*
X4998944Y-16398269D02*
X4903706Y-16417317D01*
X5075134Y-16474460D02*
X5094182Y-16483984D01*
X5094182Y-16483984D02*
X5132277Y-16483984D01*
X5132277Y-16483984D02*
X5151325Y-16474460D01*
X5151325Y-16474460D02*
X5160849Y-16455412D01*
X5160849Y-16455412D02*
X5160849Y-16445888D01*
X5160849Y-16445888D02*
X5151325Y-16426841D01*
X5151325Y-16426841D02*
X5132277Y-16417317D01*
X5132277Y-16417317D02*
X5103706Y-16417317D01*
X5103706Y-16417317D02*
X5084658Y-16407793D01*
X5084658Y-16407793D02*
X5075134Y-16388746D01*
X5075134Y-16388746D02*
X5075134Y-16379222D01*
X5075134Y-16379222D02*
X5084658Y-16360174D01*
X5084658Y-16360174D02*
X5103706Y-16350650D01*
X5103706Y-16350650D02*
X5132277Y-16350650D01*
X5132277Y-16350650D02*
X5151325Y-16360174D01*
X5227515Y-16560174D02*
X5237039Y-16550650D01*
X5237039Y-16550650D02*
X5256087Y-16522079D01*
X5256087Y-16522079D02*
X5265611Y-16503031D01*
X5265611Y-16503031D02*
X5275134Y-16474460D01*
X5275134Y-16474460D02*
X5284658Y-16426841D01*
X5284658Y-16426841D02*
X5284658Y-16388746D01*
X5284658Y-16388746D02*
X5275134Y-16341127D01*
X5275134Y-16341127D02*
X5265611Y-16312555D01*
X5265611Y-16312555D02*
X5256087Y-16293508D01*
X5256087Y-16293508D02*
X5237039Y-16264936D01*
X5237039Y-16264936D02*
X5227515Y-16255412D01*
D12*
X71500Y-16656500D02*
G75*
G02*
X11500Y-16656500I-30000J0D01*
G01*
X11500Y-16656500D02*
G75*
G02*
X71500Y-16656500I30000J0D01*
G01*
D11*
X370372Y-16547984D02*
X389420Y-16547984D01*
X389420Y-16547984D02*
X408467Y-16557508D01*
X408467Y-16557508D02*
X417991Y-16567031D01*
X417991Y-16567031D02*
X427515Y-16586079D01*
X427515Y-16586079D02*
X437039Y-16624174D01*
X437039Y-16624174D02*
X437039Y-16671793D01*
X437039Y-16671793D02*
X427515Y-16709888D01*
X427515Y-16709888D02*
X417991Y-16728936D01*
X417991Y-16728936D02*
X408467Y-16738460D01*
X408467Y-16738460D02*
X389420Y-16747984D01*
X389420Y-16747984D02*
X370372Y-16747984D01*
X370372Y-16747984D02*
X351324Y-16738460D01*
X351324Y-16738460D02*
X341801Y-16728936D01*
X341801Y-16728936D02*
X332277Y-16709888D01*
X332277Y-16709888D02*
X322753Y-16671793D01*
X322753Y-16671793D02*
X322753Y-16624174D01*
X322753Y-16624174D02*
X332277Y-16586079D01*
X332277Y-16586079D02*
X341801Y-16567031D01*
X341801Y-16567031D02*
X351324Y-16557508D01*
X351324Y-16557508D02*
X370372Y-16547984D01*
X522753Y-16728936D02*
X532277Y-16738460D01*
X532277Y-16738460D02*
X522753Y-16747984D01*
X522753Y-16747984D02*
X513229Y-16738460D01*
X513229Y-16738460D02*
X522753Y-16728936D01*
X522753Y-16728936D02*
X522753Y-16747984D01*
X703705Y-16547984D02*
X665610Y-16547984D01*
X665610Y-16547984D02*
X646563Y-16557508D01*
X646563Y-16557508D02*
X637039Y-16567031D01*
X637039Y-16567031D02*
X617991Y-16595603D01*
X617991Y-16595603D02*
X608467Y-16633698D01*
X608467Y-16633698D02*
X608467Y-16709888D01*
X608467Y-16709888D02*
X617991Y-16728936D01*
X617991Y-16728936D02*
X627515Y-16738460D01*
X627515Y-16738460D02*
X646563Y-16747984D01*
X646563Y-16747984D02*
X684658Y-16747984D01*
X684658Y-16747984D02*
X703705Y-16738460D01*
X703705Y-16738460D02*
X713229Y-16728936D01*
X713229Y-16728936D02*
X722753Y-16709888D01*
X722753Y-16709888D02*
X722753Y-16662269D01*
X722753Y-16662269D02*
X713229Y-16643222D01*
X713229Y-16643222D02*
X703705Y-16633698D01*
X703705Y-16633698D02*
X684658Y-16624174D01*
X684658Y-16624174D02*
X646563Y-16624174D01*
X646563Y-16624174D02*
X627515Y-16633698D01*
X627515Y-16633698D02*
X617991Y-16643222D01*
X617991Y-16643222D02*
X608467Y-16662269D01*
X846562Y-16547984D02*
X865610Y-16547984D01*
X865610Y-16547984D02*
X884658Y-16557508D01*
X884658Y-16557508D02*
X894182Y-16567031D01*
X894182Y-16567031D02*
X903705Y-16586079D01*
X903705Y-16586079D02*
X913229Y-16624174D01*
X913229Y-16624174D02*
X913229Y-16671793D01*
X913229Y-16671793D02*
X903705Y-16709888D01*
X903705Y-16709888D02*
X894182Y-16728936D01*
X894182Y-16728936D02*
X884658Y-16738460D01*
X884658Y-16738460D02*
X865610Y-16747984D01*
X865610Y-16747984D02*
X846562Y-16747984D01*
X846562Y-16747984D02*
X827515Y-16738460D01*
X827515Y-16738460D02*
X817991Y-16728936D01*
X817991Y-16728936D02*
X808467Y-16709888D01*
X808467Y-16709888D02*
X798943Y-16671793D01*
X798943Y-16671793D02*
X798943Y-16624174D01*
X798943Y-16624174D02*
X808467Y-16586079D01*
X808467Y-16586079D02*
X817991Y-16567031D01*
X817991Y-16567031D02*
X827515Y-16557508D01*
X827515Y-16557508D02*
X846562Y-16547984D01*
X1037039Y-16547984D02*
X1056086Y-16547984D01*
X1056086Y-16547984D02*
X1075134Y-16557508D01*
X1075134Y-16557508D02*
X1084658Y-16567031D01*
X1084658Y-16567031D02*
X1094182Y-16586079D01*
X1094182Y-16586079D02*
X1103705Y-16624174D01*
X1103705Y-16624174D02*
X1103705Y-16671793D01*
X1103705Y-16671793D02*
X1094182Y-16709888D01*
X1094182Y-16709888D02*
X1084658Y-16728936D01*
X1084658Y-16728936D02*
X1075134Y-16738460D01*
X1075134Y-16738460D02*
X1056086Y-16747984D01*
X1056086Y-16747984D02*
X1037039Y-16747984D01*
X1037039Y-16747984D02*
X1017991Y-16738460D01*
X1017991Y-16738460D02*
X1008467Y-16728936D01*
X1008467Y-16728936D02*
X998943Y-16709888D01*
X998943Y-16709888D02*
X989420Y-16671793D01*
X989420Y-16671793D02*
X989420Y-16624174D01*
X989420Y-16624174D02*
X998943Y-16586079D01*
X998943Y-16586079D02*
X1008467Y-16567031D01*
X1008467Y-16567031D02*
X1017991Y-16557508D01*
X1017991Y-16557508D02*
X1037039Y-16547984D01*
X1189420Y-16747984D02*
X1189420Y-16614650D01*
X1189420Y-16633698D02*
X1198944Y-16624174D01*
X1198944Y-16624174D02*
X1217991Y-16614650D01*
X1217991Y-16614650D02*
X1246563Y-16614650D01*
X1246563Y-16614650D02*
X1265610Y-16624174D01*
X1265610Y-16624174D02*
X1275134Y-16643222D01*
X1275134Y-16643222D02*
X1275134Y-16747984D01*
X1275134Y-16643222D02*
X1284658Y-16624174D01*
X1284658Y-16624174D02*
X1303705Y-16614650D01*
X1303705Y-16614650D02*
X1332277Y-16614650D01*
X1332277Y-16614650D02*
X1351325Y-16624174D01*
X1351325Y-16624174D02*
X1360848Y-16643222D01*
X1360848Y-16643222D02*
X1360848Y-16747984D01*
X1456086Y-16747984D02*
X1456086Y-16614650D01*
X1456086Y-16633698D02*
X1465610Y-16624174D01*
X1465610Y-16624174D02*
X1484658Y-16614650D01*
X1484658Y-16614650D02*
X1513229Y-16614650D01*
X1513229Y-16614650D02*
X1532277Y-16624174D01*
X1532277Y-16624174D02*
X1541801Y-16643222D01*
X1541801Y-16643222D02*
X1541801Y-16747984D01*
X1541801Y-16643222D02*
X1551324Y-16624174D01*
X1551324Y-16624174D02*
X1570372Y-16614650D01*
X1570372Y-16614650D02*
X1598943Y-16614650D01*
X1598943Y-16614650D02*
X1617991Y-16624174D01*
X1617991Y-16624174D02*
X1627515Y-16643222D01*
X1627515Y-16643222D02*
X1627515Y-16747984D01*
X2017991Y-16538460D02*
X1846563Y-16795603D01*
X2275134Y-16547984D02*
X2294182Y-16547984D01*
X2294182Y-16547984D02*
X2313229Y-16557508D01*
X2313229Y-16557508D02*
X2322753Y-16567031D01*
X2322753Y-16567031D02*
X2332277Y-16586079D01*
X2332277Y-16586079D02*
X2341801Y-16624174D01*
X2341801Y-16624174D02*
X2341801Y-16671793D01*
X2341801Y-16671793D02*
X2332277Y-16709888D01*
X2332277Y-16709888D02*
X2322753Y-16728936D01*
X2322753Y-16728936D02*
X2313229Y-16738460D01*
X2313229Y-16738460D02*
X2294182Y-16747984D01*
X2294182Y-16747984D02*
X2275134Y-16747984D01*
X2275134Y-16747984D02*
X2256087Y-16738460D01*
X2256087Y-16738460D02*
X2246563Y-16728936D01*
X2246563Y-16728936D02*
X2237039Y-16709888D01*
X2237039Y-16709888D02*
X2227515Y-16671793D01*
X2227515Y-16671793D02*
X2227515Y-16624174D01*
X2227515Y-16624174D02*
X2237039Y-16586079D01*
X2237039Y-16586079D02*
X2246563Y-16567031D01*
X2246563Y-16567031D02*
X2256087Y-16557508D01*
X2256087Y-16557508D02*
X2275134Y-16547984D01*
X2427515Y-16728936D02*
X2437039Y-16738460D01*
X2437039Y-16738460D02*
X2427515Y-16747984D01*
X2427515Y-16747984D02*
X2417991Y-16738460D01*
X2417991Y-16738460D02*
X2427515Y-16728936D01*
X2427515Y-16728936D02*
X2427515Y-16747984D01*
X2560848Y-16547984D02*
X2579896Y-16547984D01*
X2579896Y-16547984D02*
X2598944Y-16557508D01*
X2598944Y-16557508D02*
X2608468Y-16567031D01*
X2608468Y-16567031D02*
X2617991Y-16586079D01*
X2617991Y-16586079D02*
X2627515Y-16624174D01*
X2627515Y-16624174D02*
X2627515Y-16671793D01*
X2627515Y-16671793D02*
X2617991Y-16709888D01*
X2617991Y-16709888D02*
X2608468Y-16728936D01*
X2608468Y-16728936D02*
X2598944Y-16738460D01*
X2598944Y-16738460D02*
X2579896Y-16747984D01*
X2579896Y-16747984D02*
X2560848Y-16747984D01*
X2560848Y-16747984D02*
X2541801Y-16738460D01*
X2541801Y-16738460D02*
X2532277Y-16728936D01*
X2532277Y-16728936D02*
X2522753Y-16709888D01*
X2522753Y-16709888D02*
X2513229Y-16671793D01*
X2513229Y-16671793D02*
X2513229Y-16624174D01*
X2513229Y-16624174D02*
X2522753Y-16586079D01*
X2522753Y-16586079D02*
X2532277Y-16567031D01*
X2532277Y-16567031D02*
X2541801Y-16557508D01*
X2541801Y-16557508D02*
X2560848Y-16547984D01*
X2703706Y-16567031D02*
X2713229Y-16557508D01*
X2713229Y-16557508D02*
X2732277Y-16547984D01*
X2732277Y-16547984D02*
X2779896Y-16547984D01*
X2779896Y-16547984D02*
X2798944Y-16557508D01*
X2798944Y-16557508D02*
X2808467Y-16567031D01*
X2808467Y-16567031D02*
X2817991Y-16586079D01*
X2817991Y-16586079D02*
X2817991Y-16605127D01*
X2817991Y-16605127D02*
X2808467Y-16633698D01*
X2808467Y-16633698D02*
X2694182Y-16747984D01*
X2694182Y-16747984D02*
X2817991Y-16747984D01*
X2884658Y-16547984D02*
X3008467Y-16547984D01*
X3008467Y-16547984D02*
X2941801Y-16624174D01*
X2941801Y-16624174D02*
X2970372Y-16624174D01*
X2970372Y-16624174D02*
X2989420Y-16633698D01*
X2989420Y-16633698D02*
X2998944Y-16643222D01*
X2998944Y-16643222D02*
X3008467Y-16662269D01*
X3008467Y-16662269D02*
X3008467Y-16709888D01*
X3008467Y-16709888D02*
X2998944Y-16728936D01*
X2998944Y-16728936D02*
X2989420Y-16738460D01*
X2989420Y-16738460D02*
X2970372Y-16747984D01*
X2970372Y-16747984D02*
X2913229Y-16747984D01*
X2913229Y-16747984D02*
X2894182Y-16738460D01*
X2894182Y-16738460D02*
X2884658Y-16728936D01*
X3179896Y-16547984D02*
X3141801Y-16547984D01*
X3141801Y-16547984D02*
X3122753Y-16557508D01*
X3122753Y-16557508D02*
X3113229Y-16567031D01*
X3113229Y-16567031D02*
X3094182Y-16595603D01*
X3094182Y-16595603D02*
X3084658Y-16633698D01*
X3084658Y-16633698D02*
X3084658Y-16709888D01*
X3084658Y-16709888D02*
X3094182Y-16728936D01*
X3094182Y-16728936D02*
X3103706Y-16738460D01*
X3103706Y-16738460D02*
X3122753Y-16747984D01*
X3122753Y-16747984D02*
X3160848Y-16747984D01*
X3160848Y-16747984D02*
X3179896Y-16738460D01*
X3179896Y-16738460D02*
X3189420Y-16728936D01*
X3189420Y-16728936D02*
X3198944Y-16709888D01*
X3198944Y-16709888D02*
X3198944Y-16662269D01*
X3198944Y-16662269D02*
X3189420Y-16643222D01*
X3189420Y-16643222D02*
X3179896Y-16633698D01*
X3179896Y-16633698D02*
X3160848Y-16624174D01*
X3160848Y-16624174D02*
X3122753Y-16624174D01*
X3122753Y-16624174D02*
X3103706Y-16633698D01*
X3103706Y-16633698D02*
X3094182Y-16643222D01*
X3094182Y-16643222D02*
X3084658Y-16662269D01*
X3275134Y-16547984D02*
X3275134Y-16586079D01*
X3351325Y-16547984D02*
X3351325Y-16586079D01*
X3646563Y-16824174D02*
X3637039Y-16814650D01*
X3637039Y-16814650D02*
X3617991Y-16786079D01*
X3617991Y-16786079D02*
X3608468Y-16767031D01*
X3608468Y-16767031D02*
X3598944Y-16738460D01*
X3598944Y-16738460D02*
X3589420Y-16690841D01*
X3589420Y-16690841D02*
X3589420Y-16652746D01*
X3589420Y-16652746D02*
X3598944Y-16605127D01*
X3598944Y-16605127D02*
X3608468Y-16576555D01*
X3608468Y-16576555D02*
X3617991Y-16557508D01*
X3617991Y-16557508D02*
X3637039Y-16528936D01*
X3637039Y-16528936D02*
X3646563Y-16519412D01*
X3760848Y-16547984D02*
X3779896Y-16547984D01*
X3779896Y-16547984D02*
X3798944Y-16557508D01*
X3798944Y-16557508D02*
X3808468Y-16567031D01*
X3808468Y-16567031D02*
X3817991Y-16586079D01*
X3817991Y-16586079D02*
X3827515Y-16624174D01*
X3827515Y-16624174D02*
X3827515Y-16671793D01*
X3827515Y-16671793D02*
X3817991Y-16709888D01*
X3817991Y-16709888D02*
X3808468Y-16728936D01*
X3808468Y-16728936D02*
X3798944Y-16738460D01*
X3798944Y-16738460D02*
X3779896Y-16747984D01*
X3779896Y-16747984D02*
X3760848Y-16747984D01*
X3760848Y-16747984D02*
X3741801Y-16738460D01*
X3741801Y-16738460D02*
X3732277Y-16728936D01*
X3732277Y-16728936D02*
X3722753Y-16709888D01*
X3722753Y-16709888D02*
X3713229Y-16671793D01*
X3713229Y-16671793D02*
X3713229Y-16624174D01*
X3713229Y-16624174D02*
X3722753Y-16586079D01*
X3722753Y-16586079D02*
X3732277Y-16567031D01*
X3732277Y-16567031D02*
X3741801Y-16557508D01*
X3741801Y-16557508D02*
X3760848Y-16547984D01*
X4065610Y-16747984D02*
X4065610Y-16547984D01*
X4151325Y-16747984D02*
X4151325Y-16643222D01*
X4151325Y-16643222D02*
X4141801Y-16624174D01*
X4141801Y-16624174D02*
X4122753Y-16614650D01*
X4122753Y-16614650D02*
X4094182Y-16614650D01*
X4094182Y-16614650D02*
X4075134Y-16624174D01*
X4075134Y-16624174D02*
X4065610Y-16633698D01*
X4275134Y-16747984D02*
X4256087Y-16738460D01*
X4256087Y-16738460D02*
X4246563Y-16728936D01*
X4246563Y-16728936D02*
X4237039Y-16709888D01*
X4237039Y-16709888D02*
X4237039Y-16652746D01*
X4237039Y-16652746D02*
X4246563Y-16633698D01*
X4246563Y-16633698D02*
X4256087Y-16624174D01*
X4256087Y-16624174D02*
X4275134Y-16614650D01*
X4275134Y-16614650D02*
X4303706Y-16614650D01*
X4303706Y-16614650D02*
X4322753Y-16624174D01*
X4322753Y-16624174D02*
X4332277Y-16633698D01*
X4332277Y-16633698D02*
X4341801Y-16652746D01*
X4341801Y-16652746D02*
X4341801Y-16709888D01*
X4341801Y-16709888D02*
X4332277Y-16728936D01*
X4332277Y-16728936D02*
X4322753Y-16738460D01*
X4322753Y-16738460D02*
X4303706Y-16747984D01*
X4303706Y-16747984D02*
X4275134Y-16747984D01*
X4456087Y-16747984D02*
X4437039Y-16738460D01*
X4437039Y-16738460D02*
X4427515Y-16719412D01*
X4427515Y-16719412D02*
X4427515Y-16547984D01*
X4608468Y-16738460D02*
X4589420Y-16747984D01*
X4589420Y-16747984D02*
X4551325Y-16747984D01*
X4551325Y-16747984D02*
X4532277Y-16738460D01*
X4532277Y-16738460D02*
X4522753Y-16719412D01*
X4522753Y-16719412D02*
X4522753Y-16643222D01*
X4522753Y-16643222D02*
X4532277Y-16624174D01*
X4532277Y-16624174D02*
X4551325Y-16614650D01*
X4551325Y-16614650D02*
X4589420Y-16614650D01*
X4589420Y-16614650D02*
X4608468Y-16624174D01*
X4608468Y-16624174D02*
X4617992Y-16643222D01*
X4617992Y-16643222D02*
X4617992Y-16662269D01*
X4617992Y-16662269D02*
X4522753Y-16681317D01*
X4694182Y-16738460D02*
X4713230Y-16747984D01*
X4713230Y-16747984D02*
X4751325Y-16747984D01*
X4751325Y-16747984D02*
X4770373Y-16738460D01*
X4770373Y-16738460D02*
X4779896Y-16719412D01*
X4779896Y-16719412D02*
X4779896Y-16709888D01*
X4779896Y-16709888D02*
X4770373Y-16690841D01*
X4770373Y-16690841D02*
X4751325Y-16681317D01*
X4751325Y-16681317D02*
X4722753Y-16681317D01*
X4722753Y-16681317D02*
X4703706Y-16671793D01*
X4703706Y-16671793D02*
X4694182Y-16652746D01*
X4694182Y-16652746D02*
X4694182Y-16643222D01*
X4694182Y-16643222D02*
X4703706Y-16624174D01*
X4703706Y-16624174D02*
X4722753Y-16614650D01*
X4722753Y-16614650D02*
X4751325Y-16614650D01*
X4751325Y-16614650D02*
X4770373Y-16624174D01*
X5017992Y-16671793D02*
X5170373Y-16671793D01*
X5094182Y-16747984D02*
X5094182Y-16595603D01*
X5408468Y-16567031D02*
X5417992Y-16557508D01*
X5417992Y-16557508D02*
X5437039Y-16547984D01*
X5437039Y-16547984D02*
X5484658Y-16547984D01*
X5484658Y-16547984D02*
X5503706Y-16557508D01*
X5503706Y-16557508D02*
X5513230Y-16567031D01*
X5513230Y-16567031D02*
X5522754Y-16586079D01*
X5522754Y-16586079D02*
X5522754Y-16605127D01*
X5522754Y-16605127D02*
X5513230Y-16633698D01*
X5513230Y-16633698D02*
X5398944Y-16747984D01*
X5398944Y-16747984D02*
X5522754Y-16747984D01*
X5751325Y-16738460D02*
X5770373Y-16747984D01*
X5770373Y-16747984D02*
X5808468Y-16747984D01*
X5808468Y-16747984D02*
X5827515Y-16738460D01*
X5827515Y-16738460D02*
X5837039Y-16719412D01*
X5837039Y-16719412D02*
X5837039Y-16709888D01*
X5837039Y-16709888D02*
X5827515Y-16690841D01*
X5827515Y-16690841D02*
X5808468Y-16681317D01*
X5808468Y-16681317D02*
X5779896Y-16681317D01*
X5779896Y-16681317D02*
X5760849Y-16671793D01*
X5760849Y-16671793D02*
X5751325Y-16652746D01*
X5751325Y-16652746D02*
X5751325Y-16643222D01*
X5751325Y-16643222D02*
X5760849Y-16624174D01*
X5760849Y-16624174D02*
X5779896Y-16614650D01*
X5779896Y-16614650D02*
X5808468Y-16614650D01*
X5808468Y-16614650D02*
X5827515Y-16624174D01*
X5951325Y-16747984D02*
X5932277Y-16738460D01*
X5932277Y-16738460D02*
X5922754Y-16719412D01*
X5922754Y-16719412D02*
X5922754Y-16547984D01*
X6056087Y-16747984D02*
X6037039Y-16738460D01*
X6037039Y-16738460D02*
X6027515Y-16728936D01*
X6027515Y-16728936D02*
X6017992Y-16709888D01*
X6017992Y-16709888D02*
X6017992Y-16652746D01*
X6017992Y-16652746D02*
X6027515Y-16633698D01*
X6027515Y-16633698D02*
X6037039Y-16624174D01*
X6037039Y-16624174D02*
X6056087Y-16614650D01*
X6056087Y-16614650D02*
X6084658Y-16614650D01*
X6084658Y-16614650D02*
X6103706Y-16624174D01*
X6103706Y-16624174D02*
X6113230Y-16633698D01*
X6113230Y-16633698D02*
X6122754Y-16652746D01*
X6122754Y-16652746D02*
X6122754Y-16709888D01*
X6122754Y-16709888D02*
X6113230Y-16728936D01*
X6113230Y-16728936D02*
X6103706Y-16738460D01*
X6103706Y-16738460D02*
X6084658Y-16747984D01*
X6084658Y-16747984D02*
X6056087Y-16747984D01*
X6179896Y-16614650D02*
X6256087Y-16614650D01*
X6208468Y-16547984D02*
X6208468Y-16719412D01*
X6208468Y-16719412D02*
X6217992Y-16738460D01*
X6217992Y-16738460D02*
X6237039Y-16747984D01*
X6237039Y-16747984D02*
X6256087Y-16747984D01*
X6313230Y-16738460D02*
X6332277Y-16747984D01*
X6332277Y-16747984D02*
X6370373Y-16747984D01*
X6370373Y-16747984D02*
X6389420Y-16738460D01*
X6389420Y-16738460D02*
X6398944Y-16719412D01*
X6398944Y-16719412D02*
X6398944Y-16709888D01*
X6398944Y-16709888D02*
X6389420Y-16690841D01*
X6389420Y-16690841D02*
X6370373Y-16681317D01*
X6370373Y-16681317D02*
X6341801Y-16681317D01*
X6341801Y-16681317D02*
X6322754Y-16671793D01*
X6322754Y-16671793D02*
X6313230Y-16652746D01*
X6313230Y-16652746D02*
X6313230Y-16643222D01*
X6313230Y-16643222D02*
X6322754Y-16624174D01*
X6322754Y-16624174D02*
X6341801Y-16614650D01*
X6341801Y-16614650D02*
X6370373Y-16614650D01*
X6370373Y-16614650D02*
X6389420Y-16624174D01*
X6465611Y-16824174D02*
X6475135Y-16814650D01*
X6475135Y-16814650D02*
X6494182Y-16786079D01*
X6494182Y-16786079D02*
X6503706Y-16767031D01*
X6503706Y-16767031D02*
X6513230Y-16738460D01*
X6513230Y-16738460D02*
X6522754Y-16690841D01*
X6522754Y-16690841D02*
X6522754Y-16652746D01*
X6522754Y-16652746D02*
X6513230Y-16605127D01*
X6513230Y-16605127D02*
X6503706Y-16576555D01*
X6503706Y-16576555D02*
X6494182Y-16557508D01*
X6494182Y-16557508D02*
X6475135Y-16528936D01*
X6475135Y-16528936D02*
X6465611Y-16519412D01*
D12*
X36500Y-16885500D02*
X36500Y-16955500D01*
X1500Y-16920500D02*
X71500Y-16920500D01*
D11*
X370372Y-16811984D02*
X389420Y-16811984D01*
X389420Y-16811984D02*
X408467Y-16821508D01*
X408467Y-16821508D02*
X417991Y-16831031D01*
X417991Y-16831031D02*
X427515Y-16850079D01*
X427515Y-16850079D02*
X437039Y-16888174D01*
X437039Y-16888174D02*
X437039Y-16935793D01*
X437039Y-16935793D02*
X427515Y-16973889D01*
X427515Y-16973889D02*
X417991Y-16992936D01*
X417991Y-16992936D02*
X408467Y-17002460D01*
X408467Y-17002460D02*
X389420Y-17011984D01*
X389420Y-17011984D02*
X370372Y-17011984D01*
X370372Y-17011984D02*
X351324Y-17002460D01*
X351324Y-17002460D02*
X341801Y-16992936D01*
X341801Y-16992936D02*
X332277Y-16973889D01*
X332277Y-16973889D02*
X322753Y-16935793D01*
X322753Y-16935793D02*
X322753Y-16888174D01*
X322753Y-16888174D02*
X332277Y-16850079D01*
X332277Y-16850079D02*
X341801Y-16831031D01*
X341801Y-16831031D02*
X351324Y-16821508D01*
X351324Y-16821508D02*
X370372Y-16811984D01*
X522753Y-16992936D02*
X532277Y-17002460D01*
X532277Y-17002460D02*
X522753Y-17011984D01*
X522753Y-17011984D02*
X513229Y-17002460D01*
X513229Y-17002460D02*
X522753Y-16992936D01*
X522753Y-16992936D02*
X522753Y-17011984D01*
X598944Y-16811984D02*
X732277Y-16811984D01*
X732277Y-16811984D02*
X646563Y-17011984D01*
X846562Y-16811984D02*
X865610Y-16811984D01*
X865610Y-16811984D02*
X884658Y-16821508D01*
X884658Y-16821508D02*
X894182Y-16831031D01*
X894182Y-16831031D02*
X903705Y-16850079D01*
X903705Y-16850079D02*
X913229Y-16888174D01*
X913229Y-16888174D02*
X913229Y-16935793D01*
X913229Y-16935793D02*
X903705Y-16973889D01*
X903705Y-16973889D02*
X894182Y-16992936D01*
X894182Y-16992936D02*
X884658Y-17002460D01*
X884658Y-17002460D02*
X865610Y-17011984D01*
X865610Y-17011984D02*
X846562Y-17011984D01*
X846562Y-17011984D02*
X827515Y-17002460D01*
X827515Y-17002460D02*
X817991Y-16992936D01*
X817991Y-16992936D02*
X808467Y-16973889D01*
X808467Y-16973889D02*
X798943Y-16935793D01*
X798943Y-16935793D02*
X798943Y-16888174D01*
X798943Y-16888174D02*
X808467Y-16850079D01*
X808467Y-16850079D02*
X817991Y-16831031D01*
X817991Y-16831031D02*
X827515Y-16821508D01*
X827515Y-16821508D02*
X846562Y-16811984D01*
X1037039Y-16811984D02*
X1056086Y-16811984D01*
X1056086Y-16811984D02*
X1075134Y-16821508D01*
X1075134Y-16821508D02*
X1084658Y-16831031D01*
X1084658Y-16831031D02*
X1094182Y-16850079D01*
X1094182Y-16850079D02*
X1103705Y-16888174D01*
X1103705Y-16888174D02*
X1103705Y-16935793D01*
X1103705Y-16935793D02*
X1094182Y-16973889D01*
X1094182Y-16973889D02*
X1084658Y-16992936D01*
X1084658Y-16992936D02*
X1075134Y-17002460D01*
X1075134Y-17002460D02*
X1056086Y-17011984D01*
X1056086Y-17011984D02*
X1037039Y-17011984D01*
X1037039Y-17011984D02*
X1017991Y-17002460D01*
X1017991Y-17002460D02*
X1008467Y-16992936D01*
X1008467Y-16992936D02*
X998943Y-16973889D01*
X998943Y-16973889D02*
X989420Y-16935793D01*
X989420Y-16935793D02*
X989420Y-16888174D01*
X989420Y-16888174D02*
X998943Y-16850079D01*
X998943Y-16850079D02*
X1008467Y-16831031D01*
X1008467Y-16831031D02*
X1017991Y-16821508D01*
X1017991Y-16821508D02*
X1037039Y-16811984D01*
X1189420Y-17011984D02*
X1189420Y-16878650D01*
X1189420Y-16897698D02*
X1198944Y-16888174D01*
X1198944Y-16888174D02*
X1217991Y-16878650D01*
X1217991Y-16878650D02*
X1246563Y-16878650D01*
X1246563Y-16878650D02*
X1265610Y-16888174D01*
X1265610Y-16888174D02*
X1275134Y-16907222D01*
X1275134Y-16907222D02*
X1275134Y-17011984D01*
X1275134Y-16907222D02*
X1284658Y-16888174D01*
X1284658Y-16888174D02*
X1303705Y-16878650D01*
X1303705Y-16878650D02*
X1332277Y-16878650D01*
X1332277Y-16878650D02*
X1351325Y-16888174D01*
X1351325Y-16888174D02*
X1360848Y-16907222D01*
X1360848Y-16907222D02*
X1360848Y-17011984D01*
X1456086Y-17011984D02*
X1456086Y-16878650D01*
X1456086Y-16897698D02*
X1465610Y-16888174D01*
X1465610Y-16888174D02*
X1484658Y-16878650D01*
X1484658Y-16878650D02*
X1513229Y-16878650D01*
X1513229Y-16878650D02*
X1532277Y-16888174D01*
X1532277Y-16888174D02*
X1541801Y-16907222D01*
X1541801Y-16907222D02*
X1541801Y-17011984D01*
X1541801Y-16907222D02*
X1551324Y-16888174D01*
X1551324Y-16888174D02*
X1570372Y-16878650D01*
X1570372Y-16878650D02*
X1598943Y-16878650D01*
X1598943Y-16878650D02*
X1617991Y-16888174D01*
X1617991Y-16888174D02*
X1627515Y-16907222D01*
X1627515Y-16907222D02*
X1627515Y-17011984D01*
X2017991Y-16802460D02*
X1846563Y-17059603D01*
X2275134Y-16811984D02*
X2294182Y-16811984D01*
X2294182Y-16811984D02*
X2313229Y-16821508D01*
X2313229Y-16821508D02*
X2322753Y-16831031D01*
X2322753Y-16831031D02*
X2332277Y-16850079D01*
X2332277Y-16850079D02*
X2341801Y-16888174D01*
X2341801Y-16888174D02*
X2341801Y-16935793D01*
X2341801Y-16935793D02*
X2332277Y-16973889D01*
X2332277Y-16973889D02*
X2322753Y-16992936D01*
X2322753Y-16992936D02*
X2313229Y-17002460D01*
X2313229Y-17002460D02*
X2294182Y-17011984D01*
X2294182Y-17011984D02*
X2275134Y-17011984D01*
X2275134Y-17011984D02*
X2256087Y-17002460D01*
X2256087Y-17002460D02*
X2246563Y-16992936D01*
X2246563Y-16992936D02*
X2237039Y-16973889D01*
X2237039Y-16973889D02*
X2227515Y-16935793D01*
X2227515Y-16935793D02*
X2227515Y-16888174D01*
X2227515Y-16888174D02*
X2237039Y-16850079D01*
X2237039Y-16850079D02*
X2246563Y-16831031D01*
X2246563Y-16831031D02*
X2256087Y-16821508D01*
X2256087Y-16821508D02*
X2275134Y-16811984D01*
X2427515Y-16992936D02*
X2437039Y-17002460D01*
X2437039Y-17002460D02*
X2427515Y-17011984D01*
X2427515Y-17011984D02*
X2417991Y-17002460D01*
X2417991Y-17002460D02*
X2427515Y-16992936D01*
X2427515Y-16992936D02*
X2427515Y-17011984D01*
X2560848Y-16811984D02*
X2579896Y-16811984D01*
X2579896Y-16811984D02*
X2598944Y-16821508D01*
X2598944Y-16821508D02*
X2608468Y-16831031D01*
X2608468Y-16831031D02*
X2617991Y-16850079D01*
X2617991Y-16850079D02*
X2627515Y-16888174D01*
X2627515Y-16888174D02*
X2627515Y-16935793D01*
X2627515Y-16935793D02*
X2617991Y-16973889D01*
X2617991Y-16973889D02*
X2608468Y-16992936D01*
X2608468Y-16992936D02*
X2598944Y-17002460D01*
X2598944Y-17002460D02*
X2579896Y-17011984D01*
X2579896Y-17011984D02*
X2560848Y-17011984D01*
X2560848Y-17011984D02*
X2541801Y-17002460D01*
X2541801Y-17002460D02*
X2532277Y-16992936D01*
X2532277Y-16992936D02*
X2522753Y-16973889D01*
X2522753Y-16973889D02*
X2513229Y-16935793D01*
X2513229Y-16935793D02*
X2513229Y-16888174D01*
X2513229Y-16888174D02*
X2522753Y-16850079D01*
X2522753Y-16850079D02*
X2532277Y-16831031D01*
X2532277Y-16831031D02*
X2541801Y-16821508D01*
X2541801Y-16821508D02*
X2560848Y-16811984D01*
X2703706Y-16831031D02*
X2713229Y-16821508D01*
X2713229Y-16821508D02*
X2732277Y-16811984D01*
X2732277Y-16811984D02*
X2779896Y-16811984D01*
X2779896Y-16811984D02*
X2798944Y-16821508D01*
X2798944Y-16821508D02*
X2808467Y-16831031D01*
X2808467Y-16831031D02*
X2817991Y-16850079D01*
X2817991Y-16850079D02*
X2817991Y-16869127D01*
X2817991Y-16869127D02*
X2808467Y-16897698D01*
X2808467Y-16897698D02*
X2694182Y-17011984D01*
X2694182Y-17011984D02*
X2817991Y-17011984D01*
X2884658Y-16811984D02*
X3017991Y-16811984D01*
X3017991Y-16811984D02*
X2932277Y-17011984D01*
X3179896Y-16811984D02*
X3141801Y-16811984D01*
X3141801Y-16811984D02*
X3122753Y-16821508D01*
X3122753Y-16821508D02*
X3113229Y-16831031D01*
X3113229Y-16831031D02*
X3094182Y-16859603D01*
X3094182Y-16859603D02*
X3084658Y-16897698D01*
X3084658Y-16897698D02*
X3084658Y-16973889D01*
X3084658Y-16973889D02*
X3094182Y-16992936D01*
X3094182Y-16992936D02*
X3103706Y-17002460D01*
X3103706Y-17002460D02*
X3122753Y-17011984D01*
X3122753Y-17011984D02*
X3160848Y-17011984D01*
X3160848Y-17011984D02*
X3179896Y-17002460D01*
X3179896Y-17002460D02*
X3189420Y-16992936D01*
X3189420Y-16992936D02*
X3198944Y-16973889D01*
X3198944Y-16973889D02*
X3198944Y-16926270D01*
X3198944Y-16926270D02*
X3189420Y-16907222D01*
X3189420Y-16907222D02*
X3179896Y-16897698D01*
X3179896Y-16897698D02*
X3160848Y-16888174D01*
X3160848Y-16888174D02*
X3122753Y-16888174D01*
X3122753Y-16888174D02*
X3103706Y-16897698D01*
X3103706Y-16897698D02*
X3094182Y-16907222D01*
X3094182Y-16907222D02*
X3084658Y-16926270D01*
X3275134Y-16811984D02*
X3275134Y-16850079D01*
X3351325Y-16811984D02*
X3351325Y-16850079D01*
X3646563Y-17088174D02*
X3637039Y-17078650D01*
X3637039Y-17078650D02*
X3617991Y-17050079D01*
X3617991Y-17050079D02*
X3608468Y-17031031D01*
X3608468Y-17031031D02*
X3598944Y-17002460D01*
X3598944Y-17002460D02*
X3589420Y-16954841D01*
X3589420Y-16954841D02*
X3589420Y-16916746D01*
X3589420Y-16916746D02*
X3598944Y-16869127D01*
X3598944Y-16869127D02*
X3608468Y-16840555D01*
X3608468Y-16840555D02*
X3617991Y-16821508D01*
X3617991Y-16821508D02*
X3637039Y-16792936D01*
X3637039Y-16792936D02*
X3646563Y-16783412D01*
X3760848Y-16811984D02*
X3779896Y-16811984D01*
X3779896Y-16811984D02*
X3798944Y-16821508D01*
X3798944Y-16821508D02*
X3808468Y-16831031D01*
X3808468Y-16831031D02*
X3817991Y-16850079D01*
X3817991Y-16850079D02*
X3827515Y-16888174D01*
X3827515Y-16888174D02*
X3827515Y-16935793D01*
X3827515Y-16935793D02*
X3817991Y-16973889D01*
X3817991Y-16973889D02*
X3808468Y-16992936D01*
X3808468Y-16992936D02*
X3798944Y-17002460D01*
X3798944Y-17002460D02*
X3779896Y-17011984D01*
X3779896Y-17011984D02*
X3760848Y-17011984D01*
X3760848Y-17011984D02*
X3741801Y-17002460D01*
X3741801Y-17002460D02*
X3732277Y-16992936D01*
X3732277Y-16992936D02*
X3722753Y-16973889D01*
X3722753Y-16973889D02*
X3713229Y-16935793D01*
X3713229Y-16935793D02*
X3713229Y-16888174D01*
X3713229Y-16888174D02*
X3722753Y-16850079D01*
X3722753Y-16850079D02*
X3732277Y-16831031D01*
X3732277Y-16831031D02*
X3741801Y-16821508D01*
X3741801Y-16821508D02*
X3760848Y-16811984D01*
X4065610Y-17011984D02*
X4065610Y-16811984D01*
X4151325Y-17011984D02*
X4151325Y-16907222D01*
X4151325Y-16907222D02*
X4141801Y-16888174D01*
X4141801Y-16888174D02*
X4122753Y-16878650D01*
X4122753Y-16878650D02*
X4094182Y-16878650D01*
X4094182Y-16878650D02*
X4075134Y-16888174D01*
X4075134Y-16888174D02*
X4065610Y-16897698D01*
X4275134Y-17011984D02*
X4256087Y-17002460D01*
X4256087Y-17002460D02*
X4246563Y-16992936D01*
X4246563Y-16992936D02*
X4237039Y-16973889D01*
X4237039Y-16973889D02*
X4237039Y-16916746D01*
X4237039Y-16916746D02*
X4246563Y-16897698D01*
X4246563Y-16897698D02*
X4256087Y-16888174D01*
X4256087Y-16888174D02*
X4275134Y-16878650D01*
X4275134Y-16878650D02*
X4303706Y-16878650D01*
X4303706Y-16878650D02*
X4322753Y-16888174D01*
X4322753Y-16888174D02*
X4332277Y-16897698D01*
X4332277Y-16897698D02*
X4341801Y-16916746D01*
X4341801Y-16916746D02*
X4341801Y-16973889D01*
X4341801Y-16973889D02*
X4332277Y-16992936D01*
X4332277Y-16992936D02*
X4322753Y-17002460D01*
X4322753Y-17002460D02*
X4303706Y-17011984D01*
X4303706Y-17011984D02*
X4275134Y-17011984D01*
X4456087Y-17011984D02*
X4437039Y-17002460D01*
X4437039Y-17002460D02*
X4427515Y-16983412D01*
X4427515Y-16983412D02*
X4427515Y-16811984D01*
X4608468Y-17002460D02*
X4589420Y-17011984D01*
X4589420Y-17011984D02*
X4551325Y-17011984D01*
X4551325Y-17011984D02*
X4532277Y-17002460D01*
X4532277Y-17002460D02*
X4522753Y-16983412D01*
X4522753Y-16983412D02*
X4522753Y-16907222D01*
X4522753Y-16907222D02*
X4532277Y-16888174D01*
X4532277Y-16888174D02*
X4551325Y-16878650D01*
X4551325Y-16878650D02*
X4589420Y-16878650D01*
X4589420Y-16878650D02*
X4608468Y-16888174D01*
X4608468Y-16888174D02*
X4617992Y-16907222D01*
X4617992Y-16907222D02*
X4617992Y-16926270D01*
X4617992Y-16926270D02*
X4522753Y-16945317D01*
X4694182Y-17002460D02*
X4713230Y-17011984D01*
X4713230Y-17011984D02*
X4751325Y-17011984D01*
X4751325Y-17011984D02*
X4770373Y-17002460D01*
X4770373Y-17002460D02*
X4779896Y-16983412D01*
X4779896Y-16983412D02*
X4779896Y-16973889D01*
X4779896Y-16973889D02*
X4770373Y-16954841D01*
X4770373Y-16954841D02*
X4751325Y-16945317D01*
X4751325Y-16945317D02*
X4722753Y-16945317D01*
X4722753Y-16945317D02*
X4703706Y-16935793D01*
X4703706Y-16935793D02*
X4694182Y-16916746D01*
X4694182Y-16916746D02*
X4694182Y-16907222D01*
X4694182Y-16907222D02*
X4703706Y-16888174D01*
X4703706Y-16888174D02*
X4722753Y-16878650D01*
X4722753Y-16878650D02*
X4751325Y-16878650D01*
X4751325Y-16878650D02*
X4770373Y-16888174D01*
X5017992Y-16935793D02*
X5170373Y-16935793D01*
X5094182Y-17011984D02*
X5094182Y-16859603D01*
X5408468Y-16831031D02*
X5417992Y-16821508D01*
X5417992Y-16821508D02*
X5437039Y-16811984D01*
X5437039Y-16811984D02*
X5484658Y-16811984D01*
X5484658Y-16811984D02*
X5503706Y-16821508D01*
X5503706Y-16821508D02*
X5513230Y-16831031D01*
X5513230Y-16831031D02*
X5522754Y-16850079D01*
X5522754Y-16850079D02*
X5522754Y-16869127D01*
X5522754Y-16869127D02*
X5513230Y-16897698D01*
X5513230Y-16897698D02*
X5398944Y-17011984D01*
X5398944Y-17011984D02*
X5522754Y-17011984D01*
X5751325Y-17002460D02*
X5770373Y-17011984D01*
X5770373Y-17011984D02*
X5808468Y-17011984D01*
X5808468Y-17011984D02*
X5827515Y-17002460D01*
X5827515Y-17002460D02*
X5837039Y-16983412D01*
X5837039Y-16983412D02*
X5837039Y-16973889D01*
X5837039Y-16973889D02*
X5827515Y-16954841D01*
X5827515Y-16954841D02*
X5808468Y-16945317D01*
X5808468Y-16945317D02*
X5779896Y-16945317D01*
X5779896Y-16945317D02*
X5760849Y-16935793D01*
X5760849Y-16935793D02*
X5751325Y-16916746D01*
X5751325Y-16916746D02*
X5751325Y-16907222D01*
X5751325Y-16907222D02*
X5760849Y-16888174D01*
X5760849Y-16888174D02*
X5779896Y-16878650D01*
X5779896Y-16878650D02*
X5808468Y-16878650D01*
X5808468Y-16878650D02*
X5827515Y-16888174D01*
X5951325Y-17011984D02*
X5932277Y-17002460D01*
X5932277Y-17002460D02*
X5922754Y-16983412D01*
X5922754Y-16983412D02*
X5922754Y-16811984D01*
X6056087Y-17011984D02*
X6037039Y-17002460D01*
X6037039Y-17002460D02*
X6027515Y-16992936D01*
X6027515Y-16992936D02*
X6017992Y-16973889D01*
X6017992Y-16973889D02*
X6017992Y-16916746D01*
X6017992Y-16916746D02*
X6027515Y-16897698D01*
X6027515Y-16897698D02*
X6037039Y-16888174D01*
X6037039Y-16888174D02*
X6056087Y-16878650D01*
X6056087Y-16878650D02*
X6084658Y-16878650D01*
X6084658Y-16878650D02*
X6103706Y-16888174D01*
X6103706Y-16888174D02*
X6113230Y-16897698D01*
X6113230Y-16897698D02*
X6122754Y-16916746D01*
X6122754Y-16916746D02*
X6122754Y-16973889D01*
X6122754Y-16973889D02*
X6113230Y-16992936D01*
X6113230Y-16992936D02*
X6103706Y-17002460D01*
X6103706Y-17002460D02*
X6084658Y-17011984D01*
X6084658Y-17011984D02*
X6056087Y-17011984D01*
X6179896Y-16878650D02*
X6256087Y-16878650D01*
X6208468Y-16811984D02*
X6208468Y-16983412D01*
X6208468Y-16983412D02*
X6217992Y-17002460D01*
X6217992Y-17002460D02*
X6237039Y-17011984D01*
X6237039Y-17011984D02*
X6256087Y-17011984D01*
X6313230Y-17002460D02*
X6332277Y-17011984D01*
X6332277Y-17011984D02*
X6370373Y-17011984D01*
X6370373Y-17011984D02*
X6389420Y-17002460D01*
X6389420Y-17002460D02*
X6398944Y-16983412D01*
X6398944Y-16983412D02*
X6398944Y-16973889D01*
X6398944Y-16973889D02*
X6389420Y-16954841D01*
X6389420Y-16954841D02*
X6370373Y-16945317D01*
X6370373Y-16945317D02*
X6341801Y-16945317D01*
X6341801Y-16945317D02*
X6322754Y-16935793D01*
X6322754Y-16935793D02*
X6313230Y-16916746D01*
X6313230Y-16916746D02*
X6313230Y-16907222D01*
X6313230Y-16907222D02*
X6322754Y-16888174D01*
X6322754Y-16888174D02*
X6341801Y-16878650D01*
X6341801Y-16878650D02*
X6370373Y-16878650D01*
X6370373Y-16878650D02*
X6389420Y-16888174D01*
X6465611Y-17088174D02*
X6475135Y-17078650D01*
X6475135Y-17078650D02*
X6494182Y-17050079D01*
X6494182Y-17050079D02*
X6503706Y-17031031D01*
X6503706Y-17031031D02*
X6513230Y-17002460D01*
X6513230Y-17002460D02*
X6522754Y-16954841D01*
X6522754Y-16954841D02*
X6522754Y-16916746D01*
X6522754Y-16916746D02*
X6513230Y-16869127D01*
X6513230Y-16869127D02*
X6503706Y-16840555D01*
X6503706Y-16840555D02*
X6494182Y-16821508D01*
X6494182Y-16821508D02*
X6475135Y-16792936D01*
X6475135Y-16792936D02*
X6465611Y-16783412D01*
D12*
X59784Y-17212785D02*
X59784Y-17156216D01*
X3215Y-17156216D01*
X3215Y-17212785D01*
X59784Y-17212785D01*
D11*
X370372Y-17075984D02*
X389420Y-17075984D01*
X389420Y-17075984D02*
X408467Y-17085508D01*
X408467Y-17085508D02*
X417991Y-17095031D01*
X417991Y-17095031D02*
X427515Y-17114079D01*
X427515Y-17114079D02*
X437039Y-17152174D01*
X437039Y-17152174D02*
X437039Y-17199793D01*
X437039Y-17199793D02*
X427515Y-17237889D01*
X427515Y-17237889D02*
X417991Y-17256936D01*
X417991Y-17256936D02*
X408467Y-17266460D01*
X408467Y-17266460D02*
X389420Y-17275984D01*
X389420Y-17275984D02*
X370372Y-17275984D01*
X370372Y-17275984D02*
X351324Y-17266460D01*
X351324Y-17266460D02*
X341801Y-17256936D01*
X341801Y-17256936D02*
X332277Y-17237889D01*
X332277Y-17237889D02*
X322753Y-17199793D01*
X322753Y-17199793D02*
X322753Y-17152174D01*
X322753Y-17152174D02*
X332277Y-17114079D01*
X332277Y-17114079D02*
X341801Y-17095031D01*
X341801Y-17095031D02*
X351324Y-17085508D01*
X351324Y-17085508D02*
X370372Y-17075984D01*
X522753Y-17256936D02*
X532277Y-17266460D01*
X532277Y-17266460D02*
X522753Y-17275984D01*
X522753Y-17275984D02*
X513229Y-17266460D01*
X513229Y-17266460D02*
X522753Y-17256936D01*
X522753Y-17256936D02*
X522753Y-17275984D01*
X646563Y-17161698D02*
X627515Y-17152174D01*
X627515Y-17152174D02*
X617991Y-17142650D01*
X617991Y-17142650D02*
X608467Y-17123603D01*
X608467Y-17123603D02*
X608467Y-17114079D01*
X608467Y-17114079D02*
X617991Y-17095031D01*
X617991Y-17095031D02*
X627515Y-17085508D01*
X627515Y-17085508D02*
X646563Y-17075984D01*
X646563Y-17075984D02*
X684658Y-17075984D01*
X684658Y-17075984D02*
X703705Y-17085508D01*
X703705Y-17085508D02*
X713229Y-17095031D01*
X713229Y-17095031D02*
X722753Y-17114079D01*
X722753Y-17114079D02*
X722753Y-17123603D01*
X722753Y-17123603D02*
X713229Y-17142650D01*
X713229Y-17142650D02*
X703705Y-17152174D01*
X703705Y-17152174D02*
X684658Y-17161698D01*
X684658Y-17161698D02*
X646563Y-17161698D01*
X646563Y-17161698D02*
X627515Y-17171222D01*
X627515Y-17171222D02*
X617991Y-17180746D01*
X617991Y-17180746D02*
X608467Y-17199793D01*
X608467Y-17199793D02*
X608467Y-17237889D01*
X608467Y-17237889D02*
X617991Y-17256936D01*
X617991Y-17256936D02*
X627515Y-17266460D01*
X627515Y-17266460D02*
X646563Y-17275984D01*
X646563Y-17275984D02*
X684658Y-17275984D01*
X684658Y-17275984D02*
X703705Y-17266460D01*
X703705Y-17266460D02*
X713229Y-17256936D01*
X713229Y-17256936D02*
X722753Y-17237889D01*
X722753Y-17237889D02*
X722753Y-17199793D01*
X722753Y-17199793D02*
X713229Y-17180746D01*
X713229Y-17180746D02*
X703705Y-17171222D01*
X703705Y-17171222D02*
X684658Y-17161698D01*
X846562Y-17075984D02*
X865610Y-17075984D01*
X865610Y-17075984D02*
X884658Y-17085508D01*
X884658Y-17085508D02*
X894182Y-17095031D01*
X894182Y-17095031D02*
X903705Y-17114079D01*
X903705Y-17114079D02*
X913229Y-17152174D01*
X913229Y-17152174D02*
X913229Y-17199793D01*
X913229Y-17199793D02*
X903705Y-17237889D01*
X903705Y-17237889D02*
X894182Y-17256936D01*
X894182Y-17256936D02*
X884658Y-17266460D01*
X884658Y-17266460D02*
X865610Y-17275984D01*
X865610Y-17275984D02*
X846562Y-17275984D01*
X846562Y-17275984D02*
X827515Y-17266460D01*
X827515Y-17266460D02*
X817991Y-17256936D01*
X817991Y-17256936D02*
X808467Y-17237889D01*
X808467Y-17237889D02*
X798943Y-17199793D01*
X798943Y-17199793D02*
X798943Y-17152174D01*
X798943Y-17152174D02*
X808467Y-17114079D01*
X808467Y-17114079D02*
X817991Y-17095031D01*
X817991Y-17095031D02*
X827515Y-17085508D01*
X827515Y-17085508D02*
X846562Y-17075984D01*
X1037039Y-17075984D02*
X1056086Y-17075984D01*
X1056086Y-17075984D02*
X1075134Y-17085508D01*
X1075134Y-17085508D02*
X1084658Y-17095031D01*
X1084658Y-17095031D02*
X1094182Y-17114079D01*
X1094182Y-17114079D02*
X1103705Y-17152174D01*
X1103705Y-17152174D02*
X1103705Y-17199793D01*
X1103705Y-17199793D02*
X1094182Y-17237889D01*
X1094182Y-17237889D02*
X1084658Y-17256936D01*
X1084658Y-17256936D02*
X1075134Y-17266460D01*
X1075134Y-17266460D02*
X1056086Y-17275984D01*
X1056086Y-17275984D02*
X1037039Y-17275984D01*
X1037039Y-17275984D02*
X1017991Y-17266460D01*
X1017991Y-17266460D02*
X1008467Y-17256936D01*
X1008467Y-17256936D02*
X998943Y-17237889D01*
X998943Y-17237889D02*
X989420Y-17199793D01*
X989420Y-17199793D02*
X989420Y-17152174D01*
X989420Y-17152174D02*
X998943Y-17114079D01*
X998943Y-17114079D02*
X1008467Y-17095031D01*
X1008467Y-17095031D02*
X1017991Y-17085508D01*
X1017991Y-17085508D02*
X1037039Y-17075984D01*
X1189420Y-17275984D02*
X1189420Y-17142650D01*
X1189420Y-17161698D02*
X1198944Y-17152174D01*
X1198944Y-17152174D02*
X1217991Y-17142650D01*
X1217991Y-17142650D02*
X1246563Y-17142650D01*
X1246563Y-17142650D02*
X1265610Y-17152174D01*
X1265610Y-17152174D02*
X1275134Y-17171222D01*
X1275134Y-17171222D02*
X1275134Y-17275984D01*
X1275134Y-17171222D02*
X1284658Y-17152174D01*
X1284658Y-17152174D02*
X1303705Y-17142650D01*
X1303705Y-17142650D02*
X1332277Y-17142650D01*
X1332277Y-17142650D02*
X1351325Y-17152174D01*
X1351325Y-17152174D02*
X1360848Y-17171222D01*
X1360848Y-17171222D02*
X1360848Y-17275984D01*
X1456086Y-17275984D02*
X1456086Y-17142650D01*
X1456086Y-17161698D02*
X1465610Y-17152174D01*
X1465610Y-17152174D02*
X1484658Y-17142650D01*
X1484658Y-17142650D02*
X1513229Y-17142650D01*
X1513229Y-17142650D02*
X1532277Y-17152174D01*
X1532277Y-17152174D02*
X1541801Y-17171222D01*
X1541801Y-17171222D02*
X1541801Y-17275984D01*
X1541801Y-17171222D02*
X1551324Y-17152174D01*
X1551324Y-17152174D02*
X1570372Y-17142650D01*
X1570372Y-17142650D02*
X1598943Y-17142650D01*
X1598943Y-17142650D02*
X1617991Y-17152174D01*
X1617991Y-17152174D02*
X1627515Y-17171222D01*
X1627515Y-17171222D02*
X1627515Y-17275984D01*
X2017991Y-17066460D02*
X1846563Y-17323603D01*
X2275134Y-17075984D02*
X2294182Y-17075984D01*
X2294182Y-17075984D02*
X2313229Y-17085508D01*
X2313229Y-17085508D02*
X2322753Y-17095031D01*
X2322753Y-17095031D02*
X2332277Y-17114079D01*
X2332277Y-17114079D02*
X2341801Y-17152174D01*
X2341801Y-17152174D02*
X2341801Y-17199793D01*
X2341801Y-17199793D02*
X2332277Y-17237889D01*
X2332277Y-17237889D02*
X2322753Y-17256936D01*
X2322753Y-17256936D02*
X2313229Y-17266460D01*
X2313229Y-17266460D02*
X2294182Y-17275984D01*
X2294182Y-17275984D02*
X2275134Y-17275984D01*
X2275134Y-17275984D02*
X2256087Y-17266460D01*
X2256087Y-17266460D02*
X2246563Y-17256936D01*
X2246563Y-17256936D02*
X2237039Y-17237889D01*
X2237039Y-17237889D02*
X2227515Y-17199793D01*
X2227515Y-17199793D02*
X2227515Y-17152174D01*
X2227515Y-17152174D02*
X2237039Y-17114079D01*
X2237039Y-17114079D02*
X2246563Y-17095031D01*
X2246563Y-17095031D02*
X2256087Y-17085508D01*
X2256087Y-17085508D02*
X2275134Y-17075984D01*
X2427515Y-17256936D02*
X2437039Y-17266460D01*
X2437039Y-17266460D02*
X2427515Y-17275984D01*
X2427515Y-17275984D02*
X2417991Y-17266460D01*
X2417991Y-17266460D02*
X2427515Y-17256936D01*
X2427515Y-17256936D02*
X2427515Y-17275984D01*
X2560848Y-17075984D02*
X2579896Y-17075984D01*
X2579896Y-17075984D02*
X2598944Y-17085508D01*
X2598944Y-17085508D02*
X2608468Y-17095031D01*
X2608468Y-17095031D02*
X2617991Y-17114079D01*
X2617991Y-17114079D02*
X2627515Y-17152174D01*
X2627515Y-17152174D02*
X2627515Y-17199793D01*
X2627515Y-17199793D02*
X2617991Y-17237889D01*
X2617991Y-17237889D02*
X2608468Y-17256936D01*
X2608468Y-17256936D02*
X2598944Y-17266460D01*
X2598944Y-17266460D02*
X2579896Y-17275984D01*
X2579896Y-17275984D02*
X2560848Y-17275984D01*
X2560848Y-17275984D02*
X2541801Y-17266460D01*
X2541801Y-17266460D02*
X2532277Y-17256936D01*
X2532277Y-17256936D02*
X2522753Y-17237889D01*
X2522753Y-17237889D02*
X2513229Y-17199793D01*
X2513229Y-17199793D02*
X2513229Y-17152174D01*
X2513229Y-17152174D02*
X2522753Y-17114079D01*
X2522753Y-17114079D02*
X2532277Y-17095031D01*
X2532277Y-17095031D02*
X2541801Y-17085508D01*
X2541801Y-17085508D02*
X2560848Y-17075984D01*
X2694182Y-17075984D02*
X2817991Y-17075984D01*
X2817991Y-17075984D02*
X2751325Y-17152174D01*
X2751325Y-17152174D02*
X2779896Y-17152174D01*
X2779896Y-17152174D02*
X2798944Y-17161698D01*
X2798944Y-17161698D02*
X2808467Y-17171222D01*
X2808467Y-17171222D02*
X2817991Y-17190270D01*
X2817991Y-17190270D02*
X2817991Y-17237889D01*
X2817991Y-17237889D02*
X2808467Y-17256936D01*
X2808467Y-17256936D02*
X2798944Y-17266460D01*
X2798944Y-17266460D02*
X2779896Y-17275984D01*
X2779896Y-17275984D02*
X2722753Y-17275984D01*
X2722753Y-17275984D02*
X2703706Y-17266460D01*
X2703706Y-17266460D02*
X2694182Y-17256936D01*
X3008467Y-17275984D02*
X2894182Y-17275984D01*
X2951325Y-17275984D02*
X2951325Y-17075984D01*
X2951325Y-17075984D02*
X2932277Y-17104555D01*
X2932277Y-17104555D02*
X2913229Y-17123603D01*
X2913229Y-17123603D02*
X2894182Y-17133127D01*
X3189420Y-17075984D02*
X3094182Y-17075984D01*
X3094182Y-17075984D02*
X3084658Y-17171222D01*
X3084658Y-17171222D02*
X3094182Y-17161698D01*
X3094182Y-17161698D02*
X3113229Y-17152174D01*
X3113229Y-17152174D02*
X3160848Y-17152174D01*
X3160848Y-17152174D02*
X3179896Y-17161698D01*
X3179896Y-17161698D02*
X3189420Y-17171222D01*
X3189420Y-17171222D02*
X3198944Y-17190270D01*
X3198944Y-17190270D02*
X3198944Y-17237889D01*
X3198944Y-17237889D02*
X3189420Y-17256936D01*
X3189420Y-17256936D02*
X3179896Y-17266460D01*
X3179896Y-17266460D02*
X3160848Y-17275984D01*
X3160848Y-17275984D02*
X3113229Y-17275984D01*
X3113229Y-17275984D02*
X3094182Y-17266460D01*
X3094182Y-17266460D02*
X3084658Y-17256936D01*
X3275134Y-17075984D02*
X3275134Y-17114079D01*
X3351325Y-17075984D02*
X3351325Y-17114079D01*
X3646563Y-17352174D02*
X3637039Y-17342650D01*
X3637039Y-17342650D02*
X3617991Y-17314079D01*
X3617991Y-17314079D02*
X3608468Y-17295031D01*
X3608468Y-17295031D02*
X3598944Y-17266460D01*
X3598944Y-17266460D02*
X3589420Y-17218841D01*
X3589420Y-17218841D02*
X3589420Y-17180746D01*
X3589420Y-17180746D02*
X3598944Y-17133127D01*
X3598944Y-17133127D02*
X3608468Y-17104555D01*
X3608468Y-17104555D02*
X3617991Y-17085508D01*
X3617991Y-17085508D02*
X3637039Y-17056936D01*
X3637039Y-17056936D02*
X3646563Y-17047412D01*
X3827515Y-17275984D02*
X3713229Y-17275984D01*
X3770372Y-17275984D02*
X3770372Y-17075984D01*
X3770372Y-17075984D02*
X3751325Y-17104555D01*
X3751325Y-17104555D02*
X3732277Y-17123603D01*
X3732277Y-17123603D02*
X3713229Y-17133127D01*
X3894182Y-17075984D02*
X4017991Y-17075984D01*
X4017991Y-17075984D02*
X3951325Y-17152174D01*
X3951325Y-17152174D02*
X3979896Y-17152174D01*
X3979896Y-17152174D02*
X3998944Y-17161698D01*
X3998944Y-17161698D02*
X4008468Y-17171222D01*
X4008468Y-17171222D02*
X4017991Y-17190270D01*
X4017991Y-17190270D02*
X4017991Y-17237889D01*
X4017991Y-17237889D02*
X4008468Y-17256936D01*
X4008468Y-17256936D02*
X3998944Y-17266460D01*
X3998944Y-17266460D02*
X3979896Y-17275984D01*
X3979896Y-17275984D02*
X3922753Y-17275984D01*
X3922753Y-17275984D02*
X3903706Y-17266460D01*
X3903706Y-17266460D02*
X3894182Y-17256936D01*
X4256087Y-17275984D02*
X4256087Y-17075984D01*
X4341801Y-17275984D02*
X4341801Y-17171222D01*
X4341801Y-17171222D02*
X4332277Y-17152174D01*
X4332277Y-17152174D02*
X4313230Y-17142650D01*
X4313230Y-17142650D02*
X4284658Y-17142650D01*
X4284658Y-17142650D02*
X4265611Y-17152174D01*
X4265611Y-17152174D02*
X4256087Y-17161698D01*
X4465611Y-17275984D02*
X4446563Y-17266460D01*
X4446563Y-17266460D02*
X4437039Y-17256936D01*
X4437039Y-17256936D02*
X4427515Y-17237889D01*
X4427515Y-17237889D02*
X4427515Y-17180746D01*
X4427515Y-17180746D02*
X4437039Y-17161698D01*
X4437039Y-17161698D02*
X4446563Y-17152174D01*
X4446563Y-17152174D02*
X4465611Y-17142650D01*
X4465611Y-17142650D02*
X4494182Y-17142650D01*
X4494182Y-17142650D02*
X4513230Y-17152174D01*
X4513230Y-17152174D02*
X4522753Y-17161698D01*
X4522753Y-17161698D02*
X4532277Y-17180746D01*
X4532277Y-17180746D02*
X4532277Y-17237889D01*
X4532277Y-17237889D02*
X4522753Y-17256936D01*
X4522753Y-17256936D02*
X4513230Y-17266460D01*
X4513230Y-17266460D02*
X4494182Y-17275984D01*
X4494182Y-17275984D02*
X4465611Y-17275984D01*
X4646563Y-17275984D02*
X4627515Y-17266460D01*
X4627515Y-17266460D02*
X4617992Y-17247412D01*
X4617992Y-17247412D02*
X4617992Y-17075984D01*
X4798944Y-17266460D02*
X4779896Y-17275984D01*
X4779896Y-17275984D02*
X4741801Y-17275984D01*
X4741801Y-17275984D02*
X4722753Y-17266460D01*
X4722753Y-17266460D02*
X4713230Y-17247412D01*
X4713230Y-17247412D02*
X4713230Y-17171222D01*
X4713230Y-17171222D02*
X4722753Y-17152174D01*
X4722753Y-17152174D02*
X4741801Y-17142650D01*
X4741801Y-17142650D02*
X4779896Y-17142650D01*
X4779896Y-17142650D02*
X4798944Y-17152174D01*
X4798944Y-17152174D02*
X4808468Y-17171222D01*
X4808468Y-17171222D02*
X4808468Y-17190270D01*
X4808468Y-17190270D02*
X4713230Y-17209317D01*
X4884658Y-17266460D02*
X4903706Y-17275984D01*
X4903706Y-17275984D02*
X4941801Y-17275984D01*
X4941801Y-17275984D02*
X4960849Y-17266460D01*
X4960849Y-17266460D02*
X4970373Y-17247412D01*
X4970373Y-17247412D02*
X4970373Y-17237889D01*
X4970373Y-17237889D02*
X4960849Y-17218841D01*
X4960849Y-17218841D02*
X4941801Y-17209317D01*
X4941801Y-17209317D02*
X4913230Y-17209317D01*
X4913230Y-17209317D02*
X4894182Y-17199793D01*
X4894182Y-17199793D02*
X4884658Y-17180746D01*
X4884658Y-17180746D02*
X4884658Y-17171222D01*
X4884658Y-17171222D02*
X4894182Y-17152174D01*
X4894182Y-17152174D02*
X4913230Y-17142650D01*
X4913230Y-17142650D02*
X4941801Y-17142650D01*
X4941801Y-17142650D02*
X4960849Y-17152174D01*
X5037039Y-17352174D02*
X5046563Y-17342650D01*
X5046563Y-17342650D02*
X5065611Y-17314079D01*
X5065611Y-17314079D02*
X5075134Y-17295031D01*
X5075134Y-17295031D02*
X5084658Y-17266460D01*
X5084658Y-17266460D02*
X5094182Y-17218841D01*
X5094182Y-17218841D02*
X5094182Y-17180746D01*
X5094182Y-17180746D02*
X5084658Y-17133127D01*
X5084658Y-17133127D02*
X5075134Y-17104555D01*
X5075134Y-17104555D02*
X5065611Y-17085508D01*
X5065611Y-17085508D02*
X5046563Y-17056936D01*
X5046563Y-17056936D02*
X5037039Y-17047412D01*
D12*
X24000Y-17496000D02*
X71500Y-17448500D01*
X24000Y-17401000D01*
X-23500Y-17448500D01*
X24000Y-17496000D01*
D11*
X370372Y-17339984D02*
X389420Y-17339984D01*
X389420Y-17339984D02*
X408467Y-17349508D01*
X408467Y-17349508D02*
X417991Y-17359031D01*
X417991Y-17359031D02*
X427515Y-17378079D01*
X427515Y-17378079D02*
X437039Y-17416174D01*
X437039Y-17416174D02*
X437039Y-17463793D01*
X437039Y-17463793D02*
X427515Y-17501889D01*
X427515Y-17501889D02*
X417991Y-17520936D01*
X417991Y-17520936D02*
X408467Y-17530460D01*
X408467Y-17530460D02*
X389420Y-17539984D01*
X389420Y-17539984D02*
X370372Y-17539984D01*
X370372Y-17539984D02*
X351324Y-17530460D01*
X351324Y-17530460D02*
X341801Y-17520936D01*
X341801Y-17520936D02*
X332277Y-17501889D01*
X332277Y-17501889D02*
X322753Y-17463793D01*
X322753Y-17463793D02*
X322753Y-17416174D01*
X322753Y-17416174D02*
X332277Y-17378079D01*
X332277Y-17378079D02*
X341801Y-17359031D01*
X341801Y-17359031D02*
X351324Y-17349508D01*
X351324Y-17349508D02*
X370372Y-17339984D01*
X522753Y-17520936D02*
X532277Y-17530460D01*
X532277Y-17530460D02*
X522753Y-17539984D01*
X522753Y-17539984D02*
X513229Y-17530460D01*
X513229Y-17530460D02*
X522753Y-17520936D01*
X522753Y-17520936D02*
X522753Y-17539984D01*
X627515Y-17539984D02*
X665610Y-17539984D01*
X665610Y-17539984D02*
X684658Y-17530460D01*
X684658Y-17530460D02*
X694182Y-17520936D01*
X694182Y-17520936D02*
X713229Y-17492365D01*
X713229Y-17492365D02*
X722753Y-17454270D01*
X722753Y-17454270D02*
X722753Y-17378079D01*
X722753Y-17378079D02*
X713229Y-17359031D01*
X713229Y-17359031D02*
X703705Y-17349508D01*
X703705Y-17349508D02*
X684658Y-17339984D01*
X684658Y-17339984D02*
X646563Y-17339984D01*
X646563Y-17339984D02*
X627515Y-17349508D01*
X627515Y-17349508D02*
X617991Y-17359031D01*
X617991Y-17359031D02*
X608467Y-17378079D01*
X608467Y-17378079D02*
X608467Y-17425698D01*
X608467Y-17425698D02*
X617991Y-17444746D01*
X617991Y-17444746D02*
X627515Y-17454270D01*
X627515Y-17454270D02*
X646563Y-17463793D01*
X646563Y-17463793D02*
X684658Y-17463793D01*
X684658Y-17463793D02*
X703705Y-17454270D01*
X703705Y-17454270D02*
X713229Y-17444746D01*
X713229Y-17444746D02*
X722753Y-17425698D01*
X903705Y-17339984D02*
X808467Y-17339984D01*
X808467Y-17339984D02*
X798943Y-17435222D01*
X798943Y-17435222D02*
X808467Y-17425698D01*
X808467Y-17425698D02*
X827515Y-17416174D01*
X827515Y-17416174D02*
X875134Y-17416174D01*
X875134Y-17416174D02*
X894182Y-17425698D01*
X894182Y-17425698D02*
X903705Y-17435222D01*
X903705Y-17435222D02*
X913229Y-17454270D01*
X913229Y-17454270D02*
X913229Y-17501889D01*
X913229Y-17501889D02*
X903705Y-17520936D01*
X903705Y-17520936D02*
X894182Y-17530460D01*
X894182Y-17530460D02*
X875134Y-17539984D01*
X875134Y-17539984D02*
X827515Y-17539984D01*
X827515Y-17539984D02*
X808467Y-17530460D01*
X808467Y-17530460D02*
X798943Y-17520936D01*
X1037039Y-17339984D02*
X1056086Y-17339984D01*
X1056086Y-17339984D02*
X1075134Y-17349508D01*
X1075134Y-17349508D02*
X1084658Y-17359031D01*
X1084658Y-17359031D02*
X1094182Y-17378079D01*
X1094182Y-17378079D02*
X1103705Y-17416174D01*
X1103705Y-17416174D02*
X1103705Y-17463793D01*
X1103705Y-17463793D02*
X1094182Y-17501889D01*
X1094182Y-17501889D02*
X1084658Y-17520936D01*
X1084658Y-17520936D02*
X1075134Y-17530460D01*
X1075134Y-17530460D02*
X1056086Y-17539984D01*
X1056086Y-17539984D02*
X1037039Y-17539984D01*
X1037039Y-17539984D02*
X1017991Y-17530460D01*
X1017991Y-17530460D02*
X1008467Y-17520936D01*
X1008467Y-17520936D02*
X998943Y-17501889D01*
X998943Y-17501889D02*
X989420Y-17463793D01*
X989420Y-17463793D02*
X989420Y-17416174D01*
X989420Y-17416174D02*
X998943Y-17378079D01*
X998943Y-17378079D02*
X1008467Y-17359031D01*
X1008467Y-17359031D02*
X1017991Y-17349508D01*
X1017991Y-17349508D02*
X1037039Y-17339984D01*
X1189420Y-17539984D02*
X1189420Y-17406650D01*
X1189420Y-17425698D02*
X1198944Y-17416174D01*
X1198944Y-17416174D02*
X1217991Y-17406650D01*
X1217991Y-17406650D02*
X1246563Y-17406650D01*
X1246563Y-17406650D02*
X1265610Y-17416174D01*
X1265610Y-17416174D02*
X1275134Y-17435222D01*
X1275134Y-17435222D02*
X1275134Y-17539984D01*
X1275134Y-17435222D02*
X1284658Y-17416174D01*
X1284658Y-17416174D02*
X1303705Y-17406650D01*
X1303705Y-17406650D02*
X1332277Y-17406650D01*
X1332277Y-17406650D02*
X1351325Y-17416174D01*
X1351325Y-17416174D02*
X1360848Y-17435222D01*
X1360848Y-17435222D02*
X1360848Y-17539984D01*
X1456086Y-17539984D02*
X1456086Y-17406650D01*
X1456086Y-17425698D02*
X1465610Y-17416174D01*
X1465610Y-17416174D02*
X1484658Y-17406650D01*
X1484658Y-17406650D02*
X1513229Y-17406650D01*
X1513229Y-17406650D02*
X1532277Y-17416174D01*
X1532277Y-17416174D02*
X1541801Y-17435222D01*
X1541801Y-17435222D02*
X1541801Y-17539984D01*
X1541801Y-17435222D02*
X1551324Y-17416174D01*
X1551324Y-17416174D02*
X1570372Y-17406650D01*
X1570372Y-17406650D02*
X1598943Y-17406650D01*
X1598943Y-17406650D02*
X1617991Y-17416174D01*
X1617991Y-17416174D02*
X1627515Y-17435222D01*
X1627515Y-17435222D02*
X1627515Y-17539984D01*
X2017991Y-17330460D02*
X1846563Y-17587603D01*
X2275134Y-17339984D02*
X2294182Y-17339984D01*
X2294182Y-17339984D02*
X2313229Y-17349508D01*
X2313229Y-17349508D02*
X2322753Y-17359031D01*
X2322753Y-17359031D02*
X2332277Y-17378079D01*
X2332277Y-17378079D02*
X2341801Y-17416174D01*
X2341801Y-17416174D02*
X2341801Y-17463793D01*
X2341801Y-17463793D02*
X2332277Y-17501889D01*
X2332277Y-17501889D02*
X2322753Y-17520936D01*
X2322753Y-17520936D02*
X2313229Y-17530460D01*
X2313229Y-17530460D02*
X2294182Y-17539984D01*
X2294182Y-17539984D02*
X2275134Y-17539984D01*
X2275134Y-17539984D02*
X2256087Y-17530460D01*
X2256087Y-17530460D02*
X2246563Y-17520936D01*
X2246563Y-17520936D02*
X2237039Y-17501889D01*
X2237039Y-17501889D02*
X2227515Y-17463793D01*
X2227515Y-17463793D02*
X2227515Y-17416174D01*
X2227515Y-17416174D02*
X2237039Y-17378079D01*
X2237039Y-17378079D02*
X2246563Y-17359031D01*
X2246563Y-17359031D02*
X2256087Y-17349508D01*
X2256087Y-17349508D02*
X2275134Y-17339984D01*
X2427515Y-17520936D02*
X2437039Y-17530460D01*
X2437039Y-17530460D02*
X2427515Y-17539984D01*
X2427515Y-17539984D02*
X2417991Y-17530460D01*
X2417991Y-17530460D02*
X2427515Y-17520936D01*
X2427515Y-17520936D02*
X2427515Y-17539984D01*
X2560848Y-17339984D02*
X2579896Y-17339984D01*
X2579896Y-17339984D02*
X2598944Y-17349508D01*
X2598944Y-17349508D02*
X2608468Y-17359031D01*
X2608468Y-17359031D02*
X2617991Y-17378079D01*
X2617991Y-17378079D02*
X2627515Y-17416174D01*
X2627515Y-17416174D02*
X2627515Y-17463793D01*
X2627515Y-17463793D02*
X2617991Y-17501889D01*
X2617991Y-17501889D02*
X2608468Y-17520936D01*
X2608468Y-17520936D02*
X2598944Y-17530460D01*
X2598944Y-17530460D02*
X2579896Y-17539984D01*
X2579896Y-17539984D02*
X2560848Y-17539984D01*
X2560848Y-17539984D02*
X2541801Y-17530460D01*
X2541801Y-17530460D02*
X2532277Y-17520936D01*
X2532277Y-17520936D02*
X2522753Y-17501889D01*
X2522753Y-17501889D02*
X2513229Y-17463793D01*
X2513229Y-17463793D02*
X2513229Y-17416174D01*
X2513229Y-17416174D02*
X2522753Y-17378079D01*
X2522753Y-17378079D02*
X2532277Y-17359031D01*
X2532277Y-17359031D02*
X2541801Y-17349508D01*
X2541801Y-17349508D02*
X2560848Y-17339984D01*
X2694182Y-17339984D02*
X2817991Y-17339984D01*
X2817991Y-17339984D02*
X2751325Y-17416174D01*
X2751325Y-17416174D02*
X2779896Y-17416174D01*
X2779896Y-17416174D02*
X2798944Y-17425698D01*
X2798944Y-17425698D02*
X2808467Y-17435222D01*
X2808467Y-17435222D02*
X2817991Y-17454270D01*
X2817991Y-17454270D02*
X2817991Y-17501889D01*
X2817991Y-17501889D02*
X2808467Y-17520936D01*
X2808467Y-17520936D02*
X2798944Y-17530460D01*
X2798944Y-17530460D02*
X2779896Y-17539984D01*
X2779896Y-17539984D02*
X2722753Y-17539984D01*
X2722753Y-17539984D02*
X2703706Y-17530460D01*
X2703706Y-17530460D02*
X2694182Y-17520936D01*
X2884658Y-17339984D02*
X3017991Y-17339984D01*
X3017991Y-17339984D02*
X2932277Y-17539984D01*
X3179896Y-17406650D02*
X3179896Y-17539984D01*
X3132277Y-17330460D02*
X3084658Y-17473317D01*
X3084658Y-17473317D02*
X3208467Y-17473317D01*
X3275134Y-17339984D02*
X3275134Y-17378079D01*
X3351325Y-17339984D02*
X3351325Y-17378079D01*
X3646563Y-17616174D02*
X3637039Y-17606650D01*
X3637039Y-17606650D02*
X3617991Y-17578079D01*
X3617991Y-17578079D02*
X3608468Y-17559031D01*
X3608468Y-17559031D02*
X3598944Y-17530460D01*
X3598944Y-17530460D02*
X3589420Y-17482841D01*
X3589420Y-17482841D02*
X3589420Y-17444746D01*
X3589420Y-17444746D02*
X3598944Y-17397127D01*
X3598944Y-17397127D02*
X3608468Y-17368555D01*
X3608468Y-17368555D02*
X3617991Y-17349508D01*
X3617991Y-17349508D02*
X3637039Y-17320936D01*
X3637039Y-17320936D02*
X3646563Y-17311412D01*
X3713229Y-17359031D02*
X3722753Y-17349508D01*
X3722753Y-17349508D02*
X3741801Y-17339984D01*
X3741801Y-17339984D02*
X3789420Y-17339984D01*
X3789420Y-17339984D02*
X3808468Y-17349508D01*
X3808468Y-17349508D02*
X3817991Y-17359031D01*
X3817991Y-17359031D02*
X3827515Y-17378079D01*
X3827515Y-17378079D02*
X3827515Y-17397127D01*
X3827515Y-17397127D02*
X3817991Y-17425698D01*
X3817991Y-17425698D02*
X3703706Y-17539984D01*
X3703706Y-17539984D02*
X3827515Y-17539984D01*
X3998944Y-17406650D02*
X3998944Y-17539984D01*
X3951325Y-17330460D02*
X3903706Y-17473317D01*
X3903706Y-17473317D02*
X4027515Y-17473317D01*
X4256087Y-17539984D02*
X4256087Y-17339984D01*
X4341801Y-17539984D02*
X4341801Y-17435222D01*
X4341801Y-17435222D02*
X4332277Y-17416174D01*
X4332277Y-17416174D02*
X4313230Y-17406650D01*
X4313230Y-17406650D02*
X4284658Y-17406650D01*
X4284658Y-17406650D02*
X4265611Y-17416174D01*
X4265611Y-17416174D02*
X4256087Y-17425698D01*
X4465611Y-17539984D02*
X4446563Y-17530460D01*
X4446563Y-17530460D02*
X4437039Y-17520936D01*
X4437039Y-17520936D02*
X4427515Y-17501889D01*
X4427515Y-17501889D02*
X4427515Y-17444746D01*
X4427515Y-17444746D02*
X4437039Y-17425698D01*
X4437039Y-17425698D02*
X4446563Y-17416174D01*
X4446563Y-17416174D02*
X4465611Y-17406650D01*
X4465611Y-17406650D02*
X4494182Y-17406650D01*
X4494182Y-17406650D02*
X4513230Y-17416174D01*
X4513230Y-17416174D02*
X4522753Y-17425698D01*
X4522753Y-17425698D02*
X4532277Y-17444746D01*
X4532277Y-17444746D02*
X4532277Y-17501889D01*
X4532277Y-17501889D02*
X4522753Y-17520936D01*
X4522753Y-17520936D02*
X4513230Y-17530460D01*
X4513230Y-17530460D02*
X4494182Y-17539984D01*
X4494182Y-17539984D02*
X4465611Y-17539984D01*
X4646563Y-17539984D02*
X4627515Y-17530460D01*
X4627515Y-17530460D02*
X4617992Y-17511412D01*
X4617992Y-17511412D02*
X4617992Y-17339984D01*
X4798944Y-17530460D02*
X4779896Y-17539984D01*
X4779896Y-17539984D02*
X4741801Y-17539984D01*
X4741801Y-17539984D02*
X4722753Y-17530460D01*
X4722753Y-17530460D02*
X4713230Y-17511412D01*
X4713230Y-17511412D02*
X4713230Y-17435222D01*
X4713230Y-17435222D02*
X4722753Y-17416174D01*
X4722753Y-17416174D02*
X4741801Y-17406650D01*
X4741801Y-17406650D02*
X4779896Y-17406650D01*
X4779896Y-17406650D02*
X4798944Y-17416174D01*
X4798944Y-17416174D02*
X4808468Y-17435222D01*
X4808468Y-17435222D02*
X4808468Y-17454270D01*
X4808468Y-17454270D02*
X4713230Y-17473317D01*
X4884658Y-17530460D02*
X4903706Y-17539984D01*
X4903706Y-17539984D02*
X4941801Y-17539984D01*
X4941801Y-17539984D02*
X4960849Y-17530460D01*
X4960849Y-17530460D02*
X4970373Y-17511412D01*
X4970373Y-17511412D02*
X4970373Y-17501889D01*
X4970373Y-17501889D02*
X4960849Y-17482841D01*
X4960849Y-17482841D02*
X4941801Y-17473317D01*
X4941801Y-17473317D02*
X4913230Y-17473317D01*
X4913230Y-17473317D02*
X4894182Y-17463793D01*
X4894182Y-17463793D02*
X4884658Y-17444746D01*
X4884658Y-17444746D02*
X4884658Y-17435222D01*
X4884658Y-17435222D02*
X4894182Y-17416174D01*
X4894182Y-17416174D02*
X4913230Y-17406650D01*
X4913230Y-17406650D02*
X4941801Y-17406650D01*
X4941801Y-17406650D02*
X4960849Y-17416174D01*
X5037039Y-17616174D02*
X5046563Y-17606650D01*
X5046563Y-17606650D02*
X5065611Y-17578079D01*
X5065611Y-17578079D02*
X5075134Y-17559031D01*
X5075134Y-17559031D02*
X5084658Y-17530460D01*
X5084658Y-17530460D02*
X5094182Y-17482841D01*
X5094182Y-17482841D02*
X5094182Y-17444746D01*
X5094182Y-17444746D02*
X5084658Y-17397127D01*
X5084658Y-17397127D02*
X5075134Y-17368555D01*
X5075134Y-17368555D02*
X5065611Y-17349508D01*
X5065611Y-17349508D02*
X5046563Y-17320936D01*
X5046563Y-17320936D02*
X5037039Y-17311412D01*
D12*
X-28500Y-17662500D02*
X71500Y-17762500D01*
X71500Y-17662500D02*
X-28500Y-17762500D01*
X71500Y-17712500D02*
G75*
G02*
X-28500Y-17712500I-50000J0D01*
G01*
X-28500Y-17712500D02*
G75*
G02*
X71500Y-17712500I50000J0D01*
G01*
D11*
X437039Y-17803984D02*
X322753Y-17803984D01*
X379896Y-17803984D02*
X379896Y-17603984D01*
X379896Y-17603984D02*
X360848Y-17632555D01*
X360848Y-17632555D02*
X341801Y-17651603D01*
X341801Y-17651603D02*
X322753Y-17661127D01*
X522753Y-17784936D02*
X532277Y-17794460D01*
X532277Y-17794460D02*
X522753Y-17803984D01*
X522753Y-17803984D02*
X513229Y-17794460D01*
X513229Y-17794460D02*
X522753Y-17784936D01*
X522753Y-17784936D02*
X522753Y-17803984D01*
X656086Y-17603984D02*
X675134Y-17603984D01*
X675134Y-17603984D02*
X694182Y-17613508D01*
X694182Y-17613508D02*
X703705Y-17623031D01*
X703705Y-17623031D02*
X713229Y-17642079D01*
X713229Y-17642079D02*
X722753Y-17680174D01*
X722753Y-17680174D02*
X722753Y-17727793D01*
X722753Y-17727793D02*
X713229Y-17765889D01*
X713229Y-17765889D02*
X703705Y-17784936D01*
X703705Y-17784936D02*
X694182Y-17794460D01*
X694182Y-17794460D02*
X675134Y-17803984D01*
X675134Y-17803984D02*
X656086Y-17803984D01*
X656086Y-17803984D02*
X637039Y-17794460D01*
X637039Y-17794460D02*
X627515Y-17784936D01*
X627515Y-17784936D02*
X617991Y-17765889D01*
X617991Y-17765889D02*
X608467Y-17727793D01*
X608467Y-17727793D02*
X608467Y-17680174D01*
X608467Y-17680174D02*
X617991Y-17642079D01*
X617991Y-17642079D02*
X627515Y-17623031D01*
X627515Y-17623031D02*
X637039Y-17613508D01*
X637039Y-17613508D02*
X656086Y-17603984D01*
X846562Y-17603984D02*
X865610Y-17603984D01*
X865610Y-17603984D02*
X884658Y-17613508D01*
X884658Y-17613508D02*
X894182Y-17623031D01*
X894182Y-17623031D02*
X903705Y-17642079D01*
X903705Y-17642079D02*
X913229Y-17680174D01*
X913229Y-17680174D02*
X913229Y-17727793D01*
X913229Y-17727793D02*
X903705Y-17765889D01*
X903705Y-17765889D02*
X894182Y-17784936D01*
X894182Y-17784936D02*
X884658Y-17794460D01*
X884658Y-17794460D02*
X865610Y-17803984D01*
X865610Y-17803984D02*
X846562Y-17803984D01*
X846562Y-17803984D02*
X827515Y-17794460D01*
X827515Y-17794460D02*
X817991Y-17784936D01*
X817991Y-17784936D02*
X808467Y-17765889D01*
X808467Y-17765889D02*
X798943Y-17727793D01*
X798943Y-17727793D02*
X798943Y-17680174D01*
X798943Y-17680174D02*
X808467Y-17642079D01*
X808467Y-17642079D02*
X817991Y-17623031D01*
X817991Y-17623031D02*
X827515Y-17613508D01*
X827515Y-17613508D02*
X846562Y-17603984D01*
X1037039Y-17603984D02*
X1056086Y-17603984D01*
X1056086Y-17603984D02*
X1075134Y-17613508D01*
X1075134Y-17613508D02*
X1084658Y-17623031D01*
X1084658Y-17623031D02*
X1094182Y-17642079D01*
X1094182Y-17642079D02*
X1103705Y-17680174D01*
X1103705Y-17680174D02*
X1103705Y-17727793D01*
X1103705Y-17727793D02*
X1094182Y-17765889D01*
X1094182Y-17765889D02*
X1084658Y-17784936D01*
X1084658Y-17784936D02*
X1075134Y-17794460D01*
X1075134Y-17794460D02*
X1056086Y-17803984D01*
X1056086Y-17803984D02*
X1037039Y-17803984D01*
X1037039Y-17803984D02*
X1017991Y-17794460D01*
X1017991Y-17794460D02*
X1008467Y-17784936D01*
X1008467Y-17784936D02*
X998943Y-17765889D01*
X998943Y-17765889D02*
X989420Y-17727793D01*
X989420Y-17727793D02*
X989420Y-17680174D01*
X989420Y-17680174D02*
X998943Y-17642079D01*
X998943Y-17642079D02*
X1008467Y-17623031D01*
X1008467Y-17623031D02*
X1017991Y-17613508D01*
X1017991Y-17613508D02*
X1037039Y-17603984D01*
X1189420Y-17803984D02*
X1189420Y-17670650D01*
X1189420Y-17689698D02*
X1198944Y-17680174D01*
X1198944Y-17680174D02*
X1217991Y-17670650D01*
X1217991Y-17670650D02*
X1246563Y-17670650D01*
X1246563Y-17670650D02*
X1265610Y-17680174D01*
X1265610Y-17680174D02*
X1275134Y-17699222D01*
X1275134Y-17699222D02*
X1275134Y-17803984D01*
X1275134Y-17699222D02*
X1284658Y-17680174D01*
X1284658Y-17680174D02*
X1303705Y-17670650D01*
X1303705Y-17670650D02*
X1332277Y-17670650D01*
X1332277Y-17670650D02*
X1351325Y-17680174D01*
X1351325Y-17680174D02*
X1360848Y-17699222D01*
X1360848Y-17699222D02*
X1360848Y-17803984D01*
X1456086Y-17803984D02*
X1456086Y-17670650D01*
X1456086Y-17689698D02*
X1465610Y-17680174D01*
X1465610Y-17680174D02*
X1484658Y-17670650D01*
X1484658Y-17670650D02*
X1513229Y-17670650D01*
X1513229Y-17670650D02*
X1532277Y-17680174D01*
X1532277Y-17680174D02*
X1541801Y-17699222D01*
X1541801Y-17699222D02*
X1541801Y-17803984D01*
X1541801Y-17699222D02*
X1551324Y-17680174D01*
X1551324Y-17680174D02*
X1570372Y-17670650D01*
X1570372Y-17670650D02*
X1598943Y-17670650D01*
X1598943Y-17670650D02*
X1617991Y-17680174D01*
X1617991Y-17680174D02*
X1627515Y-17699222D01*
X1627515Y-17699222D02*
X1627515Y-17803984D01*
X2017991Y-17594460D02*
X1846563Y-17851603D01*
X2275134Y-17603984D02*
X2294182Y-17603984D01*
X2294182Y-17603984D02*
X2313229Y-17613508D01*
X2313229Y-17613508D02*
X2322753Y-17623031D01*
X2322753Y-17623031D02*
X2332277Y-17642079D01*
X2332277Y-17642079D02*
X2341801Y-17680174D01*
X2341801Y-17680174D02*
X2341801Y-17727793D01*
X2341801Y-17727793D02*
X2332277Y-17765889D01*
X2332277Y-17765889D02*
X2322753Y-17784936D01*
X2322753Y-17784936D02*
X2313229Y-17794460D01*
X2313229Y-17794460D02*
X2294182Y-17803984D01*
X2294182Y-17803984D02*
X2275134Y-17803984D01*
X2275134Y-17803984D02*
X2256087Y-17794460D01*
X2256087Y-17794460D02*
X2246563Y-17784936D01*
X2246563Y-17784936D02*
X2237039Y-17765889D01*
X2237039Y-17765889D02*
X2227515Y-17727793D01*
X2227515Y-17727793D02*
X2227515Y-17680174D01*
X2227515Y-17680174D02*
X2237039Y-17642079D01*
X2237039Y-17642079D02*
X2246563Y-17623031D01*
X2246563Y-17623031D02*
X2256087Y-17613508D01*
X2256087Y-17613508D02*
X2275134Y-17603984D01*
X2427515Y-17784936D02*
X2437039Y-17794460D01*
X2437039Y-17794460D02*
X2427515Y-17803984D01*
X2427515Y-17803984D02*
X2417991Y-17794460D01*
X2417991Y-17794460D02*
X2427515Y-17784936D01*
X2427515Y-17784936D02*
X2427515Y-17803984D01*
X2560848Y-17603984D02*
X2579896Y-17603984D01*
X2579896Y-17603984D02*
X2598944Y-17613508D01*
X2598944Y-17613508D02*
X2608468Y-17623031D01*
X2608468Y-17623031D02*
X2617991Y-17642079D01*
X2617991Y-17642079D02*
X2627515Y-17680174D01*
X2627515Y-17680174D02*
X2627515Y-17727793D01*
X2627515Y-17727793D02*
X2617991Y-17765889D01*
X2617991Y-17765889D02*
X2608468Y-17784936D01*
X2608468Y-17784936D02*
X2598944Y-17794460D01*
X2598944Y-17794460D02*
X2579896Y-17803984D01*
X2579896Y-17803984D02*
X2560848Y-17803984D01*
X2560848Y-17803984D02*
X2541801Y-17794460D01*
X2541801Y-17794460D02*
X2532277Y-17784936D01*
X2532277Y-17784936D02*
X2522753Y-17765889D01*
X2522753Y-17765889D02*
X2513229Y-17727793D01*
X2513229Y-17727793D02*
X2513229Y-17680174D01*
X2513229Y-17680174D02*
X2522753Y-17642079D01*
X2522753Y-17642079D02*
X2532277Y-17623031D01*
X2532277Y-17623031D02*
X2541801Y-17613508D01*
X2541801Y-17613508D02*
X2560848Y-17603984D01*
X2694182Y-17603984D02*
X2817991Y-17603984D01*
X2817991Y-17603984D02*
X2751325Y-17680174D01*
X2751325Y-17680174D02*
X2779896Y-17680174D01*
X2779896Y-17680174D02*
X2798944Y-17689698D01*
X2798944Y-17689698D02*
X2808467Y-17699222D01*
X2808467Y-17699222D02*
X2817991Y-17718270D01*
X2817991Y-17718270D02*
X2817991Y-17765889D01*
X2817991Y-17765889D02*
X2808467Y-17784936D01*
X2808467Y-17784936D02*
X2798944Y-17794460D01*
X2798944Y-17794460D02*
X2779896Y-17803984D01*
X2779896Y-17803984D02*
X2722753Y-17803984D01*
X2722753Y-17803984D02*
X2703706Y-17794460D01*
X2703706Y-17794460D02*
X2694182Y-17784936D01*
X2913229Y-17803984D02*
X2951325Y-17803984D01*
X2951325Y-17803984D02*
X2970372Y-17794460D01*
X2970372Y-17794460D02*
X2979896Y-17784936D01*
X2979896Y-17784936D02*
X2998944Y-17756365D01*
X2998944Y-17756365D02*
X3008467Y-17718270D01*
X3008467Y-17718270D02*
X3008467Y-17642079D01*
X3008467Y-17642079D02*
X2998944Y-17623031D01*
X2998944Y-17623031D02*
X2989420Y-17613508D01*
X2989420Y-17613508D02*
X2970372Y-17603984D01*
X2970372Y-17603984D02*
X2932277Y-17603984D01*
X2932277Y-17603984D02*
X2913229Y-17613508D01*
X2913229Y-17613508D02*
X2903706Y-17623031D01*
X2903706Y-17623031D02*
X2894182Y-17642079D01*
X2894182Y-17642079D02*
X2894182Y-17689698D01*
X2894182Y-17689698D02*
X2903706Y-17708746D01*
X2903706Y-17708746D02*
X2913229Y-17718270D01*
X2913229Y-17718270D02*
X2932277Y-17727793D01*
X2932277Y-17727793D02*
X2970372Y-17727793D01*
X2970372Y-17727793D02*
X2989420Y-17718270D01*
X2989420Y-17718270D02*
X2998944Y-17708746D01*
X2998944Y-17708746D02*
X3008467Y-17689698D01*
X3179896Y-17670650D02*
X3179896Y-17803984D01*
X3132277Y-17594460D02*
X3084658Y-17737317D01*
X3084658Y-17737317D02*
X3208467Y-17737317D01*
X3275134Y-17603984D02*
X3275134Y-17642079D01*
X3351325Y-17603984D02*
X3351325Y-17642079D01*
X3646563Y-17880174D02*
X3637039Y-17870650D01*
X3637039Y-17870650D02*
X3617991Y-17842079D01*
X3617991Y-17842079D02*
X3608468Y-17823031D01*
X3608468Y-17823031D02*
X3598944Y-17794460D01*
X3598944Y-17794460D02*
X3589420Y-17746841D01*
X3589420Y-17746841D02*
X3589420Y-17708746D01*
X3589420Y-17708746D02*
X3598944Y-17661127D01*
X3598944Y-17661127D02*
X3608468Y-17632555D01*
X3608468Y-17632555D02*
X3617991Y-17613508D01*
X3617991Y-17613508D02*
X3637039Y-17584936D01*
X3637039Y-17584936D02*
X3646563Y-17575412D01*
X3817991Y-17603984D02*
X3722753Y-17603984D01*
X3722753Y-17603984D02*
X3713229Y-17699222D01*
X3713229Y-17699222D02*
X3722753Y-17689698D01*
X3722753Y-17689698D02*
X3741801Y-17680174D01*
X3741801Y-17680174D02*
X3789420Y-17680174D01*
X3789420Y-17680174D02*
X3808468Y-17689698D01*
X3808468Y-17689698D02*
X3817991Y-17699222D01*
X3817991Y-17699222D02*
X3827515Y-17718270D01*
X3827515Y-17718270D02*
X3827515Y-17765889D01*
X3827515Y-17765889D02*
X3817991Y-17784936D01*
X3817991Y-17784936D02*
X3808468Y-17794460D01*
X3808468Y-17794460D02*
X3789420Y-17803984D01*
X3789420Y-17803984D02*
X3741801Y-17803984D01*
X3741801Y-17803984D02*
X3722753Y-17794460D01*
X3722753Y-17794460D02*
X3713229Y-17784936D01*
X3941801Y-17689698D02*
X3922753Y-17680174D01*
X3922753Y-17680174D02*
X3913229Y-17670650D01*
X3913229Y-17670650D02*
X3903706Y-17651603D01*
X3903706Y-17651603D02*
X3903706Y-17642079D01*
X3903706Y-17642079D02*
X3913229Y-17623031D01*
X3913229Y-17623031D02*
X3922753Y-17613508D01*
X3922753Y-17613508D02*
X3941801Y-17603984D01*
X3941801Y-17603984D02*
X3979896Y-17603984D01*
X3979896Y-17603984D02*
X3998944Y-17613508D01*
X3998944Y-17613508D02*
X4008468Y-17623031D01*
X4008468Y-17623031D02*
X4017991Y-17642079D01*
X4017991Y-17642079D02*
X4017991Y-17651603D01*
X4017991Y-17651603D02*
X4008468Y-17670650D01*
X4008468Y-17670650D02*
X3998944Y-17680174D01*
X3998944Y-17680174D02*
X3979896Y-17689698D01*
X3979896Y-17689698D02*
X3941801Y-17689698D01*
X3941801Y-17689698D02*
X3922753Y-17699222D01*
X3922753Y-17699222D02*
X3913229Y-17708746D01*
X3913229Y-17708746D02*
X3903706Y-17727793D01*
X3903706Y-17727793D02*
X3903706Y-17765889D01*
X3903706Y-17765889D02*
X3913229Y-17784936D01*
X3913229Y-17784936D02*
X3922753Y-17794460D01*
X3922753Y-17794460D02*
X3941801Y-17803984D01*
X3941801Y-17803984D02*
X3979896Y-17803984D01*
X3979896Y-17803984D02*
X3998944Y-17794460D01*
X3998944Y-17794460D02*
X4008468Y-17784936D01*
X4008468Y-17784936D02*
X4017991Y-17765889D01*
X4017991Y-17765889D02*
X4017991Y-17727793D01*
X4017991Y-17727793D02*
X4008468Y-17708746D01*
X4008468Y-17708746D02*
X3998944Y-17699222D01*
X3998944Y-17699222D02*
X3979896Y-17689698D01*
X4256087Y-17803984D02*
X4256087Y-17603984D01*
X4341801Y-17803984D02*
X4341801Y-17699222D01*
X4341801Y-17699222D02*
X4332277Y-17680174D01*
X4332277Y-17680174D02*
X4313230Y-17670650D01*
X4313230Y-17670650D02*
X4284658Y-17670650D01*
X4284658Y-17670650D02*
X4265611Y-17680174D01*
X4265611Y-17680174D02*
X4256087Y-17689698D01*
X4465611Y-17803984D02*
X4446563Y-17794460D01*
X4446563Y-17794460D02*
X4437039Y-17784936D01*
X4437039Y-17784936D02*
X4427515Y-17765889D01*
X4427515Y-17765889D02*
X4427515Y-17708746D01*
X4427515Y-17708746D02*
X4437039Y-17689698D01*
X4437039Y-17689698D02*
X4446563Y-17680174D01*
X4446563Y-17680174D02*
X4465611Y-17670650D01*
X4465611Y-17670650D02*
X4494182Y-17670650D01*
X4494182Y-17670650D02*
X4513230Y-17680174D01*
X4513230Y-17680174D02*
X4522753Y-17689698D01*
X4522753Y-17689698D02*
X4532277Y-17708746D01*
X4532277Y-17708746D02*
X4532277Y-17765889D01*
X4532277Y-17765889D02*
X4522753Y-17784936D01*
X4522753Y-17784936D02*
X4513230Y-17794460D01*
X4513230Y-17794460D02*
X4494182Y-17803984D01*
X4494182Y-17803984D02*
X4465611Y-17803984D01*
X4646563Y-17803984D02*
X4627515Y-17794460D01*
X4627515Y-17794460D02*
X4617992Y-17775412D01*
X4617992Y-17775412D02*
X4617992Y-17603984D01*
X4798944Y-17794460D02*
X4779896Y-17803984D01*
X4779896Y-17803984D02*
X4741801Y-17803984D01*
X4741801Y-17803984D02*
X4722753Y-17794460D01*
X4722753Y-17794460D02*
X4713230Y-17775412D01*
X4713230Y-17775412D02*
X4713230Y-17699222D01*
X4713230Y-17699222D02*
X4722753Y-17680174D01*
X4722753Y-17680174D02*
X4741801Y-17670650D01*
X4741801Y-17670650D02*
X4779896Y-17670650D01*
X4779896Y-17670650D02*
X4798944Y-17680174D01*
X4798944Y-17680174D02*
X4808468Y-17699222D01*
X4808468Y-17699222D02*
X4808468Y-17718270D01*
X4808468Y-17718270D02*
X4713230Y-17737317D01*
X4884658Y-17794460D02*
X4903706Y-17803984D01*
X4903706Y-17803984D02*
X4941801Y-17803984D01*
X4941801Y-17803984D02*
X4960849Y-17794460D01*
X4960849Y-17794460D02*
X4970373Y-17775412D01*
X4970373Y-17775412D02*
X4970373Y-17765889D01*
X4970373Y-17765889D02*
X4960849Y-17746841D01*
X4960849Y-17746841D02*
X4941801Y-17737317D01*
X4941801Y-17737317D02*
X4913230Y-17737317D01*
X4913230Y-17737317D02*
X4894182Y-17727793D01*
X4894182Y-17727793D02*
X4884658Y-17708746D01*
X4884658Y-17708746D02*
X4884658Y-17699222D01*
X4884658Y-17699222D02*
X4894182Y-17680174D01*
X4894182Y-17680174D02*
X4913230Y-17670650D01*
X4913230Y-17670650D02*
X4941801Y-17670650D01*
X4941801Y-17670650D02*
X4960849Y-17680174D01*
X5037039Y-17880174D02*
X5046563Y-17870650D01*
X5046563Y-17870650D02*
X5065611Y-17842079D01*
X5065611Y-17842079D02*
X5075134Y-17823031D01*
X5075134Y-17823031D02*
X5084658Y-17794460D01*
X5084658Y-17794460D02*
X5094182Y-17746841D01*
X5094182Y-17746841D02*
X5094182Y-17708746D01*
X5094182Y-17708746D02*
X5084658Y-17661127D01*
X5084658Y-17661127D02*
X5075134Y-17632555D01*
X5075134Y-17632555D02*
X5065611Y-17613508D01*
X5065611Y-17613508D02*
X5046563Y-17584936D01*
X5046563Y-17584936D02*
X5037039Y-17575412D01*
D13*
X-38500Y-17921500D02*
X71500Y-18031500D01*
X71500Y-17921500D02*
X-38500Y-18031500D01*
X16500Y-17921500D02*
X16500Y-18031500D01*
X-38500Y-17976500D02*
X71500Y-17976500D01*
D11*
X437039Y-18067984D02*
X322753Y-18067984D01*
X379896Y-18067984D02*
X379896Y-17867984D01*
X379896Y-17867984D02*
X360848Y-17896555D01*
X360848Y-17896555D02*
X341801Y-17915603D01*
X341801Y-17915603D02*
X322753Y-17925127D01*
X522753Y-18048936D02*
X532277Y-18058460D01*
X532277Y-18058460D02*
X522753Y-18067984D01*
X522753Y-18067984D02*
X513229Y-18058460D01*
X513229Y-18058460D02*
X522753Y-18048936D01*
X522753Y-18048936D02*
X522753Y-18067984D01*
X722753Y-18067984D02*
X608467Y-18067984D01*
X665610Y-18067984D02*
X665610Y-17867984D01*
X665610Y-17867984D02*
X646563Y-17896555D01*
X646563Y-17896555D02*
X627515Y-17915603D01*
X627515Y-17915603D02*
X608467Y-17925127D01*
X846562Y-17867984D02*
X865610Y-17867984D01*
X865610Y-17867984D02*
X884658Y-17877508D01*
X884658Y-17877508D02*
X894182Y-17887031D01*
X894182Y-17887031D02*
X903705Y-17906079D01*
X903705Y-17906079D02*
X913229Y-17944174D01*
X913229Y-17944174D02*
X913229Y-17991793D01*
X913229Y-17991793D02*
X903705Y-18029889D01*
X903705Y-18029889D02*
X894182Y-18048936D01*
X894182Y-18048936D02*
X884658Y-18058460D01*
X884658Y-18058460D02*
X865610Y-18067984D01*
X865610Y-18067984D02*
X846562Y-18067984D01*
X846562Y-18067984D02*
X827515Y-18058460D01*
X827515Y-18058460D02*
X817991Y-18048936D01*
X817991Y-18048936D02*
X808467Y-18029889D01*
X808467Y-18029889D02*
X798943Y-17991793D01*
X798943Y-17991793D02*
X798943Y-17944174D01*
X798943Y-17944174D02*
X808467Y-17906079D01*
X808467Y-17906079D02*
X817991Y-17887031D01*
X817991Y-17887031D02*
X827515Y-17877508D01*
X827515Y-17877508D02*
X846562Y-17867984D01*
X1037039Y-17867984D02*
X1056086Y-17867984D01*
X1056086Y-17867984D02*
X1075134Y-17877508D01*
X1075134Y-17877508D02*
X1084658Y-17887031D01*
X1084658Y-17887031D02*
X1094182Y-17906079D01*
X1094182Y-17906079D02*
X1103705Y-17944174D01*
X1103705Y-17944174D02*
X1103705Y-17991793D01*
X1103705Y-17991793D02*
X1094182Y-18029889D01*
X1094182Y-18029889D02*
X1084658Y-18048936D01*
X1084658Y-18048936D02*
X1075134Y-18058460D01*
X1075134Y-18058460D02*
X1056086Y-18067984D01*
X1056086Y-18067984D02*
X1037039Y-18067984D01*
X1037039Y-18067984D02*
X1017991Y-18058460D01*
X1017991Y-18058460D02*
X1008467Y-18048936D01*
X1008467Y-18048936D02*
X998943Y-18029889D01*
X998943Y-18029889D02*
X989420Y-17991793D01*
X989420Y-17991793D02*
X989420Y-17944174D01*
X989420Y-17944174D02*
X998943Y-17906079D01*
X998943Y-17906079D02*
X1008467Y-17887031D01*
X1008467Y-17887031D02*
X1017991Y-17877508D01*
X1017991Y-17877508D02*
X1037039Y-17867984D01*
X1189420Y-18067984D02*
X1189420Y-17934650D01*
X1189420Y-17953698D02*
X1198944Y-17944174D01*
X1198944Y-17944174D02*
X1217991Y-17934650D01*
X1217991Y-17934650D02*
X1246563Y-17934650D01*
X1246563Y-17934650D02*
X1265610Y-17944174D01*
X1265610Y-17944174D02*
X1275134Y-17963222D01*
X1275134Y-17963222D02*
X1275134Y-18067984D01*
X1275134Y-17963222D02*
X1284658Y-17944174D01*
X1284658Y-17944174D02*
X1303705Y-17934650D01*
X1303705Y-17934650D02*
X1332277Y-17934650D01*
X1332277Y-17934650D02*
X1351325Y-17944174D01*
X1351325Y-17944174D02*
X1360848Y-17963222D01*
X1360848Y-17963222D02*
X1360848Y-18067984D01*
X1456086Y-18067984D02*
X1456086Y-17934650D01*
X1456086Y-17953698D02*
X1465610Y-17944174D01*
X1465610Y-17944174D02*
X1484658Y-17934650D01*
X1484658Y-17934650D02*
X1513229Y-17934650D01*
X1513229Y-17934650D02*
X1532277Y-17944174D01*
X1532277Y-17944174D02*
X1541801Y-17963222D01*
X1541801Y-17963222D02*
X1541801Y-18067984D01*
X1541801Y-17963222D02*
X1551324Y-17944174D01*
X1551324Y-17944174D02*
X1570372Y-17934650D01*
X1570372Y-17934650D02*
X1598943Y-17934650D01*
X1598943Y-17934650D02*
X1617991Y-17944174D01*
X1617991Y-17944174D02*
X1627515Y-17963222D01*
X1627515Y-17963222D02*
X1627515Y-18067984D01*
X2017991Y-17858460D02*
X1846563Y-18115603D01*
X2275134Y-17867984D02*
X2294182Y-17867984D01*
X2294182Y-17867984D02*
X2313229Y-17877508D01*
X2313229Y-17877508D02*
X2322753Y-17887031D01*
X2322753Y-17887031D02*
X2332277Y-17906079D01*
X2332277Y-17906079D02*
X2341801Y-17944174D01*
X2341801Y-17944174D02*
X2341801Y-17991793D01*
X2341801Y-17991793D02*
X2332277Y-18029889D01*
X2332277Y-18029889D02*
X2322753Y-18048936D01*
X2322753Y-18048936D02*
X2313229Y-18058460D01*
X2313229Y-18058460D02*
X2294182Y-18067984D01*
X2294182Y-18067984D02*
X2275134Y-18067984D01*
X2275134Y-18067984D02*
X2256087Y-18058460D01*
X2256087Y-18058460D02*
X2246563Y-18048936D01*
X2246563Y-18048936D02*
X2237039Y-18029889D01*
X2237039Y-18029889D02*
X2227515Y-17991793D01*
X2227515Y-17991793D02*
X2227515Y-17944174D01*
X2227515Y-17944174D02*
X2237039Y-17906079D01*
X2237039Y-17906079D02*
X2246563Y-17887031D01*
X2246563Y-17887031D02*
X2256087Y-17877508D01*
X2256087Y-17877508D02*
X2275134Y-17867984D01*
X2427515Y-18048936D02*
X2437039Y-18058460D01*
X2437039Y-18058460D02*
X2427515Y-18067984D01*
X2427515Y-18067984D02*
X2417991Y-18058460D01*
X2417991Y-18058460D02*
X2427515Y-18048936D01*
X2427515Y-18048936D02*
X2427515Y-18067984D01*
X2560848Y-17867984D02*
X2579896Y-17867984D01*
X2579896Y-17867984D02*
X2598944Y-17877508D01*
X2598944Y-17877508D02*
X2608468Y-17887031D01*
X2608468Y-17887031D02*
X2617991Y-17906079D01*
X2617991Y-17906079D02*
X2627515Y-17944174D01*
X2627515Y-17944174D02*
X2627515Y-17991793D01*
X2627515Y-17991793D02*
X2617991Y-18029889D01*
X2617991Y-18029889D02*
X2608468Y-18048936D01*
X2608468Y-18048936D02*
X2598944Y-18058460D01*
X2598944Y-18058460D02*
X2579896Y-18067984D01*
X2579896Y-18067984D02*
X2560848Y-18067984D01*
X2560848Y-18067984D02*
X2541801Y-18058460D01*
X2541801Y-18058460D02*
X2532277Y-18048936D01*
X2532277Y-18048936D02*
X2522753Y-18029889D01*
X2522753Y-18029889D02*
X2513229Y-17991793D01*
X2513229Y-17991793D02*
X2513229Y-17944174D01*
X2513229Y-17944174D02*
X2522753Y-17906079D01*
X2522753Y-17906079D02*
X2532277Y-17887031D01*
X2532277Y-17887031D02*
X2541801Y-17877508D01*
X2541801Y-17877508D02*
X2560848Y-17867984D01*
X2798944Y-17934650D02*
X2798944Y-18067984D01*
X2751325Y-17858460D02*
X2703706Y-18001317D01*
X2703706Y-18001317D02*
X2827515Y-18001317D01*
X2884658Y-17867984D02*
X3008467Y-17867984D01*
X3008467Y-17867984D02*
X2941801Y-17944174D01*
X2941801Y-17944174D02*
X2970372Y-17944174D01*
X2970372Y-17944174D02*
X2989420Y-17953698D01*
X2989420Y-17953698D02*
X2998944Y-17963222D01*
X2998944Y-17963222D02*
X3008467Y-17982270D01*
X3008467Y-17982270D02*
X3008467Y-18029889D01*
X3008467Y-18029889D02*
X2998944Y-18048936D01*
X2998944Y-18048936D02*
X2989420Y-18058460D01*
X2989420Y-18058460D02*
X2970372Y-18067984D01*
X2970372Y-18067984D02*
X2913229Y-18067984D01*
X2913229Y-18067984D02*
X2894182Y-18058460D01*
X2894182Y-18058460D02*
X2884658Y-18048936D01*
X3075134Y-17867984D02*
X3198944Y-17867984D01*
X3198944Y-17867984D02*
X3132277Y-17944174D01*
X3132277Y-17944174D02*
X3160848Y-17944174D01*
X3160848Y-17944174D02*
X3179896Y-17953698D01*
X3179896Y-17953698D02*
X3189420Y-17963222D01*
X3189420Y-17963222D02*
X3198944Y-17982270D01*
X3198944Y-17982270D02*
X3198944Y-18029889D01*
X3198944Y-18029889D02*
X3189420Y-18048936D01*
X3189420Y-18048936D02*
X3179896Y-18058460D01*
X3179896Y-18058460D02*
X3160848Y-18067984D01*
X3160848Y-18067984D02*
X3103706Y-18067984D01*
X3103706Y-18067984D02*
X3084658Y-18058460D01*
X3084658Y-18058460D02*
X3075134Y-18048936D01*
X3275134Y-17867984D02*
X3275134Y-17906079D01*
X3351325Y-17867984D02*
X3351325Y-17906079D01*
X3646563Y-18144174D02*
X3637039Y-18134650D01*
X3637039Y-18134650D02*
X3617991Y-18106079D01*
X3617991Y-18106079D02*
X3608468Y-18087031D01*
X3608468Y-18087031D02*
X3598944Y-18058460D01*
X3598944Y-18058460D02*
X3589420Y-18010841D01*
X3589420Y-18010841D02*
X3589420Y-17972746D01*
X3589420Y-17972746D02*
X3598944Y-17925127D01*
X3598944Y-17925127D02*
X3608468Y-17896555D01*
X3608468Y-17896555D02*
X3617991Y-17877508D01*
X3617991Y-17877508D02*
X3637039Y-17848936D01*
X3637039Y-17848936D02*
X3646563Y-17839412D01*
X3732277Y-18067984D02*
X3770372Y-18067984D01*
X3770372Y-18067984D02*
X3789420Y-18058460D01*
X3789420Y-18058460D02*
X3798944Y-18048936D01*
X3798944Y-18048936D02*
X3817991Y-18020365D01*
X3817991Y-18020365D02*
X3827515Y-17982270D01*
X3827515Y-17982270D02*
X3827515Y-17906079D01*
X3827515Y-17906079D02*
X3817991Y-17887031D01*
X3817991Y-17887031D02*
X3808468Y-17877508D01*
X3808468Y-17877508D02*
X3789420Y-17867984D01*
X3789420Y-17867984D02*
X3751325Y-17867984D01*
X3751325Y-17867984D02*
X3732277Y-17877508D01*
X3732277Y-17877508D02*
X3722753Y-17887031D01*
X3722753Y-17887031D02*
X3713229Y-17906079D01*
X3713229Y-17906079D02*
X3713229Y-17953698D01*
X3713229Y-17953698D02*
X3722753Y-17972746D01*
X3722753Y-17972746D02*
X3732277Y-17982270D01*
X3732277Y-17982270D02*
X3751325Y-17991793D01*
X3751325Y-17991793D02*
X3789420Y-17991793D01*
X3789420Y-17991793D02*
X3808468Y-17982270D01*
X3808468Y-17982270D02*
X3817991Y-17972746D01*
X3817991Y-17972746D02*
X3827515Y-17953698D01*
X3998944Y-17867984D02*
X3960848Y-17867984D01*
X3960848Y-17867984D02*
X3941801Y-17877508D01*
X3941801Y-17877508D02*
X3932277Y-17887031D01*
X3932277Y-17887031D02*
X3913229Y-17915603D01*
X3913229Y-17915603D02*
X3903706Y-17953698D01*
X3903706Y-17953698D02*
X3903706Y-18029889D01*
X3903706Y-18029889D02*
X3913229Y-18048936D01*
X3913229Y-18048936D02*
X3922753Y-18058460D01*
X3922753Y-18058460D02*
X3941801Y-18067984D01*
X3941801Y-18067984D02*
X3979896Y-18067984D01*
X3979896Y-18067984D02*
X3998944Y-18058460D01*
X3998944Y-18058460D02*
X4008468Y-18048936D01*
X4008468Y-18048936D02*
X4017991Y-18029889D01*
X4017991Y-18029889D02*
X4017991Y-17982270D01*
X4017991Y-17982270D02*
X4008468Y-17963222D01*
X4008468Y-17963222D02*
X3998944Y-17953698D01*
X3998944Y-17953698D02*
X3979896Y-17944174D01*
X3979896Y-17944174D02*
X3941801Y-17944174D01*
X3941801Y-17944174D02*
X3922753Y-17953698D01*
X3922753Y-17953698D02*
X3913229Y-17963222D01*
X3913229Y-17963222D02*
X3903706Y-17982270D01*
X4256087Y-18067984D02*
X4256087Y-17867984D01*
X4341801Y-18067984D02*
X4341801Y-17963222D01*
X4341801Y-17963222D02*
X4332277Y-17944174D01*
X4332277Y-17944174D02*
X4313230Y-17934650D01*
X4313230Y-17934650D02*
X4284658Y-17934650D01*
X4284658Y-17934650D02*
X4265611Y-17944174D01*
X4265611Y-17944174D02*
X4256087Y-17953698D01*
X4465611Y-18067984D02*
X4446563Y-18058460D01*
X4446563Y-18058460D02*
X4437039Y-18048936D01*
X4437039Y-18048936D02*
X4427515Y-18029889D01*
X4427515Y-18029889D02*
X4427515Y-17972746D01*
X4427515Y-17972746D02*
X4437039Y-17953698D01*
X4437039Y-17953698D02*
X4446563Y-17944174D01*
X4446563Y-17944174D02*
X4465611Y-17934650D01*
X4465611Y-17934650D02*
X4494182Y-17934650D01*
X4494182Y-17934650D02*
X4513230Y-17944174D01*
X4513230Y-17944174D02*
X4522753Y-17953698D01*
X4522753Y-17953698D02*
X4532277Y-17972746D01*
X4532277Y-17972746D02*
X4532277Y-18029889D01*
X4532277Y-18029889D02*
X4522753Y-18048936D01*
X4522753Y-18048936D02*
X4513230Y-18058460D01*
X4513230Y-18058460D02*
X4494182Y-18067984D01*
X4494182Y-18067984D02*
X4465611Y-18067984D01*
X4646563Y-18067984D02*
X4627515Y-18058460D01*
X4627515Y-18058460D02*
X4617992Y-18039412D01*
X4617992Y-18039412D02*
X4617992Y-17867984D01*
X4798944Y-18058460D02*
X4779896Y-18067984D01*
X4779896Y-18067984D02*
X4741801Y-18067984D01*
X4741801Y-18067984D02*
X4722753Y-18058460D01*
X4722753Y-18058460D02*
X4713230Y-18039412D01*
X4713230Y-18039412D02*
X4713230Y-17963222D01*
X4713230Y-17963222D02*
X4722753Y-17944174D01*
X4722753Y-17944174D02*
X4741801Y-17934650D01*
X4741801Y-17934650D02*
X4779896Y-17934650D01*
X4779896Y-17934650D02*
X4798944Y-17944174D01*
X4798944Y-17944174D02*
X4808468Y-17963222D01*
X4808468Y-17963222D02*
X4808468Y-17982270D01*
X4808468Y-17982270D02*
X4713230Y-18001317D01*
X4884658Y-18058460D02*
X4903706Y-18067984D01*
X4903706Y-18067984D02*
X4941801Y-18067984D01*
X4941801Y-18067984D02*
X4960849Y-18058460D01*
X4960849Y-18058460D02*
X4970373Y-18039412D01*
X4970373Y-18039412D02*
X4970373Y-18029889D01*
X4970373Y-18029889D02*
X4960849Y-18010841D01*
X4960849Y-18010841D02*
X4941801Y-18001317D01*
X4941801Y-18001317D02*
X4913230Y-18001317D01*
X4913230Y-18001317D02*
X4894182Y-17991793D01*
X4894182Y-17991793D02*
X4884658Y-17972746D01*
X4884658Y-17972746D02*
X4884658Y-17963222D01*
X4884658Y-17963222D02*
X4894182Y-17944174D01*
X4894182Y-17944174D02*
X4913230Y-17934650D01*
X4913230Y-17934650D02*
X4941801Y-17934650D01*
X4941801Y-17934650D02*
X4960849Y-17944174D01*
X5037039Y-18144174D02*
X5046563Y-18134650D01*
X5046563Y-18134650D02*
X5065611Y-18106079D01*
X5065611Y-18106079D02*
X5075134Y-18087031D01*
X5075134Y-18087031D02*
X5084658Y-18058460D01*
X5084658Y-18058460D02*
X5094182Y-18010841D01*
X5094182Y-18010841D02*
X5094182Y-17972746D01*
X5094182Y-17972746D02*
X5084658Y-17925127D01*
X5084658Y-17925127D02*
X5075134Y-17896555D01*
X5075134Y-17896555D02*
X5065611Y-17877508D01*
X5065611Y-17877508D02*
X5046563Y-17848936D01*
X5046563Y-17848936D02*
X5037039Y-17839412D01*
D14*
X-58500Y-18175500D02*
X71500Y-18305500D01*
X71500Y-18175500D02*
X-58500Y-18305500D01*
X52462Y-18286462D02*
X52462Y-18194538D01*
X-39462Y-18194538D01*
X-39462Y-18286462D01*
X52462Y-18286462D01*
D11*
X437039Y-18331984D02*
X322753Y-18331984D01*
X379896Y-18331984D02*
X379896Y-18131984D01*
X379896Y-18131984D02*
X360848Y-18160555D01*
X360848Y-18160555D02*
X341801Y-18179603D01*
X341801Y-18179603D02*
X322753Y-18189127D01*
X522753Y-18312936D02*
X532277Y-18322460D01*
X532277Y-18322460D02*
X522753Y-18331984D01*
X522753Y-18331984D02*
X513229Y-18322460D01*
X513229Y-18322460D02*
X522753Y-18312936D01*
X522753Y-18312936D02*
X522753Y-18331984D01*
X598944Y-18131984D02*
X722753Y-18131984D01*
X722753Y-18131984D02*
X656086Y-18208174D01*
X656086Y-18208174D02*
X684658Y-18208174D01*
X684658Y-18208174D02*
X703705Y-18217698D01*
X703705Y-18217698D02*
X713229Y-18227222D01*
X713229Y-18227222D02*
X722753Y-18246270D01*
X722753Y-18246270D02*
X722753Y-18293889D01*
X722753Y-18293889D02*
X713229Y-18312936D01*
X713229Y-18312936D02*
X703705Y-18322460D01*
X703705Y-18322460D02*
X684658Y-18331984D01*
X684658Y-18331984D02*
X627515Y-18331984D01*
X627515Y-18331984D02*
X608467Y-18322460D01*
X608467Y-18322460D02*
X598944Y-18312936D01*
X846562Y-18131984D02*
X865610Y-18131984D01*
X865610Y-18131984D02*
X884658Y-18141508D01*
X884658Y-18141508D02*
X894182Y-18151031D01*
X894182Y-18151031D02*
X903705Y-18170079D01*
X903705Y-18170079D02*
X913229Y-18208174D01*
X913229Y-18208174D02*
X913229Y-18255793D01*
X913229Y-18255793D02*
X903705Y-18293889D01*
X903705Y-18293889D02*
X894182Y-18312936D01*
X894182Y-18312936D02*
X884658Y-18322460D01*
X884658Y-18322460D02*
X865610Y-18331984D01*
X865610Y-18331984D02*
X846562Y-18331984D01*
X846562Y-18331984D02*
X827515Y-18322460D01*
X827515Y-18322460D02*
X817991Y-18312936D01*
X817991Y-18312936D02*
X808467Y-18293889D01*
X808467Y-18293889D02*
X798943Y-18255793D01*
X798943Y-18255793D02*
X798943Y-18208174D01*
X798943Y-18208174D02*
X808467Y-18170079D01*
X808467Y-18170079D02*
X817991Y-18151031D01*
X817991Y-18151031D02*
X827515Y-18141508D01*
X827515Y-18141508D02*
X846562Y-18131984D01*
X1037039Y-18131984D02*
X1056086Y-18131984D01*
X1056086Y-18131984D02*
X1075134Y-18141508D01*
X1075134Y-18141508D02*
X1084658Y-18151031D01*
X1084658Y-18151031D02*
X1094182Y-18170079D01*
X1094182Y-18170079D02*
X1103705Y-18208174D01*
X1103705Y-18208174D02*
X1103705Y-18255793D01*
X1103705Y-18255793D02*
X1094182Y-18293889D01*
X1094182Y-18293889D02*
X1084658Y-18312936D01*
X1084658Y-18312936D02*
X1075134Y-18322460D01*
X1075134Y-18322460D02*
X1056086Y-18331984D01*
X1056086Y-18331984D02*
X1037039Y-18331984D01*
X1037039Y-18331984D02*
X1017991Y-18322460D01*
X1017991Y-18322460D02*
X1008467Y-18312936D01*
X1008467Y-18312936D02*
X998943Y-18293889D01*
X998943Y-18293889D02*
X989420Y-18255793D01*
X989420Y-18255793D02*
X989420Y-18208174D01*
X989420Y-18208174D02*
X998943Y-18170079D01*
X998943Y-18170079D02*
X1008467Y-18151031D01*
X1008467Y-18151031D02*
X1017991Y-18141508D01*
X1017991Y-18141508D02*
X1037039Y-18131984D01*
X1189420Y-18331984D02*
X1189420Y-18198650D01*
X1189420Y-18217698D02*
X1198944Y-18208174D01*
X1198944Y-18208174D02*
X1217991Y-18198650D01*
X1217991Y-18198650D02*
X1246563Y-18198650D01*
X1246563Y-18198650D02*
X1265610Y-18208174D01*
X1265610Y-18208174D02*
X1275134Y-18227222D01*
X1275134Y-18227222D02*
X1275134Y-18331984D01*
X1275134Y-18227222D02*
X1284658Y-18208174D01*
X1284658Y-18208174D02*
X1303705Y-18198650D01*
X1303705Y-18198650D02*
X1332277Y-18198650D01*
X1332277Y-18198650D02*
X1351325Y-18208174D01*
X1351325Y-18208174D02*
X1360848Y-18227222D01*
X1360848Y-18227222D02*
X1360848Y-18331984D01*
X1456086Y-18331984D02*
X1456086Y-18198650D01*
X1456086Y-18217698D02*
X1465610Y-18208174D01*
X1465610Y-18208174D02*
X1484658Y-18198650D01*
X1484658Y-18198650D02*
X1513229Y-18198650D01*
X1513229Y-18198650D02*
X1532277Y-18208174D01*
X1532277Y-18208174D02*
X1541801Y-18227222D01*
X1541801Y-18227222D02*
X1541801Y-18331984D01*
X1541801Y-18227222D02*
X1551324Y-18208174D01*
X1551324Y-18208174D02*
X1570372Y-18198650D01*
X1570372Y-18198650D02*
X1598943Y-18198650D01*
X1598943Y-18198650D02*
X1617991Y-18208174D01*
X1617991Y-18208174D02*
X1627515Y-18227222D01*
X1627515Y-18227222D02*
X1627515Y-18331984D01*
X2017991Y-18122460D02*
X1846563Y-18379603D01*
X2275134Y-18131984D02*
X2294182Y-18131984D01*
X2294182Y-18131984D02*
X2313229Y-18141508D01*
X2313229Y-18141508D02*
X2322753Y-18151031D01*
X2322753Y-18151031D02*
X2332277Y-18170079D01*
X2332277Y-18170079D02*
X2341801Y-18208174D01*
X2341801Y-18208174D02*
X2341801Y-18255793D01*
X2341801Y-18255793D02*
X2332277Y-18293889D01*
X2332277Y-18293889D02*
X2322753Y-18312936D01*
X2322753Y-18312936D02*
X2313229Y-18322460D01*
X2313229Y-18322460D02*
X2294182Y-18331984D01*
X2294182Y-18331984D02*
X2275134Y-18331984D01*
X2275134Y-18331984D02*
X2256087Y-18322460D01*
X2256087Y-18322460D02*
X2246563Y-18312936D01*
X2246563Y-18312936D02*
X2237039Y-18293889D01*
X2237039Y-18293889D02*
X2227515Y-18255793D01*
X2227515Y-18255793D02*
X2227515Y-18208174D01*
X2227515Y-18208174D02*
X2237039Y-18170079D01*
X2237039Y-18170079D02*
X2246563Y-18151031D01*
X2246563Y-18151031D02*
X2256087Y-18141508D01*
X2256087Y-18141508D02*
X2275134Y-18131984D01*
X2427515Y-18312936D02*
X2437039Y-18322460D01*
X2437039Y-18322460D02*
X2427515Y-18331984D01*
X2427515Y-18331984D02*
X2417991Y-18322460D01*
X2417991Y-18322460D02*
X2427515Y-18312936D01*
X2427515Y-18312936D02*
X2427515Y-18331984D01*
X2560848Y-18131984D02*
X2579896Y-18131984D01*
X2579896Y-18131984D02*
X2598944Y-18141508D01*
X2598944Y-18141508D02*
X2608468Y-18151031D01*
X2608468Y-18151031D02*
X2617991Y-18170079D01*
X2617991Y-18170079D02*
X2627515Y-18208174D01*
X2627515Y-18208174D02*
X2627515Y-18255793D01*
X2627515Y-18255793D02*
X2617991Y-18293889D01*
X2617991Y-18293889D02*
X2608468Y-18312936D01*
X2608468Y-18312936D02*
X2598944Y-18322460D01*
X2598944Y-18322460D02*
X2579896Y-18331984D01*
X2579896Y-18331984D02*
X2560848Y-18331984D01*
X2560848Y-18331984D02*
X2541801Y-18322460D01*
X2541801Y-18322460D02*
X2532277Y-18312936D01*
X2532277Y-18312936D02*
X2522753Y-18293889D01*
X2522753Y-18293889D02*
X2513229Y-18255793D01*
X2513229Y-18255793D02*
X2513229Y-18208174D01*
X2513229Y-18208174D02*
X2522753Y-18170079D01*
X2522753Y-18170079D02*
X2532277Y-18151031D01*
X2532277Y-18151031D02*
X2541801Y-18141508D01*
X2541801Y-18141508D02*
X2560848Y-18131984D01*
X2808467Y-18131984D02*
X2713229Y-18131984D01*
X2713229Y-18131984D02*
X2703706Y-18227222D01*
X2703706Y-18227222D02*
X2713229Y-18217698D01*
X2713229Y-18217698D02*
X2732277Y-18208174D01*
X2732277Y-18208174D02*
X2779896Y-18208174D01*
X2779896Y-18208174D02*
X2798944Y-18217698D01*
X2798944Y-18217698D02*
X2808467Y-18227222D01*
X2808467Y-18227222D02*
X2817991Y-18246270D01*
X2817991Y-18246270D02*
X2817991Y-18293889D01*
X2817991Y-18293889D02*
X2808467Y-18312936D01*
X2808467Y-18312936D02*
X2798944Y-18322460D01*
X2798944Y-18322460D02*
X2779896Y-18331984D01*
X2779896Y-18331984D02*
X2732277Y-18331984D01*
X2732277Y-18331984D02*
X2713229Y-18322460D01*
X2713229Y-18322460D02*
X2703706Y-18312936D01*
X3008467Y-18331984D02*
X2894182Y-18331984D01*
X2951325Y-18331984D02*
X2951325Y-18131984D01*
X2951325Y-18131984D02*
X2932277Y-18160555D01*
X2932277Y-18160555D02*
X2913229Y-18179603D01*
X2913229Y-18179603D02*
X2894182Y-18189127D01*
X3084658Y-18151031D02*
X3094182Y-18141508D01*
X3094182Y-18141508D02*
X3113229Y-18131984D01*
X3113229Y-18131984D02*
X3160848Y-18131984D01*
X3160848Y-18131984D02*
X3179896Y-18141508D01*
X3179896Y-18141508D02*
X3189420Y-18151031D01*
X3189420Y-18151031D02*
X3198944Y-18170079D01*
X3198944Y-18170079D02*
X3198944Y-18189127D01*
X3198944Y-18189127D02*
X3189420Y-18217698D01*
X3189420Y-18217698D02*
X3075134Y-18331984D01*
X3075134Y-18331984D02*
X3198944Y-18331984D01*
X3275134Y-18131984D02*
X3275134Y-18170079D01*
X3351325Y-18131984D02*
X3351325Y-18170079D01*
X3646563Y-18408174D02*
X3637039Y-18398650D01*
X3637039Y-18398650D02*
X3617991Y-18370079D01*
X3617991Y-18370079D02*
X3608468Y-18351031D01*
X3608468Y-18351031D02*
X3598944Y-18322460D01*
X3598944Y-18322460D02*
X3589420Y-18274841D01*
X3589420Y-18274841D02*
X3589420Y-18236746D01*
X3589420Y-18236746D02*
X3598944Y-18189127D01*
X3598944Y-18189127D02*
X3608468Y-18160555D01*
X3608468Y-18160555D02*
X3617991Y-18141508D01*
X3617991Y-18141508D02*
X3637039Y-18112936D01*
X3637039Y-18112936D02*
X3646563Y-18103412D01*
X3808468Y-18198650D02*
X3808468Y-18331984D01*
X3760848Y-18122460D02*
X3713229Y-18265317D01*
X3713229Y-18265317D02*
X3837039Y-18265317D01*
X4065610Y-18331984D02*
X4065610Y-18131984D01*
X4151325Y-18331984D02*
X4151325Y-18227222D01*
X4151325Y-18227222D02*
X4141801Y-18208174D01*
X4141801Y-18208174D02*
X4122753Y-18198650D01*
X4122753Y-18198650D02*
X4094182Y-18198650D01*
X4094182Y-18198650D02*
X4075134Y-18208174D01*
X4075134Y-18208174D02*
X4065610Y-18217698D01*
X4275134Y-18331984D02*
X4256087Y-18322460D01*
X4256087Y-18322460D02*
X4246563Y-18312936D01*
X4246563Y-18312936D02*
X4237039Y-18293889D01*
X4237039Y-18293889D02*
X4237039Y-18236746D01*
X4237039Y-18236746D02*
X4246563Y-18217698D01*
X4246563Y-18217698D02*
X4256087Y-18208174D01*
X4256087Y-18208174D02*
X4275134Y-18198650D01*
X4275134Y-18198650D02*
X4303706Y-18198650D01*
X4303706Y-18198650D02*
X4322753Y-18208174D01*
X4322753Y-18208174D02*
X4332277Y-18217698D01*
X4332277Y-18217698D02*
X4341801Y-18236746D01*
X4341801Y-18236746D02*
X4341801Y-18293889D01*
X4341801Y-18293889D02*
X4332277Y-18312936D01*
X4332277Y-18312936D02*
X4322753Y-18322460D01*
X4322753Y-18322460D02*
X4303706Y-18331984D01*
X4303706Y-18331984D02*
X4275134Y-18331984D01*
X4456087Y-18331984D02*
X4437039Y-18322460D01*
X4437039Y-18322460D02*
X4427515Y-18303412D01*
X4427515Y-18303412D02*
X4427515Y-18131984D01*
X4608468Y-18322460D02*
X4589420Y-18331984D01*
X4589420Y-18331984D02*
X4551325Y-18331984D01*
X4551325Y-18331984D02*
X4532277Y-18322460D01*
X4532277Y-18322460D02*
X4522753Y-18303412D01*
X4522753Y-18303412D02*
X4522753Y-18227222D01*
X4522753Y-18227222D02*
X4532277Y-18208174D01*
X4532277Y-18208174D02*
X4551325Y-18198650D01*
X4551325Y-18198650D02*
X4589420Y-18198650D01*
X4589420Y-18198650D02*
X4608468Y-18208174D01*
X4608468Y-18208174D02*
X4617992Y-18227222D01*
X4617992Y-18227222D02*
X4617992Y-18246270D01*
X4617992Y-18246270D02*
X4522753Y-18265317D01*
X4694182Y-18322460D02*
X4713230Y-18331984D01*
X4713230Y-18331984D02*
X4751325Y-18331984D01*
X4751325Y-18331984D02*
X4770373Y-18322460D01*
X4770373Y-18322460D02*
X4779896Y-18303412D01*
X4779896Y-18303412D02*
X4779896Y-18293889D01*
X4779896Y-18293889D02*
X4770373Y-18274841D01*
X4770373Y-18274841D02*
X4751325Y-18265317D01*
X4751325Y-18265317D02*
X4722753Y-18265317D01*
X4722753Y-18265317D02*
X4703706Y-18255793D01*
X4703706Y-18255793D02*
X4694182Y-18236746D01*
X4694182Y-18236746D02*
X4694182Y-18227222D01*
X4694182Y-18227222D02*
X4703706Y-18208174D01*
X4703706Y-18208174D02*
X4722753Y-18198650D01*
X4722753Y-18198650D02*
X4751325Y-18198650D01*
X4751325Y-18198650D02*
X4770373Y-18208174D01*
X4846563Y-18408174D02*
X4856087Y-18398650D01*
X4856087Y-18398650D02*
X4875134Y-18370079D01*
X4875134Y-18370079D02*
X4884658Y-18351031D01*
X4884658Y-18351031D02*
X4894182Y-18322460D01*
X4894182Y-18322460D02*
X4903706Y-18274841D01*
X4903706Y-18274841D02*
X4903706Y-18236746D01*
X4903706Y-18236746D02*
X4894182Y-18189127D01*
X4894182Y-18189127D02*
X4884658Y-18160555D01*
X4884658Y-18160555D02*
X4875134Y-18141508D01*
X4875134Y-18141508D02*
X4856087Y-18112936D01*
X4856087Y-18112936D02*
X4846563Y-18103412D01*
D15*
X-98500Y-18419500D02*
X71500Y-18589500D01*
X71500Y-18419500D02*
X-98500Y-18589500D01*
X-13500Y-18589500D02*
X71500Y-18504500D01*
X-13500Y-18419500D01*
X-98500Y-18504500D01*
X-13500Y-18589500D01*
D11*
X437039Y-18595984D02*
X322753Y-18595984D01*
X379896Y-18595984D02*
X379896Y-18395984D01*
X379896Y-18395984D02*
X360848Y-18424555D01*
X360848Y-18424555D02*
X341801Y-18443603D01*
X341801Y-18443603D02*
X322753Y-18453127D01*
X522753Y-18576936D02*
X532277Y-18586460D01*
X532277Y-18586460D02*
X522753Y-18595984D01*
X522753Y-18595984D02*
X513229Y-18586460D01*
X513229Y-18586460D02*
X522753Y-18576936D01*
X522753Y-18576936D02*
X522753Y-18595984D01*
X598944Y-18395984D02*
X732277Y-18395984D01*
X732277Y-18395984D02*
X646563Y-18595984D01*
X846562Y-18395984D02*
X865610Y-18395984D01*
X865610Y-18395984D02*
X884658Y-18405508D01*
X884658Y-18405508D02*
X894182Y-18415031D01*
X894182Y-18415031D02*
X903705Y-18434079D01*
X903705Y-18434079D02*
X913229Y-18472174D01*
X913229Y-18472174D02*
X913229Y-18519793D01*
X913229Y-18519793D02*
X903705Y-18557889D01*
X903705Y-18557889D02*
X894182Y-18576936D01*
X894182Y-18576936D02*
X884658Y-18586460D01*
X884658Y-18586460D02*
X865610Y-18595984D01*
X865610Y-18595984D02*
X846562Y-18595984D01*
X846562Y-18595984D02*
X827515Y-18586460D01*
X827515Y-18586460D02*
X817991Y-18576936D01*
X817991Y-18576936D02*
X808467Y-18557889D01*
X808467Y-18557889D02*
X798943Y-18519793D01*
X798943Y-18519793D02*
X798943Y-18472174D01*
X798943Y-18472174D02*
X808467Y-18434079D01*
X808467Y-18434079D02*
X817991Y-18415031D01*
X817991Y-18415031D02*
X827515Y-18405508D01*
X827515Y-18405508D02*
X846562Y-18395984D01*
X1037039Y-18395984D02*
X1056086Y-18395984D01*
X1056086Y-18395984D02*
X1075134Y-18405508D01*
X1075134Y-18405508D02*
X1084658Y-18415031D01*
X1084658Y-18415031D02*
X1094182Y-18434079D01*
X1094182Y-18434079D02*
X1103705Y-18472174D01*
X1103705Y-18472174D02*
X1103705Y-18519793D01*
X1103705Y-18519793D02*
X1094182Y-18557889D01*
X1094182Y-18557889D02*
X1084658Y-18576936D01*
X1084658Y-18576936D02*
X1075134Y-18586460D01*
X1075134Y-18586460D02*
X1056086Y-18595984D01*
X1056086Y-18595984D02*
X1037039Y-18595984D01*
X1037039Y-18595984D02*
X1017991Y-18586460D01*
X1017991Y-18586460D02*
X1008467Y-18576936D01*
X1008467Y-18576936D02*
X998943Y-18557889D01*
X998943Y-18557889D02*
X989420Y-18519793D01*
X989420Y-18519793D02*
X989420Y-18472174D01*
X989420Y-18472174D02*
X998943Y-18434079D01*
X998943Y-18434079D02*
X1008467Y-18415031D01*
X1008467Y-18415031D02*
X1017991Y-18405508D01*
X1017991Y-18405508D02*
X1037039Y-18395984D01*
X1189420Y-18595984D02*
X1189420Y-18462650D01*
X1189420Y-18481698D02*
X1198944Y-18472174D01*
X1198944Y-18472174D02*
X1217991Y-18462650D01*
X1217991Y-18462650D02*
X1246563Y-18462650D01*
X1246563Y-18462650D02*
X1265610Y-18472174D01*
X1265610Y-18472174D02*
X1275134Y-18491222D01*
X1275134Y-18491222D02*
X1275134Y-18595984D01*
X1275134Y-18491222D02*
X1284658Y-18472174D01*
X1284658Y-18472174D02*
X1303705Y-18462650D01*
X1303705Y-18462650D02*
X1332277Y-18462650D01*
X1332277Y-18462650D02*
X1351325Y-18472174D01*
X1351325Y-18472174D02*
X1360848Y-18491222D01*
X1360848Y-18491222D02*
X1360848Y-18595984D01*
X1456086Y-18595984D02*
X1456086Y-18462650D01*
X1456086Y-18481698D02*
X1465610Y-18472174D01*
X1465610Y-18472174D02*
X1484658Y-18462650D01*
X1484658Y-18462650D02*
X1513229Y-18462650D01*
X1513229Y-18462650D02*
X1532277Y-18472174D01*
X1532277Y-18472174D02*
X1541801Y-18491222D01*
X1541801Y-18491222D02*
X1541801Y-18595984D01*
X1541801Y-18491222D02*
X1551324Y-18472174D01*
X1551324Y-18472174D02*
X1570372Y-18462650D01*
X1570372Y-18462650D02*
X1598943Y-18462650D01*
X1598943Y-18462650D02*
X1617991Y-18472174D01*
X1617991Y-18472174D02*
X1627515Y-18491222D01*
X1627515Y-18491222D02*
X1627515Y-18595984D01*
X2017991Y-18386460D02*
X1846563Y-18643603D01*
X2275134Y-18395984D02*
X2294182Y-18395984D01*
X2294182Y-18395984D02*
X2313229Y-18405508D01*
X2313229Y-18405508D02*
X2322753Y-18415031D01*
X2322753Y-18415031D02*
X2332277Y-18434079D01*
X2332277Y-18434079D02*
X2341801Y-18472174D01*
X2341801Y-18472174D02*
X2341801Y-18519793D01*
X2341801Y-18519793D02*
X2332277Y-18557889D01*
X2332277Y-18557889D02*
X2322753Y-18576936D01*
X2322753Y-18576936D02*
X2313229Y-18586460D01*
X2313229Y-18586460D02*
X2294182Y-18595984D01*
X2294182Y-18595984D02*
X2275134Y-18595984D01*
X2275134Y-18595984D02*
X2256087Y-18586460D01*
X2256087Y-18586460D02*
X2246563Y-18576936D01*
X2246563Y-18576936D02*
X2237039Y-18557889D01*
X2237039Y-18557889D02*
X2227515Y-18519793D01*
X2227515Y-18519793D02*
X2227515Y-18472174D01*
X2227515Y-18472174D02*
X2237039Y-18434079D01*
X2237039Y-18434079D02*
X2246563Y-18415031D01*
X2246563Y-18415031D02*
X2256087Y-18405508D01*
X2256087Y-18405508D02*
X2275134Y-18395984D01*
X2427515Y-18576936D02*
X2437039Y-18586460D01*
X2437039Y-18586460D02*
X2427515Y-18595984D01*
X2427515Y-18595984D02*
X2417991Y-18586460D01*
X2417991Y-18586460D02*
X2427515Y-18576936D01*
X2427515Y-18576936D02*
X2427515Y-18595984D01*
X2560848Y-18395984D02*
X2579896Y-18395984D01*
X2579896Y-18395984D02*
X2598944Y-18405508D01*
X2598944Y-18405508D02*
X2608468Y-18415031D01*
X2608468Y-18415031D02*
X2617991Y-18434079D01*
X2617991Y-18434079D02*
X2627515Y-18472174D01*
X2627515Y-18472174D02*
X2627515Y-18519793D01*
X2627515Y-18519793D02*
X2617991Y-18557889D01*
X2617991Y-18557889D02*
X2608468Y-18576936D01*
X2608468Y-18576936D02*
X2598944Y-18586460D01*
X2598944Y-18586460D02*
X2579896Y-18595984D01*
X2579896Y-18595984D02*
X2560848Y-18595984D01*
X2560848Y-18595984D02*
X2541801Y-18586460D01*
X2541801Y-18586460D02*
X2532277Y-18576936D01*
X2532277Y-18576936D02*
X2522753Y-18557889D01*
X2522753Y-18557889D02*
X2513229Y-18519793D01*
X2513229Y-18519793D02*
X2513229Y-18472174D01*
X2513229Y-18472174D02*
X2522753Y-18434079D01*
X2522753Y-18434079D02*
X2532277Y-18415031D01*
X2532277Y-18415031D02*
X2541801Y-18405508D01*
X2541801Y-18405508D02*
X2560848Y-18395984D01*
X2798944Y-18395984D02*
X2760848Y-18395984D01*
X2760848Y-18395984D02*
X2741801Y-18405508D01*
X2741801Y-18405508D02*
X2732277Y-18415031D01*
X2732277Y-18415031D02*
X2713229Y-18443603D01*
X2713229Y-18443603D02*
X2703706Y-18481698D01*
X2703706Y-18481698D02*
X2703706Y-18557889D01*
X2703706Y-18557889D02*
X2713229Y-18576936D01*
X2713229Y-18576936D02*
X2722753Y-18586460D01*
X2722753Y-18586460D02*
X2741801Y-18595984D01*
X2741801Y-18595984D02*
X2779896Y-18595984D01*
X2779896Y-18595984D02*
X2798944Y-18586460D01*
X2798944Y-18586460D02*
X2808467Y-18576936D01*
X2808467Y-18576936D02*
X2817991Y-18557889D01*
X2817991Y-18557889D02*
X2817991Y-18510270D01*
X2817991Y-18510270D02*
X2808467Y-18491222D01*
X2808467Y-18491222D02*
X2798944Y-18481698D01*
X2798944Y-18481698D02*
X2779896Y-18472174D01*
X2779896Y-18472174D02*
X2741801Y-18472174D01*
X2741801Y-18472174D02*
X2722753Y-18481698D01*
X2722753Y-18481698D02*
X2713229Y-18491222D01*
X2713229Y-18491222D02*
X2703706Y-18510270D01*
X2989420Y-18395984D02*
X2951325Y-18395984D01*
X2951325Y-18395984D02*
X2932277Y-18405508D01*
X2932277Y-18405508D02*
X2922753Y-18415031D01*
X2922753Y-18415031D02*
X2903706Y-18443603D01*
X2903706Y-18443603D02*
X2894182Y-18481698D01*
X2894182Y-18481698D02*
X2894182Y-18557889D01*
X2894182Y-18557889D02*
X2903706Y-18576936D01*
X2903706Y-18576936D02*
X2913229Y-18586460D01*
X2913229Y-18586460D02*
X2932277Y-18595984D01*
X2932277Y-18595984D02*
X2970372Y-18595984D01*
X2970372Y-18595984D02*
X2989420Y-18586460D01*
X2989420Y-18586460D02*
X2998944Y-18576936D01*
X2998944Y-18576936D02*
X3008467Y-18557889D01*
X3008467Y-18557889D02*
X3008467Y-18510270D01*
X3008467Y-18510270D02*
X2998944Y-18491222D01*
X2998944Y-18491222D02*
X2989420Y-18481698D01*
X2989420Y-18481698D02*
X2970372Y-18472174D01*
X2970372Y-18472174D02*
X2932277Y-18472174D01*
X2932277Y-18472174D02*
X2913229Y-18481698D01*
X2913229Y-18481698D02*
X2903706Y-18491222D01*
X2903706Y-18491222D02*
X2894182Y-18510270D01*
X3103706Y-18595984D02*
X3141801Y-18595984D01*
X3141801Y-18595984D02*
X3160848Y-18586460D01*
X3160848Y-18586460D02*
X3170372Y-18576936D01*
X3170372Y-18576936D02*
X3189420Y-18548365D01*
X3189420Y-18548365D02*
X3198944Y-18510270D01*
X3198944Y-18510270D02*
X3198944Y-18434079D01*
X3198944Y-18434079D02*
X3189420Y-18415031D01*
X3189420Y-18415031D02*
X3179896Y-18405508D01*
X3179896Y-18405508D02*
X3160848Y-18395984D01*
X3160848Y-18395984D02*
X3122753Y-18395984D01*
X3122753Y-18395984D02*
X3103706Y-18405508D01*
X3103706Y-18405508D02*
X3094182Y-18415031D01*
X3094182Y-18415031D02*
X3084658Y-18434079D01*
X3084658Y-18434079D02*
X3084658Y-18481698D01*
X3084658Y-18481698D02*
X3094182Y-18500746D01*
X3094182Y-18500746D02*
X3103706Y-18510270D01*
X3103706Y-18510270D02*
X3122753Y-18519793D01*
X3122753Y-18519793D02*
X3160848Y-18519793D01*
X3160848Y-18519793D02*
X3179896Y-18510270D01*
X3179896Y-18510270D02*
X3189420Y-18500746D01*
X3189420Y-18500746D02*
X3198944Y-18481698D01*
X3275134Y-18395984D02*
X3275134Y-18434079D01*
X3351325Y-18395984D02*
X3351325Y-18434079D01*
X3646563Y-18672174D02*
X3637039Y-18662650D01*
X3637039Y-18662650D02*
X3617991Y-18634079D01*
X3617991Y-18634079D02*
X3608468Y-18615031D01*
X3608468Y-18615031D02*
X3598944Y-18586460D01*
X3598944Y-18586460D02*
X3589420Y-18538841D01*
X3589420Y-18538841D02*
X3589420Y-18500746D01*
X3589420Y-18500746D02*
X3598944Y-18453127D01*
X3598944Y-18453127D02*
X3608468Y-18424555D01*
X3608468Y-18424555D02*
X3617991Y-18405508D01*
X3617991Y-18405508D02*
X3637039Y-18376936D01*
X3637039Y-18376936D02*
X3646563Y-18367412D01*
X3827515Y-18595984D02*
X3713229Y-18595984D01*
X3770372Y-18595984D02*
X3770372Y-18395984D01*
X3770372Y-18395984D02*
X3751325Y-18424555D01*
X3751325Y-18424555D02*
X3732277Y-18443603D01*
X3732277Y-18443603D02*
X3713229Y-18453127D01*
X3941801Y-18481698D02*
X3922753Y-18472174D01*
X3922753Y-18472174D02*
X3913229Y-18462650D01*
X3913229Y-18462650D02*
X3903706Y-18443603D01*
X3903706Y-18443603D02*
X3903706Y-18434079D01*
X3903706Y-18434079D02*
X3913229Y-18415031D01*
X3913229Y-18415031D02*
X3922753Y-18405508D01*
X3922753Y-18405508D02*
X3941801Y-18395984D01*
X3941801Y-18395984D02*
X3979896Y-18395984D01*
X3979896Y-18395984D02*
X3998944Y-18405508D01*
X3998944Y-18405508D02*
X4008468Y-18415031D01*
X4008468Y-18415031D02*
X4017991Y-18434079D01*
X4017991Y-18434079D02*
X4017991Y-18443603D01*
X4017991Y-18443603D02*
X4008468Y-18462650D01*
X4008468Y-18462650D02*
X3998944Y-18472174D01*
X3998944Y-18472174D02*
X3979896Y-18481698D01*
X3979896Y-18481698D02*
X3941801Y-18481698D01*
X3941801Y-18481698D02*
X3922753Y-18491222D01*
X3922753Y-18491222D02*
X3913229Y-18500746D01*
X3913229Y-18500746D02*
X3903706Y-18519793D01*
X3903706Y-18519793D02*
X3903706Y-18557889D01*
X3903706Y-18557889D02*
X3913229Y-18576936D01*
X3913229Y-18576936D02*
X3922753Y-18586460D01*
X3922753Y-18586460D02*
X3941801Y-18595984D01*
X3941801Y-18595984D02*
X3979896Y-18595984D01*
X3979896Y-18595984D02*
X3998944Y-18586460D01*
X3998944Y-18586460D02*
X4008468Y-18576936D01*
X4008468Y-18576936D02*
X4017991Y-18557889D01*
X4017991Y-18557889D02*
X4017991Y-18519793D01*
X4017991Y-18519793D02*
X4008468Y-18500746D01*
X4008468Y-18500746D02*
X3998944Y-18491222D01*
X3998944Y-18491222D02*
X3979896Y-18481698D01*
X4256087Y-18595984D02*
X4256087Y-18395984D01*
X4341801Y-18595984D02*
X4341801Y-18491222D01*
X4341801Y-18491222D02*
X4332277Y-18472174D01*
X4332277Y-18472174D02*
X4313230Y-18462650D01*
X4313230Y-18462650D02*
X4284658Y-18462650D01*
X4284658Y-18462650D02*
X4265611Y-18472174D01*
X4265611Y-18472174D02*
X4256087Y-18481698D01*
X4465611Y-18595984D02*
X4446563Y-18586460D01*
X4446563Y-18586460D02*
X4437039Y-18576936D01*
X4437039Y-18576936D02*
X4427515Y-18557889D01*
X4427515Y-18557889D02*
X4427515Y-18500746D01*
X4427515Y-18500746D02*
X4437039Y-18481698D01*
X4437039Y-18481698D02*
X4446563Y-18472174D01*
X4446563Y-18472174D02*
X4465611Y-18462650D01*
X4465611Y-18462650D02*
X4494182Y-18462650D01*
X4494182Y-18462650D02*
X4513230Y-18472174D01*
X4513230Y-18472174D02*
X4522753Y-18481698D01*
X4522753Y-18481698D02*
X4532277Y-18500746D01*
X4532277Y-18500746D02*
X4532277Y-18557889D01*
X4532277Y-18557889D02*
X4522753Y-18576936D01*
X4522753Y-18576936D02*
X4513230Y-18586460D01*
X4513230Y-18586460D02*
X4494182Y-18595984D01*
X4494182Y-18595984D02*
X4465611Y-18595984D01*
X4646563Y-18595984D02*
X4627515Y-18586460D01*
X4627515Y-18586460D02*
X4617992Y-18567412D01*
X4617992Y-18567412D02*
X4617992Y-18395984D01*
X4798944Y-18586460D02*
X4779896Y-18595984D01*
X4779896Y-18595984D02*
X4741801Y-18595984D01*
X4741801Y-18595984D02*
X4722753Y-18586460D01*
X4722753Y-18586460D02*
X4713230Y-18567412D01*
X4713230Y-18567412D02*
X4713230Y-18491222D01*
X4713230Y-18491222D02*
X4722753Y-18472174D01*
X4722753Y-18472174D02*
X4741801Y-18462650D01*
X4741801Y-18462650D02*
X4779896Y-18462650D01*
X4779896Y-18462650D02*
X4798944Y-18472174D01*
X4798944Y-18472174D02*
X4808468Y-18491222D01*
X4808468Y-18491222D02*
X4808468Y-18510270D01*
X4808468Y-18510270D02*
X4713230Y-18529317D01*
X4884658Y-18586460D02*
X4903706Y-18595984D01*
X4903706Y-18595984D02*
X4941801Y-18595984D01*
X4941801Y-18595984D02*
X4960849Y-18586460D01*
X4960849Y-18586460D02*
X4970373Y-18567412D01*
X4970373Y-18567412D02*
X4970373Y-18557889D01*
X4970373Y-18557889D02*
X4960849Y-18538841D01*
X4960849Y-18538841D02*
X4941801Y-18529317D01*
X4941801Y-18529317D02*
X4913230Y-18529317D01*
X4913230Y-18529317D02*
X4894182Y-18519793D01*
X4894182Y-18519793D02*
X4884658Y-18500746D01*
X4884658Y-18500746D02*
X4884658Y-18491222D01*
X4884658Y-18491222D02*
X4894182Y-18472174D01*
X4894182Y-18472174D02*
X4913230Y-18462650D01*
X4913230Y-18462650D02*
X4941801Y-18462650D01*
X4941801Y-18462650D02*
X4960849Y-18472174D01*
X5037039Y-18672174D02*
X5046563Y-18662650D01*
X5046563Y-18662650D02*
X5065611Y-18634079D01*
X5065611Y-18634079D02*
X5075134Y-18615031D01*
X5075134Y-18615031D02*
X5084658Y-18586460D01*
X5084658Y-18586460D02*
X5094182Y-18538841D01*
X5094182Y-18538841D02*
X5094182Y-18500746D01*
X5094182Y-18500746D02*
X5084658Y-18453127D01*
X5084658Y-18453127D02*
X5075134Y-18424555D01*
X5075134Y-18424555D02*
X5065611Y-18405508D01*
X5065611Y-18405508D02*
X5046563Y-18376936D01*
X5046563Y-18376936D02*
X5037039Y-18367412D01*
X-28500Y-18694500D02*
X-28500Y-18894500D01*
X-128500Y-18794500D02*
X71500Y-18794500D01*
X71500Y-18794500D02*
G75*
G02*
X-128500Y-18794500I-100000J0D01*
G01*
X-128500Y-18794500D02*
G75*
G02*
X71500Y-18794500I100000J0D01*
G01*
X313229Y-18685984D02*
X437039Y-18685984D01*
X437039Y-18685984D02*
X370372Y-18762174D01*
X370372Y-18762174D02*
X398943Y-18762174D01*
X398943Y-18762174D02*
X417991Y-18771698D01*
X417991Y-18771698D02*
X427515Y-18781222D01*
X427515Y-18781222D02*
X437039Y-18800270D01*
X437039Y-18800270D02*
X437039Y-18847889D01*
X437039Y-18847889D02*
X427515Y-18866936D01*
X427515Y-18866936D02*
X417991Y-18876460D01*
X417991Y-18876460D02*
X398943Y-18885984D01*
X398943Y-18885984D02*
X341801Y-18885984D01*
X341801Y-18885984D02*
X322753Y-18876460D01*
X322753Y-18876460D02*
X313229Y-18866936D01*
X522753Y-18866936D02*
X532277Y-18876460D01*
X532277Y-18876460D02*
X522753Y-18885984D01*
X522753Y-18885984D02*
X513229Y-18876460D01*
X513229Y-18876460D02*
X522753Y-18866936D01*
X522753Y-18866936D02*
X522753Y-18885984D01*
X646563Y-18771698D02*
X627515Y-18762174D01*
X627515Y-18762174D02*
X617991Y-18752650D01*
X617991Y-18752650D02*
X608467Y-18733603D01*
X608467Y-18733603D02*
X608467Y-18724079D01*
X608467Y-18724079D02*
X617991Y-18705031D01*
X617991Y-18705031D02*
X627515Y-18695508D01*
X627515Y-18695508D02*
X646563Y-18685984D01*
X646563Y-18685984D02*
X684658Y-18685984D01*
X684658Y-18685984D02*
X703705Y-18695508D01*
X703705Y-18695508D02*
X713229Y-18705031D01*
X713229Y-18705031D02*
X722753Y-18724079D01*
X722753Y-18724079D02*
X722753Y-18733603D01*
X722753Y-18733603D02*
X713229Y-18752650D01*
X713229Y-18752650D02*
X703705Y-18762174D01*
X703705Y-18762174D02*
X684658Y-18771698D01*
X684658Y-18771698D02*
X646563Y-18771698D01*
X646563Y-18771698D02*
X627515Y-18781222D01*
X627515Y-18781222D02*
X617991Y-18790746D01*
X617991Y-18790746D02*
X608467Y-18809793D01*
X608467Y-18809793D02*
X608467Y-18847889D01*
X608467Y-18847889D02*
X617991Y-18866936D01*
X617991Y-18866936D02*
X627515Y-18876460D01*
X627515Y-18876460D02*
X646563Y-18885984D01*
X646563Y-18885984D02*
X684658Y-18885984D01*
X684658Y-18885984D02*
X703705Y-18876460D01*
X703705Y-18876460D02*
X713229Y-18866936D01*
X713229Y-18866936D02*
X722753Y-18847889D01*
X722753Y-18847889D02*
X722753Y-18809793D01*
X722753Y-18809793D02*
X713229Y-18790746D01*
X713229Y-18790746D02*
X703705Y-18781222D01*
X703705Y-18781222D02*
X684658Y-18771698D01*
X846562Y-18685984D02*
X865610Y-18685984D01*
X865610Y-18685984D02*
X884658Y-18695508D01*
X884658Y-18695508D02*
X894182Y-18705031D01*
X894182Y-18705031D02*
X903705Y-18724079D01*
X903705Y-18724079D02*
X913229Y-18762174D01*
X913229Y-18762174D02*
X913229Y-18809793D01*
X913229Y-18809793D02*
X903705Y-18847889D01*
X903705Y-18847889D02*
X894182Y-18866936D01*
X894182Y-18866936D02*
X884658Y-18876460D01*
X884658Y-18876460D02*
X865610Y-18885984D01*
X865610Y-18885984D02*
X846562Y-18885984D01*
X846562Y-18885984D02*
X827515Y-18876460D01*
X827515Y-18876460D02*
X817991Y-18866936D01*
X817991Y-18866936D02*
X808467Y-18847889D01*
X808467Y-18847889D02*
X798943Y-18809793D01*
X798943Y-18809793D02*
X798943Y-18762174D01*
X798943Y-18762174D02*
X808467Y-18724079D01*
X808467Y-18724079D02*
X817991Y-18705031D01*
X817991Y-18705031D02*
X827515Y-18695508D01*
X827515Y-18695508D02*
X846562Y-18685984D01*
X1037039Y-18685984D02*
X1056086Y-18685984D01*
X1056086Y-18685984D02*
X1075134Y-18695508D01*
X1075134Y-18695508D02*
X1084658Y-18705031D01*
X1084658Y-18705031D02*
X1094182Y-18724079D01*
X1094182Y-18724079D02*
X1103705Y-18762174D01*
X1103705Y-18762174D02*
X1103705Y-18809793D01*
X1103705Y-18809793D02*
X1094182Y-18847889D01*
X1094182Y-18847889D02*
X1084658Y-18866936D01*
X1084658Y-18866936D02*
X1075134Y-18876460D01*
X1075134Y-18876460D02*
X1056086Y-18885984D01*
X1056086Y-18885984D02*
X1037039Y-18885984D01*
X1037039Y-18885984D02*
X1017991Y-18876460D01*
X1017991Y-18876460D02*
X1008467Y-18866936D01*
X1008467Y-18866936D02*
X998943Y-18847889D01*
X998943Y-18847889D02*
X989420Y-18809793D01*
X989420Y-18809793D02*
X989420Y-18762174D01*
X989420Y-18762174D02*
X998943Y-18724079D01*
X998943Y-18724079D02*
X1008467Y-18705031D01*
X1008467Y-18705031D02*
X1017991Y-18695508D01*
X1017991Y-18695508D02*
X1037039Y-18685984D01*
X1189420Y-18885984D02*
X1189420Y-18752650D01*
X1189420Y-18771698D02*
X1198944Y-18762174D01*
X1198944Y-18762174D02*
X1217991Y-18752650D01*
X1217991Y-18752650D02*
X1246563Y-18752650D01*
X1246563Y-18752650D02*
X1265610Y-18762174D01*
X1265610Y-18762174D02*
X1275134Y-18781222D01*
X1275134Y-18781222D02*
X1275134Y-18885984D01*
X1275134Y-18781222D02*
X1284658Y-18762174D01*
X1284658Y-18762174D02*
X1303705Y-18752650D01*
X1303705Y-18752650D02*
X1332277Y-18752650D01*
X1332277Y-18752650D02*
X1351325Y-18762174D01*
X1351325Y-18762174D02*
X1360848Y-18781222D01*
X1360848Y-18781222D02*
X1360848Y-18885984D01*
X1456086Y-18885984D02*
X1456086Y-18752650D01*
X1456086Y-18771698D02*
X1465610Y-18762174D01*
X1465610Y-18762174D02*
X1484658Y-18752650D01*
X1484658Y-18752650D02*
X1513229Y-18752650D01*
X1513229Y-18752650D02*
X1532277Y-18762174D01*
X1532277Y-18762174D02*
X1541801Y-18781222D01*
X1541801Y-18781222D02*
X1541801Y-18885984D01*
X1541801Y-18781222D02*
X1551324Y-18762174D01*
X1551324Y-18762174D02*
X1570372Y-18752650D01*
X1570372Y-18752650D02*
X1598943Y-18752650D01*
X1598943Y-18752650D02*
X1617991Y-18762174D01*
X1617991Y-18762174D02*
X1627515Y-18781222D01*
X1627515Y-18781222D02*
X1627515Y-18885984D01*
X2017991Y-18676460D02*
X1846563Y-18933603D01*
X2275134Y-18685984D02*
X2294182Y-18685984D01*
X2294182Y-18685984D02*
X2313229Y-18695508D01*
X2313229Y-18695508D02*
X2322753Y-18705031D01*
X2322753Y-18705031D02*
X2332277Y-18724079D01*
X2332277Y-18724079D02*
X2341801Y-18762174D01*
X2341801Y-18762174D02*
X2341801Y-18809793D01*
X2341801Y-18809793D02*
X2332277Y-18847889D01*
X2332277Y-18847889D02*
X2322753Y-18866936D01*
X2322753Y-18866936D02*
X2313229Y-18876460D01*
X2313229Y-18876460D02*
X2294182Y-18885984D01*
X2294182Y-18885984D02*
X2275134Y-18885984D01*
X2275134Y-18885984D02*
X2256087Y-18876460D01*
X2256087Y-18876460D02*
X2246563Y-18866936D01*
X2246563Y-18866936D02*
X2237039Y-18847889D01*
X2237039Y-18847889D02*
X2227515Y-18809793D01*
X2227515Y-18809793D02*
X2227515Y-18762174D01*
X2227515Y-18762174D02*
X2237039Y-18724079D01*
X2237039Y-18724079D02*
X2246563Y-18705031D01*
X2246563Y-18705031D02*
X2256087Y-18695508D01*
X2256087Y-18695508D02*
X2275134Y-18685984D01*
X2427515Y-18866936D02*
X2437039Y-18876460D01*
X2437039Y-18876460D02*
X2427515Y-18885984D01*
X2427515Y-18885984D02*
X2417991Y-18876460D01*
X2417991Y-18876460D02*
X2427515Y-18866936D01*
X2427515Y-18866936D02*
X2427515Y-18885984D01*
X2627515Y-18885984D02*
X2513229Y-18885984D01*
X2570372Y-18885984D02*
X2570372Y-18685984D01*
X2570372Y-18685984D02*
X2551325Y-18714555D01*
X2551325Y-18714555D02*
X2532277Y-18733603D01*
X2532277Y-18733603D02*
X2513229Y-18743127D01*
X2798944Y-18752650D02*
X2798944Y-18885984D01*
X2751325Y-18676460D02*
X2703706Y-18819317D01*
X2703706Y-18819317D02*
X2827515Y-18819317D01*
X2913229Y-18885984D02*
X2951325Y-18885984D01*
X2951325Y-18885984D02*
X2970372Y-18876460D01*
X2970372Y-18876460D02*
X2979896Y-18866936D01*
X2979896Y-18866936D02*
X2998944Y-18838365D01*
X2998944Y-18838365D02*
X3008467Y-18800270D01*
X3008467Y-18800270D02*
X3008467Y-18724079D01*
X3008467Y-18724079D02*
X2998944Y-18705031D01*
X2998944Y-18705031D02*
X2989420Y-18695508D01*
X2989420Y-18695508D02*
X2970372Y-18685984D01*
X2970372Y-18685984D02*
X2932277Y-18685984D01*
X2932277Y-18685984D02*
X2913229Y-18695508D01*
X2913229Y-18695508D02*
X2903706Y-18705031D01*
X2903706Y-18705031D02*
X2894182Y-18724079D01*
X2894182Y-18724079D02*
X2894182Y-18771698D01*
X2894182Y-18771698D02*
X2903706Y-18790746D01*
X2903706Y-18790746D02*
X2913229Y-18800270D01*
X2913229Y-18800270D02*
X2932277Y-18809793D01*
X2932277Y-18809793D02*
X2970372Y-18809793D01*
X2970372Y-18809793D02*
X2989420Y-18800270D01*
X2989420Y-18800270D02*
X2998944Y-18790746D01*
X2998944Y-18790746D02*
X3008467Y-18771698D01*
X3179896Y-18685984D02*
X3141801Y-18685984D01*
X3141801Y-18685984D02*
X3122753Y-18695508D01*
X3122753Y-18695508D02*
X3113229Y-18705031D01*
X3113229Y-18705031D02*
X3094182Y-18733603D01*
X3094182Y-18733603D02*
X3084658Y-18771698D01*
X3084658Y-18771698D02*
X3084658Y-18847889D01*
X3084658Y-18847889D02*
X3094182Y-18866936D01*
X3094182Y-18866936D02*
X3103706Y-18876460D01*
X3103706Y-18876460D02*
X3122753Y-18885984D01*
X3122753Y-18885984D02*
X3160848Y-18885984D01*
X3160848Y-18885984D02*
X3179896Y-18876460D01*
X3179896Y-18876460D02*
X3189420Y-18866936D01*
X3189420Y-18866936D02*
X3198944Y-18847889D01*
X3198944Y-18847889D02*
X3198944Y-18800270D01*
X3198944Y-18800270D02*
X3189420Y-18781222D01*
X3189420Y-18781222D02*
X3179896Y-18771698D01*
X3179896Y-18771698D02*
X3160848Y-18762174D01*
X3160848Y-18762174D02*
X3122753Y-18762174D01*
X3122753Y-18762174D02*
X3103706Y-18771698D01*
X3103706Y-18771698D02*
X3094182Y-18781222D01*
X3094182Y-18781222D02*
X3084658Y-18800270D01*
X3275134Y-18685984D02*
X3275134Y-18724079D01*
X3351325Y-18685984D02*
X3351325Y-18724079D01*
X3646563Y-18962174D02*
X3637039Y-18952650D01*
X3637039Y-18952650D02*
X3617991Y-18924079D01*
X3617991Y-18924079D02*
X3608468Y-18905031D01*
X3608468Y-18905031D02*
X3598944Y-18876460D01*
X3598944Y-18876460D02*
X3589420Y-18828841D01*
X3589420Y-18828841D02*
X3589420Y-18790746D01*
X3589420Y-18790746D02*
X3598944Y-18743127D01*
X3598944Y-18743127D02*
X3608468Y-18714555D01*
X3608468Y-18714555D02*
X3617991Y-18695508D01*
X3617991Y-18695508D02*
X3637039Y-18666936D01*
X3637039Y-18666936D02*
X3646563Y-18657412D01*
X3713229Y-18705031D02*
X3722753Y-18695508D01*
X3722753Y-18695508D02*
X3741801Y-18685984D01*
X3741801Y-18685984D02*
X3789420Y-18685984D01*
X3789420Y-18685984D02*
X3808468Y-18695508D01*
X3808468Y-18695508D02*
X3817991Y-18705031D01*
X3817991Y-18705031D02*
X3827515Y-18724079D01*
X3827515Y-18724079D02*
X3827515Y-18743127D01*
X3827515Y-18743127D02*
X3817991Y-18771698D01*
X3817991Y-18771698D02*
X3703706Y-18885984D01*
X3703706Y-18885984D02*
X3827515Y-18885984D01*
X4065610Y-18885984D02*
X4065610Y-18685984D01*
X4151325Y-18885984D02*
X4151325Y-18781222D01*
X4151325Y-18781222D02*
X4141801Y-18762174D01*
X4141801Y-18762174D02*
X4122753Y-18752650D01*
X4122753Y-18752650D02*
X4094182Y-18752650D01*
X4094182Y-18752650D02*
X4075134Y-18762174D01*
X4075134Y-18762174D02*
X4065610Y-18771698D01*
X4275134Y-18885984D02*
X4256087Y-18876460D01*
X4256087Y-18876460D02*
X4246563Y-18866936D01*
X4246563Y-18866936D02*
X4237039Y-18847889D01*
X4237039Y-18847889D02*
X4237039Y-18790746D01*
X4237039Y-18790746D02*
X4246563Y-18771698D01*
X4246563Y-18771698D02*
X4256087Y-18762174D01*
X4256087Y-18762174D02*
X4275134Y-18752650D01*
X4275134Y-18752650D02*
X4303706Y-18752650D01*
X4303706Y-18752650D02*
X4322753Y-18762174D01*
X4322753Y-18762174D02*
X4332277Y-18771698D01*
X4332277Y-18771698D02*
X4341801Y-18790746D01*
X4341801Y-18790746D02*
X4341801Y-18847889D01*
X4341801Y-18847889D02*
X4332277Y-18866936D01*
X4332277Y-18866936D02*
X4322753Y-18876460D01*
X4322753Y-18876460D02*
X4303706Y-18885984D01*
X4303706Y-18885984D02*
X4275134Y-18885984D01*
X4456087Y-18885984D02*
X4437039Y-18876460D01*
X4437039Y-18876460D02*
X4427515Y-18857412D01*
X4427515Y-18857412D02*
X4427515Y-18685984D01*
X4608468Y-18876460D02*
X4589420Y-18885984D01*
X4589420Y-18885984D02*
X4551325Y-18885984D01*
X4551325Y-18885984D02*
X4532277Y-18876460D01*
X4532277Y-18876460D02*
X4522753Y-18857412D01*
X4522753Y-18857412D02*
X4522753Y-18781222D01*
X4522753Y-18781222D02*
X4532277Y-18762174D01*
X4532277Y-18762174D02*
X4551325Y-18752650D01*
X4551325Y-18752650D02*
X4589420Y-18752650D01*
X4589420Y-18752650D02*
X4608468Y-18762174D01*
X4608468Y-18762174D02*
X4617992Y-18781222D01*
X4617992Y-18781222D02*
X4617992Y-18800270D01*
X4617992Y-18800270D02*
X4522753Y-18819317D01*
X4694182Y-18876460D02*
X4713230Y-18885984D01*
X4713230Y-18885984D02*
X4751325Y-18885984D01*
X4751325Y-18885984D02*
X4770373Y-18876460D01*
X4770373Y-18876460D02*
X4779896Y-18857412D01*
X4779896Y-18857412D02*
X4779896Y-18847889D01*
X4779896Y-18847889D02*
X4770373Y-18828841D01*
X4770373Y-18828841D02*
X4751325Y-18819317D01*
X4751325Y-18819317D02*
X4722753Y-18819317D01*
X4722753Y-18819317D02*
X4703706Y-18809793D01*
X4703706Y-18809793D02*
X4694182Y-18790746D01*
X4694182Y-18790746D02*
X4694182Y-18781222D01*
X4694182Y-18781222D02*
X4703706Y-18762174D01*
X4703706Y-18762174D02*
X4722753Y-18752650D01*
X4722753Y-18752650D02*
X4751325Y-18752650D01*
X4751325Y-18752650D02*
X4770373Y-18762174D01*
X4846563Y-18962174D02*
X4856087Y-18952650D01*
X4856087Y-18952650D02*
X4875134Y-18924079D01*
X4875134Y-18924079D02*
X4884658Y-18905031D01*
X4884658Y-18905031D02*
X4894182Y-18876460D01*
X4894182Y-18876460D02*
X4903706Y-18828841D01*
X4903706Y-18828841D02*
X4903706Y-18790746D01*
X4903706Y-18790746D02*
X4894182Y-18743127D01*
X4894182Y-18743127D02*
X4884658Y-18714555D01*
X4884658Y-18714555D02*
X4875134Y-18695508D01*
X4875134Y-18695508D02*
X4856087Y-18666936D01*
X4856087Y-18666936D02*
X4846563Y-18657412D01*
M02*
